<svg width="475" height="60" viewBox="0 0 475 60" fill="none" xmlns="http://www.w3.org/2000/svg">
<path d="M0 58.1945V0.0166016H12.3853V58.1945H0Z" fill="white"/>
<path d="M92.751 58.7137L64.9143 21.0896C64.7083 20.8625 64.5452 20.6067 64.4314 20.3323L63.5381 18.7962C63.324 18.3645 63.0653 17.9516 62.7656 17.563C62.5724 17.1952 62.4034 16.8923 62.2827 16.6327C62.1093 16.2766 61.972 15.9073 61.8723 15.5293V58.1945H50.0664V0.0166016H64.3107L91.568 38.2682C91.6457 38.4424 91.7428 38.6091 91.8577 38.7658C91.9785 38.9605 92.1233 39.2201 92.2682 39.5014C92.3542 39.7488 92.4674 39.988 92.6062 40.2154C92.6062 40.3885 92.7752 40.5399 92.8476 40.6481L93.4512 42.1626L94.1513 43.2876V0.0166016H105.836V58.7137H92.751Z" fill="white"/>
<path d="M167.912 59.8604H159.341L135.198 0.0166016H148.718L163.566 39.3283L163.759 40.1288L163.952 41.1024L164.242 42.1626V41.5351C164.207 41.2403 164.207 40.9429 164.242 40.6481C164.279 40.4343 164.361 40.2287 164.484 40.0423L164.87 39.3283L179.018 0.0166016H191.982L167.912 59.8604Z" fill="white"/>
<path d="M220.521 58.1945V0.0166016H232.93V58.1945H220.521Z" fill="white"/>
<path d="M293.788 9.44968V58.1945H281.403V9.44968H261.919V0.0166016H313.271V9.44968H293.788Z" fill="white"/>
<path d="M342.688 58.1945V0.0166016H382.235V9.44968H355.074V23.8157H377.309V33.2487H355.074V48.7614H383.514V58.1945H342.688Z" fill="white"/>
<path d="M474.001 28.9198C473.979 32.7574 473.161 36.5579 471.587 40.127C470.09 43.659 467.835 46.8934 464.947 49.6466C458.992 55.3295 450.244 58.1782 438.704 58.1926H414.779V0.0147138H438.921C444.137 -0.110366 449.338 0.562778 454.3 2.00518C458.485 3.35625 462.251 5.5812 465.285 8.49583C468.097 11.2107 470.302 14.3835 471.78 17.8424C473.275 21.3809 474.028 25.1363 474.001 28.9198ZM460.626 28.9198C460.679 25.7856 460.03 22.6737 458.719 19.7679C457.567 17.2069 455.675 14.9666 453.238 13.2773C451.279 11.9823 449.031 11.0819 446.647 10.6377C443.653 10.0326 440.59 9.74935 437.521 9.79396H427.671V48.4134H437.521C444.941 48.4134 450.623 46.733 454.566 43.3723C456.653 41.498 458.272 39.2484 459.316 36.772C460.361 34.2956 460.807 31.6487 460.626 29.0063V28.9198Z" fill="white"/>
</svg>
