<svg xmlns="http://www.w3.org/2000/svg" xmlns:xlink="http://www.w3.org/1999/xlink"><symbol id="slh-desktop" viewBox="0 0 396.26 321.01"><path d="M382.89 278.17c0-.22.11-.46.18-.71l.21-.76a4.67 4.67 0 01.17-.57l.22-.49c.11-.24.23-.49.36-.74s.26-.5.37-.73.21-.39.27-.49h.15a.44.44 0 01.15 0h.3a.84.84 0 01.11.18c0 .1.12.22.18.35s.13.26.18.38.1.23.13.31.09.23.16.42.13.39.2.58a4.07 4.07 0 01.18.52l.1.32v1.24c0 .15-.06.4-.11.75s-.12.74-.19 1.13-.15.76-.21 1.1-.11.57-.13.67a1.9 1.9 0 01-.11.4c0 .18-.11.37-.17.57l-.19.55c-.07.16-.11.28-.13.33a2.65 2.65 0 01-.29.32l-.31.29-.28-.49c-.13-.23-.26-.47-.38-.73s-.25-.5-.36-.74a2.62 2.62 0 01-.2-.5 3.85 3.85 0 01-.17-.64 48.705 48.705 0 01-.39-1.85c-.05-.27-.07-.46-.07-.56s0-.19.07-.41m-7.81 14c0-.19.1-.39.16-.58s.13-.37.18-.52a1.26 1.26 0 00.08-.26.72.72 0 01.09-.24c0-.12.11-.24.18-.37l.19-.35a2 2 0 01.15-.25 4.47 4.47 0 01.45-.51l.75-.75.74-.73.51-.46.22-.12.36-.2.36-.18.27-.11.51-.11.88-.19c.32-.07.64-.14 1-.19l.71-.14H383.83a4.44 4.44 0 010 .5c0 .24-.06.49-.09.74s-.08.5-.11.75-.07.4-.09.49a1.68 1.68 0 01-.17.33l-.35.54c-.13.19-.26.38-.4.56l-.31.41c-.1.09-.25.26-.47.5s-.46.49-.73.75l-.74.75a3.63 3.63 0 01-.51.45 2.3 2.3 0 01-.34.26l-.55.38-.56.35-.37.22a3.23 3.23 0 01-.42.18 5.71 5.71 0 00-.58.21l-.52.17a1.23 1.23 0 01-.32.07 1.1 1.1 0 01-.45-.2c-.21-.14-.33-.26-.35-.35a4.86 4.86 0 01-.16-.54 2.58 2.58 0 01-.14-.78 1.83 1.83 0 01.07-.45m13 1.55l.3.17.38.2.35.18a.57.57 0 00.2.09h1.73l.52-.1.75-.18.73-.27a2.5 2.5 0 00.45-.15 7.76 7.76 0 002-1.4 2 2 0 00.66-1.1c0-.28-.16-.43-.52-.46a3.1 3.1 0 00-1.53.54 2.48 2.48 0 01-.34.24 7 7 0 01-.69.37l-.78.36a6.26 6.26 0 01-.64.24h-.15l-.28.09-.3.08h-.23a1.66 1.66 0 01-.51-.11 1.59 1.59 0 01-.37-.14 2.36 2.36 0 01-.44-.26 7.93 7.93 0 01-.74-.53 16.15 16.15 0 01-.82-1.74 4.32 4.32 0 00-.42-.93 4.72 4.72 0 01-.21-.6l-.31-1-.31-1c-.09-.31-.14-.48-.16-.52s0 0 0-.1v-.34a.29.29 0 010-.17c0-.07 0-.26.11-.56s.12-.63.19-1 .14-.69.21-1 .1-.49.12-.56a12.77 12.77 0 00.37-1.56 16.08 16.08 0 00.22-1.66c0-.55.07-1.07.08-1.57s0-.92 0-1.27a1.64 1.64 0 00-.08-.38c-.05-.2-.12-.43-.19-.7l-.22-.77c-.08-.25-.14-.45-.2-.6a1.09 1.09 0 00-.11-.24l-.17-.36-.2-.37-.12-.23a2.88 2.88 0 00-.3-.33 3 3 0 00-.34-.31l-.3-.16-.38-.21-.34-.16-.18-.07a.76.76 0 00-.27.07l-.37.16a3.1 3.1 0 00-.36.21 2.66 2.66 0 00-.22.16 3.52 3.52 0 00-.22.36c-.11.2-.23.44-.35.7s-.26.53-.39.78-.22.46-.27.61-.1.26-.17.46-.14.38-.2.57-.12.37-.17.53a2.56 2.56 0 00-.07.28c0 .2-.08.54-.18 1a7.35 7.35 0 00-.15 1.53 7 7 0 00.15 1.44q.15.74.33 1.38l.33 1.16a4.38 4.38 0 01.18.78l-.46.11c-.24 0-.5.11-.79.19l-.78.22-.47.14-.23.11a3.14 3.14 0 00-.37.18l-.38.19-.23.12-1.9 1.35-1.79 1.7c0 .06-.09.21-.21.46s-.25.51-.39.78-.29.53-.4.77-.19.39-.21.44a3.55 3.55 0 00-.14.7c0 .31-.06.62-.08.94s0 .61 0 .88v.51a3.18 3.18 0 00.09.67c.07.27.14.53.23.79s.19.48.29.67a.91.91 0 00.27.35l.63.22a3.8 3.8 0 00.51.13 2 2 0 00.43.06 3 3 0 00.51-.06c.23 0 .45-.08.68-.13l.61-.16.31-.06.2-.09.35-.18.39-.19.28-.15.48-.34c.22-.18.47-.36.74-.56l.74-.56.48-.38.28-.25c.13-.11.25-.23.38-.36s.24-.25.34-.37a1.85 1.85 0 01.21-.23 8.48 8.48 0 00.51-.72l.74-1.11c.27-.4.51-.77.73-1.12l.47-.74c.06.13.14.34.25.63s.23.6.35.92.26.63.38.91a5.56 5.56 0 00.29.62 3.76 3.76 0 00.3.5l.45.67.44.65a2.13 2.13 0 00.32.38zm-33.04-4.91v-.26a4 4 0 00.09-.58 2 2 0 01.24-.74 2.78 2.78 0 01.52-.75c.2-.2.32-.33.36-.38a1 1 0 01.34-.19 4.48 4.48 0 01.55-.21c.19-.07.38-.12.55-.17a1 1 0 01.4 0 2.92 2.92 0 010 .46v.99a1.64 1.64 0 010 .4c0 .05-.08.19-.18.39l-.34.72c-.13.27-.26.52-.39.77l-.3.57-.3.31a3.18 3.18 0 01-.33.29h-.61a1.54 1.54 0 01-.34-.29 1.34 1.34 0 01-.26-.33.71.71 0 010-.27v-.37-.34m-1 4l1 .66a2.31 2.31 0 01.44.1l.77.2.78.21a2.51 2.51 0 00.45.1l.93.14 1.45.17 1.51.18c.47.06.81.1 1 .11a1.15 1.15 0 00.39 0h1a1.38 1.38 0 00.4 0 7.32 7.32 0 00.85-.08l1.43-.18 1.51-.19 1.1-.15a10.37 10.37 0 001-.24c.43-.12.85-.24 1.28-.38l1.1-.38a2.91 2.91 0 00.49-.21 1 1 0 00.18-.28l.21-.42c.07-.16.12-.31.17-.44a1.81 1.81 0 000-.32.51.51 0 00-.14-.08 1.33 1.33 0 00-.24-.1l-.27-.07h-.15a.27.27 0 01-.11.06l-.14.08-.18.08-.15.06a2.38 2.38 0 01-.56.22c-.3.09-.63.18-1 .26l-1 .24a3.72 3.72 0 01-.6.11l-1.17.16-1.52.21-1.21.15c-.41 0-.68.08-.79.08h-3l-.61-.11-.94-.18-.92-.19-.59-.15a1 1 0 000-.14v-.17-.16a1 1 0 000-.14l.61-1.21c.09-.2.2-.47.34-.8s.27-.66.4-1l.34-.85a2.46 2.46 0 00.15-.41v-.22-.43-.48-.39-.41-.5-.42-.21a.75.75 0 00-.26-.35 1.36 1.36 0 00-.37-.28l-.51-.08-.42-.06a2.33 2.33 0 00-.33 0 1.9 1.9 0 00-.31 0l-.38.06-.47.08-.3.18-.54.34c-.19.13-.38.26-.56.4l-.44.32a1.38 1.38 0 00-.26.23l-.39.37-.37.37-.22.24c0 .05-.09.14-.15.26s-.13.24-.19.37-.13.25-.18.37a.63.63 0 00-.08.24c0 .12-.07.34-.16.66a4 4 0 00-.12 1 9.92 9.92 0 00.12 1.55c.09.5.14.86.16 1.06zm-13.22-14.66c.05-.22.11-.46.18-.71l.21-.76a3.24 3.24 0 01.18-.57c0-.08.11-.25.22-.49l.35-.74c.13-.26.26-.5.38-.73s.2-.39.26-.49h.15a.44.44 0 01.15 0h.3a.84.84 0 01.11.18c.06.1.11.22.18.35l.18.38a3.33 3.33 0 00.14.31l.15.42c.06.2.13.39.2.58a4.07 4.07 0 01.18.52l.1.32v1.24c0 .15-.06.4-.11.75s-.12.74-.19 1.13-.15.76-.21 1.1-.11.57-.12.67-.06.23-.11.4-.12.37-.18.57-.13.38-.2.55l-.12.33a2.65 2.65 0 01-.29.32l-.31.29-.28-.49c-.13-.23-.26-.47-.38-.73s-.25-.5-.36-.74a1.93 1.93 0 01-.19-.5 2.92 2.92 0 01-.18-.64 48.705 48.705 0 01-.39-1.85c-.05-.27-.07-.46-.07-.56s0-.19.07-.41m-7.81 14c0-.19.1-.39.17-.58l.17-.52a1.92 1.92 0 00.09-.26.63.63 0 01.08-.24c0-.12.11-.24.18-.37a3.9 3.9 0 01.19-.35 2 2 0 01.15-.25 4.47 4.47 0 01.45-.51l.75-.75.74-.73.51-.46.22-.12.35-.2.38-.18.26-.11.51-.11.88-.19c.32-.07.63-.14 1-.19l.71-.14H341.86v.5s-.06.49-.1.74-.07.5-.11.75-.07.4-.08.49a3.39 3.39 0 01-.18.33l-.35.54c-.13.19-.26.38-.4.56l-.31.41c-.1.09-.25.26-.47.5s-.46.49-.73.75l-.74.75a3.63 3.63 0 01-.51.45 2.57 2.57 0 01-.35.26l-.54.38-.55.35-.38.22a3.23 3.23 0 01-.42.18 5.71 5.71 0 00-.58.21l-.52.17a1.31 1.31 0 01-.32.07 1.1 1.1 0 01-.45-.2c-.22-.14-.33-.26-.35-.35s-.07-.21-.16-.54a2.93 2.93 0 01-.14-.78 1.83 1.83 0 01.07-.45m13 1.55l.3.17.38.2.35.18a.52.52 0 00.21.09h1.7l.52-.1.75-.18.73-.3a2.83 2.83 0 00.45-.15 7.59 7.59 0 002-1.4 2 2 0 00.66-1.1c0-.28-.17-.43-.52-.46a3.1 3.1 0 00-1.53.54 2.48 2.48 0 01-.34.24c-.19.12-.43.24-.69.37s-.53.25-.78.36a6.26 6.26 0 01-.64.24h-.15l-.27.09-.31.08h-.23a1.66 1.66 0 01-.51-.11 1.59 1.59 0 01-.37-.14 2.36 2.36 0 01-.44-.26 7.93 7.93 0 01-.74-.53 16.15 16.15 0 01-.82-1.74 4.32 4.32 0 00-.42-.93 4.72 4.72 0 01-.21-.6c-.1-.32-.21-.66-.31-1s-.21-.68-.3-1-.15-.48-.17-.52 0 0 0-.1v-.34a.29.29 0 010-.17c0-.07.05-.26.11-.56s.12-.63.19-1 .15-.69.21-1 .11-.49.12-.56a14.86 14.86 0 00.38-1.56 16 16 0 00.21-1.66c0-.55.08-1.07.08-1.57v-1.27a3.28 3.28 0 00-.09-.38c-.06-.2-.12-.43-.19-.7l-.22-.77c-.07-.25-.14-.45-.19-.6s-.06-.13-.12-.24l-.17-.36-.2-.37-.12-.23a2.88 2.88 0 00-.3-.33c-.17-.17-.28-.27-.33-.31a3.16 3.16 0 01-.31-.16l-.38-.21-.35-.16-.17-.07a.67.67 0 00-.26.07 3.89 3.89 0 00-.38.16 4.05 4.05 0 00-.35.21 1.58 1.58 0 00-.22.16 2.27 2.27 0 00-.22.36c-.11.2-.23.44-.36.7s-.26.53-.39.78a5.07 5.07 0 00-.27.61c0 .11-.1.26-.17.46s-.14.38-.2.57-.12.37-.17.53a2.56 2.56 0 00-.07.28 9.84 9.84 0 01-.17 1 6.72 6.72 0 00-.16 1.53 6.42 6.42 0 00.16 1.44c.1.49.21 1 .32 1.38l.33 1.16a5.52 5.52 0 01.18.78l-.47.11c-.23 0-.5.11-.78.19l-.78.22-.47.14-.24.11-.37.18-.37.19-.23.12-1.9 1.35-1.79 1.7a4.72 4.72 0 01-.2.46l-.4.78-.4.77c-.12.24-.19.39-.21.44a4.47 4.47 0 00-.14.7c0 .31-.06.62-.08.94s0 .61 0 .88v.51a3.18 3.18 0 00.09.67 7.19 7.19 0 00.24.79 4.21 4.21 0 00.29.67.91.91 0 00.26.35l.63.22a4.77 4.77 0 00.51.13 1.91 1.91 0 00.42.06 3 3 0 00.53-.06c.22 0 .44-.08.67-.13l.61-.16.31-.06.2-.09.36-.18.38-.19a1.44 1.44 0 00.27-.15l.48-.34.75-.56.74-.56.48-.38a2.84 2.84 0 01.28-.25c.13-.11.25-.23.38-.36l.35-.37.2-.23a8.48 8.48 0 00.51-.72l.75-1.11c.26-.4.51-.77.72-1.12l.47-.74c.06.13.14.34.25.63s.23.6.36.92.25.63.37.91a5.56 5.56 0 00.29.62 3.76 3.76 0 00.3.5c.14.22.3.44.45.67l.44.65a1.78 1.78 0 00.32.38zm-22-.16a.6.6 0 00.14.11 1.58 1.58 0 00.36.19c.2.09.39.18.57.28l.11.05a.43.43 0 00.17.06 1.28 1.28 0 00.77 0H327.13l.53-.1a5.66 5.66 0 00.74-.18c.26-.06.5-.14.73-.2a3.17 3.17 0 00.45-.15 7.84 7.84 0 002-1.4 2.06 2.06 0 00.65-1.11c0-.27-.16-.42-.52-.45a2.94 2.94 0 00-1.53.54l-.34.23a7 7 0 01-.69.37l-.78.36-.64.25h-.14l-.28.08-.3.08a.93.93 0 01-.24 0h-.47a.86.86 0 01-.33 0 1 1 0 00-.25-.08 3.78 3.78 0 01-.46-.17 3.3 3.3 0 01-.3-.27l-.32-.33c-.1-.12-.2-.22-.29-.31a.62.62 0 01-.16-.22c-.08-.09-.23-.32-.47-.67s-.5-.74-.77-1.16l-.77-1.15c-.24-.36-.39-.59-.44-.68l-.41-.47-.57-.58a6.14 6.14 0 00-.54-.51 3 3 0 00-.33-.28 1.78 1.78 0 00-.4-.07 3.86 3.86 0 00-.5 0 4.26 4.26 0 00-.54 0 2.11 2.11 0 00-.4.07c-.13.07-.34.22-.65.44s-.61.46-.93.72-.62.5-.91.75a6.16 6.16 0 00-.56.54 2.54 2.54 0 00-.1-.25c0-.11-.1-.23-.16-.37a4.13 4.13 0 00-.2-.37l-.15-.25a3.75 3.75 0 00-.26-.3l-.37-.39-.36-.34a1.42 1.42 0 00-.22-.18h-.96a.73.73 0 00-.28 0 3.14 3.14 0 00-.29.25 1.76 1.76 0 00-.31.36c0 .09-.2.31-.44.67l-.77 1.17-.77 1.17c-.24.36-.4.58-.47.67a1.76 1.76 0 01-.28.3 5.54 5.54 0 01-.42.42l-.45.41-.33.27-.25.17-.36.21a3.76 3.76 0 01-.37.16.76.76 0 01-.24.07l-.52.19c-.2.08-.39.14-.58.2l-.65.22-.2.54.58.72h.33a2.42 2.42 0 00.58 0 4.18 4.18 0 00.7-.16l.54-.17.2-.11.35-.19.37-.22.26-.16.34-.24c.14-.1.28-.2.41-.31l.38-.29.22-.18c.07-.06.23-.2.47-.44s.49-.5.75-.79.52-.54.76-.78.39-.38.46-.44.14 0 .31.1a1.05 1.05 0 00.3.12v5.92a2.19 2.19 0 00.37-.07c.18-.05.36-.1.55-.17a3.93 3.93 0 00.55-.21 1.53 1.53 0 00.37-.19s.06-.07.11-.22.12-.32.18-.51a5.76 5.76 0 00.18-.59c.06-.2.1-.36.14-.5a.81.81 0 000-.31v-.32l.11-.33c.05-.16.11-.34.18-.53s.12-.39.18-.57a3.09 3.09 0 01.13-.38 1.91 1.91 0 01.13-.31c.06-.12.13-.25.21-.38l.19-.34.11-.21a1.6 1.6 0 01.21-.25l.37-.36.37-.37a1.13 1.13 0 01.26-.23.74.74 0 01.23-.15l.37-.2.37-.16.27-.1c.09.09.25.25.49.47s.48.46.75.73l.71.74.47.51c.05.06.17.2.35.44s.38.5.58.77l.56.77a4 4 0 00.35.44 1.07 1.07 0 00.19.22l.3.3.33.34.28.27zm-28.67-19.56c0 .14 0 .31.06.48s0 .34 0 .48a1.86 1.86 0 00.06.31 2.21 2.21 0 00.28.34.78.78 0 00.33.26 4 4 0 00.53.11l1 .18 1.17.19c.4.07.71.1 1 .12a1.11 1.11 0 00.38 0h.36a2.56 2.56 0 000-.33.9.9 0 00-.09-.33 2.23 2.23 0 00-.27-.29 3.38 3.38 0 00-.34-.31l-.46-.32-.6-.41c-.19-.14-.36-.26-.52-.36a1.48 1.48 0 00-.26-.15l-.51-.09-.82-.11-.8-.09h-.51v.31m3.91 15.21a2.07 2.07 0 01.11.35c.06.19.11.4.17.61s.11.43.16.62.1.32.11.37a5.48 5.48 0 00.28.61c.12.26.25.52.38.78l.34.71a2.24 2.24 0 00.21.35.5.5 0 00.18.14l.37.19.44.21.28.12H304.22l.53-.09.74-.18.73-.21a2.23 2.23 0 00.45-.15 7.37 7.37 0 002-1.4 2 2 0 00.66-1.1c0-.28-.16-.43-.52-.46a3 3 0 00-1.53.54 2.15 2.15 0 01-.34.23 6.9 6.9 0 01-.69.38l-.78.35c-.26.11-.47.2-.63.25h-.16l-.27.08-.3.09a.85.85 0 01-.24 0 2 2 0 01-.51-.11 1.85 1.85 0 01-.37-.14s-.12-.06-.24-.19l-.24-.26-.15-.21a4.48 4.48 0 01-.32-.51 4.74 4.74 0 01-.28-.59v-.16-.33c0-.2-.07-.43-.11-.69a6.79 6.79 0 01-.11-.75 5.51 5.51 0 010-.6 7.13 7.13 0 01.16-1.15c0-.2.08-.38.11-.52s0-.23 0-.25a1.43 1.43 0 01.09-.35q.11-.26.21-.57l.2-.58.13-.35a3.23 3.23 0 010-.35v-.54c0-.19 0-.38.05-.55s0-.3 0-.37h-1.36c-.05.11-.16.3-.32.58l-.48.88-.45.9a2.27 2.27 0 00-.23.64l-.28 1.68zm-27.92 4.43a.79.79 0 01.38-.09 1.68 1.68 0 00.53-.16 2.62 2.62 0 00.6-.45 3.47 3.47 0 00.33-.32 8.2 8.2 0 00.63-.62c.3-.3.6-.63.93-1l.89-1 .58-.66.63-.55.3.55v5.64a2 2 0 00.36 0h.29a.66.66 0 00.18-.19 1.64 1.64 0 00.3-.11 3.49 3.49 0 00.39-.19l.34-.19.18-.11a5.54 5.54 0 00.36-.67c.18-.36.37-.75.58-1.16l.56-1.16c.17-.36.29-.58.34-.67l.22-.28.36-.38.39-.36.27-.22.13.23.19.38c.06.12.13.24.18.37s.09.2.11.26.05.2.11.44.11.49.18.77.12.53.17.77a2.5 2.5 0 00.14.44c0 .06.08.11.2.18l.35.2a2.26 2.26 0 00.39.18.87.87 0 00.27.07.73.73 0 00.23-.07c.1-.05.22-.1.35-.18l.39-.2a1.39 1.39 0 00.27-.18 1.48 1.48 0 00.23-.21l.38-.38c.12-.14.25-.27.37-.39l.23-.23.39-.28.56-.38.55-.35c.17-.1.29-.16.34-.2a.27.27 0 01.14 0h.33a.24.24 0 01.14 0c0 .09.11.25.23.48l.38.74c.12.27.25.52.37.74a4.1 4.1 0 00.26.46 1.61 1.61 0 00.29.34 2 2 0 00.32.29 2.45 2.45 0 00.35.14l.52.18.51.18.37.11a.39.39 0 00.14.05.12.12 0 01.09 0H295.38l.52-.1a5.8 5.8 0 00.75-.18l.72-.2a3.57 3.57 0 00.46-.16 7.37 7.37 0 002-1.4 2 2 0 00.66-1.1c0-.27-.17-.43-.52-.45a3 3 0 00-1.53.53 2.48 2.48 0 01-.34.24c-.2.12-.43.24-.69.37l-.78.36-.64.25h-.15l-.27.08-.31.08a.84.84 0 01-.23 0 1.66 1.66 0 01-.51-.11 3.26 3.26 0 01-.37-.13 1.15 1.15 0 01-.47-.39l-.13-.14a.67.67 0 01-.14-.16 1 1 0 00-.17-.14l-.19-.23-.14-.16v.06s-.06-.06-.06-.08l-.05-.06c0-.05-.11-.21-.22-.45s-.23-.51-.37-.78l-.38-.78-.23-.44a.91.91 0 00-.22-.18l-.36-.19a3.2 3.2 0 00-.39-.16 1.32 1.32 0 00-.27-.07l-.72.37-1.1.55-1.1.55c-.35.18-.6.29-.74.35h-.61l-.2-.5c-.1-.24-.22-.49-.35-.74s-.25-.5-.38-.73a3.1 3.1 0 00-.31-.48.52.52 0 00-.17-.11l-.35-.18-.38-.18-.31-.14h-.14a.53.53 0 00-.16 0h-.3l-.22.1-.36.16-.38.19-.28.16-.37.24-.55.37-.55.38a3.09 3.09 0 00-.35.24c0-.07-.05-.19-.11-.37a5.17 5.17 0 00-.19-.55l-.2-.55a3.49 3.49 0 01-.13-.37c0-.07-.08-.18-.13-.31s-.12-.28-.18-.4l-.18-.35c-.06-.1-.09-.15-.11-.15a.63.63 0 00-.25-.06h-.7a.8.8 0 00-.27.06 2.18 2.18 0 00-.22.18l-.35.34-.39.39c-.12.13-.22.23-.27.3a2.88 2.88 0 00-.24.33c-.11.19-.24.38-.37.59s-.25.41-.37.59a2.71 2.71 0 01-.23.33c-.11.13-.32.35-.61.65l-.93.94-.92.9q-.43.43-.6.57l-.58.82zm-33.67 20.27v.33c0 .12.06.29.12.53s.13.49.19.74.13.5.18.71.09.37.11.45l.11.27a3.6 3.6 0 00.2.39l.19.35a.63.63 0 00.14.22 3.43 3.43 0 00.34.39l.55.57.55.54.37.35.19.11.36.18.39.19.3.12.45.15.58.2c.2.06.36.12.51.18l.27.08h3.09l.28-.08.53-.18.57-.2.43-.15.54-.26.75-.37.72-.37.44-.23c.13-.08.32-.2.56-.37l.76-.56c.26-.19.5-.37.72-.55s.35-.29.41-.34a5.21 5.21 0 00.37-.44l.55-.73.55-.76c.17-.23.3-.41.37-.52l.58-1.09c.26-.48.51-1 .77-1.51s.49-1 .7-1.43.34-.72.4-.86.06-.3.12-.62.13-.68.2-1.08.12-.77.17-1.14.1-.64.11-.82 0-.17 0-.38v-.73-.82-.66-.59-.75-.65-.32c0-.02-.07-.46-.17-1s-.22-1.13-.35-1.79-.26-1.28-.4-1.91-.24-1.09-.31-1.4l-.19-.78c-.1-.36-.2-.76-.32-1.2s-.24-.9-.37-1.39-.26-1-.37-1.39-.23-.84-.34-1.19-.17-.62-.23-.79-.08-.18-.14-.32-.12-.26-.19-.4-.14-.23-.19-.34-.09-.15-.11-.15H253.55a2.24 2.24 0 00-.43 0l-.3.25a.93.93 0 00-.3.35q-.06.09-.24.45c-.12.23-.25.5-.38.78s-.27.55-.38.79a4.12 4.12 0 01-.24.43 1.6 1.6 0 01-.21.25l-.34.36-.39.37a1.72 1.72 0 01-.27.23 1 1 0 01-.28.18l-.38.21-.36.18a.63.63 0 01-.22.07.72.72 0 01-.26-.07l-.37-.18-.36-.21a.6.6 0 01-.22-.18v-.75V289.77v-.5-.44-.22a2.31 2.31 0 01.1-.44c.06-.23.13-.5.19-.77l.19-.78c.07-.25.11-.4.13-.46s0-.13 0-.27v-.47-.47-.3h-1.08a4.86 4.86 0 00-.6.08c-.19 0-.27.09-.27.16a3.5 3.5 0 01-.17 1c-.1.24-.19.47-.28.67a4 4 0 00-.22.64 1.87 1.87 0 000 .82l.06 4.21a.61.61 0 00.14.27 3.66 3.66 0 00.32.39l.42.36a.9.9 0 00.36.19h3.05a.87.87 0 00.23-.08l.38-.18.35-.19.25-.16a5.6 5.6 0 00.47-.44l.75-.78.74-.77c.24-.24.4-.38.47-.44a.41.41 0 01.15 0H254.21l.11.26c0 .16.11.33.17.53l.18.59a4.89 4.89 0 00.14.47c0 .16.1.43.2.81s.21.8.33 1.28.25 1 .39 1.51.27 1 .39 1.53.22.93.31 1.32.17.68.22.86.09.41.15.73.13.65.19 1 .13.63.18.88a3.21 3.21 0 01.09.47V305.69c0 .17 0 .43-.1.79s-.1.73-.17 1.13-.12.75-.19 1.09a5.06 5.06 0 01-.15.68c0 .09-.1.28-.2.56s-.22.59-.35.91-.26.63-.38.94l-.28.64a3.61 3.61 0 01-.23.39l-.38.56c-.12.2-.24.38-.36.55s-.21.29-.26.34l-.8.85-1.13 1.13-1.07 1.08a5.5 5.5 0 01-.66.6 3.57 3.57 0 01-.5.31l-.74.38c-.26.13-.5.25-.73.35s-.4.15-.48.18h-4.9a1 1 0 01-.22-.07l-.36-.17-.37-.2-.26-.17a1.83 1.83 0 01-.25-.22l-.37-.36-.37-.37-.25-.26a5.27 5.27 0 01-.33-.46q-.18-.29-.39-.57c-.12-.2-.24-.37-.34-.52a1.06 1.06 0 01-.15-.29v-.24-.47-1.48-.64-.56-.27a2.08 2.08 0 01.07-.29c.05-.16.1-.33.17-.53l.2-.57c.07-.19.13-.34.16-.45s.07-.18.13-.31.13-.25.2-.38a2.28 2.28 0 01.17-.35.84.84 0 01.11-.18c.18-.2.49-.52.91-.95l1.3-1.33 1.27-1.27c.4-.38.67-.63.81-.74s.28-.2.57-.38.58-.37.9-.57l.94-.55a6.23 6.23 0 01.65-.34c.13-.06.46-.17 1-.34l1.75-.57 1.74-.56c.55-.18.88-.29 1-.35a1.36 1.36 0 00.33-.29 2.35 2.35 0 00.28-.34 1 1 0 00-.27-.33 1.81 1.81 0 00-.34-.28h-1.16a.85.85 0 00-.24.1l-.38.21-.38.2a.62.62 0 01-.24.1l-.33.12-.58.2-.58.19-.35.12-.8.39-1.14.56-1.09.54a6.85 6.85 0 00-.63.33 5.46 5.46 0 00-.48.33c-.23.16-.48.35-.73.55l-.75.58-.49.38-.76.72c-.32.31-.64.62-1 .95l-.87.88-.47.5-.34.62-.55 1.06c-.19.39-.38.77-.56 1.15s-.31.65-.39.83-.05.19-.11.39-.11.44-.18.7-.13.53-.19.78-.1.45-.12.58zm-.7-27.89c0-.48.09-1 .16-1.6s.13-1.16.21-1.73.17-1 .24-1.29c0-.08 0-.23.11-.46s.11-.48.18-.74.12-.52.17-.76.11-.4.14-.5a5.24 5.24 0 01.19-.5c.12-.27.23-.56.36-.88l.39-.95.3-.72a5 5 0 00.21-.46c.1-.22.2-.46.32-.71s.2-.47.28-.66a1.36 1.36 0 01.15-.31s.06 0 .1.06l.15.24a2.2 2.2 0 00.17.25c0 .07.09.11.11.11 0 .18 0 .52-.05 1s0 1-.08 1.56 0 1.07-.08 1.56-.05.82-.07 1-.07.66-.15 1.21-.19 1.14-.3 1.76-.25 1.23-.39 1.81-.26 1-.37 1.36l-.14.42c0 .2-.11.39-.17.58s-.13.37-.2.52-.1.25-.12.29a3.31 3.31 0 00-.21.37l-.32.62a6.23 6.23 0 01-.33.59 1.38 1.38 0 01-.24.32 1.15 1.15 0 01-.19-.45c-.08-.25-.16-.51-.24-.79s-.15-.53-.2-.79a2.62 2.62 0 01-.09-.47 3.91 3.91 0 010-.88m-4.29 7.48l.55.19 1-.44.28-.17.46-.27.49-.26.28-.15a1.71 1.71 0 00.27-.19.83.83 0 01.29-.2H236.76a3.19 3.19 0 01.3.29l.49.5c.19.17.35.34.5.5a1.23 1.23 0 00.3.28 3.16 3.16 0 01.31.16c.12.08.25.14.38.21l.35.18a.7.7 0 00.2.08h1.82l.52-.1a7.12 7.12 0 00.74-.17l.73-.21.45-.15a7.43 7.43 0 002-1.4 2 2 0 00.67-1.11c0-.27-.17-.42-.52-.45a2.91 2.91 0 00-1.53.54 4.13 4.13 0 01-.35.23c-.19.12-.42.24-.68.37l-.79.36c-.25.11-.47.19-.63.25h-.15l-.28.08-.3.09h-.23a2 2 0 01-.51-.11l-.38-.14-.23-.18c-.12-.1-.24-.22-.37-.34l-.37-.39a3.75 3.75 0 01-.26-.3v-.14-.17-.18-.14a4.86 4.86 0 01.22-.45c.13-.23.26-.49.4-.76s.26-.54.38-.78l.23-.46c.08-.17.18-.44.31-.8s.25-.75.38-1.14.25-.76.35-1.09.16-.54.18-.63.08-.47.15-.92.13-.94.19-1.45.12-1 .18-1.48.09-.83.11-1v-.41-.81-.92-.75-.67-.84-.73-.37a3.34 3.34 0 00-.08-.5c-.06-.23-.12-.48-.18-.74s-.14-.5-.21-.73-.13-.39-.16-.48h-.61a2.53 2.53 0 00-.34 0h-.27l-.25.21a3.88 3.88 0 00-.38.34l-.37.39a1.31 1.31 0 00-.23.3s-.08.17-.18.41-.22.52-.35.85-.25.66-.38 1-.23.59-.3.79-.08.22-.14.4-.11.36-.18.55-.12.38-.18.55-.09.29-.11.35c-.09.31-.2.73-.34 1.26s-.27 1-.4 1.57-.24 1-.34 1.36a5.18 5.18 0 00-.16.67c0 .26-.11.72-.22 1.36a12.19 12.19 0 00-.16 2 16.15 16.15 0 00.16 2.39c.11.74.19 1.26.22 1.57a1 1 0 01-.19.38 4.16 4.16 0 01-.47.61 1.31 1.31 0 01-.44.36l-.63.33-.52.29-.44.26a1.57 1.57 0 00-.19.15l-.14.12-.11.11zm-5-3.87c.06.12.13.25.19.38a3.14 3.14 0 01.18.37 1.49 1.49 0 01.11.26q.06.17.24.78c.11.41.24.86.38 1.35s.26.93.39 1.35.19.67.23.78.13.43.25.8.22.74.35 1.14.25.76.37 1.09.2.54.24.66a2.28 2.28 0 00.12.3l.2.39.17.34.11.18h.47a.3.3 0 00.14 0 .37.37 0 00.19-.15 2.29 2.29 0 00.14-.27 2 2 0 01.11-.26c0-.08.06-.13.08-.14v-.12a.17.17 0 010-.08.19.19 0 000-.08v-.18a1.18 1.18 0 010-.16c0-.12-.13-.42-.29-.9s-.32-1-.49-1.51-.34-1-.5-1.5-.25-.78-.29-.93-.21-.66-.35-1.18l-.45-1.53c-.14-.51-.27-1-.38-1.39a4.82 4.82 0 01-.17-.75 3.71 3.71 0 00-.08-.5c0-.29-.11-.63-.17-1s-.13-.77-.18-1.13a5.81 5.81 0 01-.09-.86v-.6-.94-.92-.59a7.08 7.08 0 01.75-.15l1.27-.21 1.27-.19.78-.11.92-.08c.41 0 .88-.08 1.4-.11l1.65-.13 1.65-.12 1.41-.11c.41 0 .71-.06.92-.06l-1.24-.6h-10.7v-9.45h-.3a3.65 3.65 0 00-.46.07l-.45.08-.31.07a.88.88 0 00-.37.26c-.15.15-.23.27-.23.34a4.43 4.43 0 000 .68V275.32c0 .19-.06.51-.11 1s-.12 1-.18 1.47l-.19 1.47c-.06.47-.11.79-.12 1-.25 0-.65.08-1.23.14l-1.84.18-1.85.17c-.58.06-1 .1-1.22.11h-1.82l-.3.12-.39.17-.36.19-.18.13v.23a2.6 2.6 0 000 .35 3.29 3.29 0 000 .38v.28a1.2 1.2 0 00.29.37c.15.15.26.23.31.23a.81.81 0 00.24-.09l.38-.21.39-.21a.63.63 0 01.23-.09l.65-.16.93-.19.91-.18a4.4 4.4 0 01.56-.08 5.29 5.29 0 01.81 0l1.21.07 1.22.07h.8v.95s.06.92.1 1.41.06 1 .09 1.41a8 8 0 010 .93c0 .09-.06.23-.1.41s-.11.37-.18.57-.14.37-.21.53a1.32 1.32 0 01-.15.33 4.67 4.67 0 01-.44.53 23.286 23.286 0 01-1.49 1.48 3.43 3.43 0 01-.52.44l-.26.13-.52.22-.35.26a3 3 0 01-.45.18.94.94 0 00-.56.32.75.75 0 00-.17.45.54.54 0 00.17.4.53.53 0 00.48.13 2.11 2.11 0 00.37 0l.47-.08.4-.06h.19a4.92 4.92 0 00.46-.2l.67-.34.69-.39a5.16 5.16 0 00.47-.3 6.46 6.46 0 00.52-.44c.24-.22.48-.47.74-.73l.73-.76a3.55 3.55 0 00.45-.52 2.41 2.41 0 00.13.23m-10.94 3.87l.14.11a2.31 2.31 0 00.36.19c.2.09.4.18.58.28l.1.05a.43.43 0 00.17.06 1.28 1.28 0 00.77 0h.94l.52-.1a5.66 5.66 0 00.74-.18c.26-.06.5-.14.73-.2a4.1 4.1 0 00.46-.15 7.94 7.94 0 002-1.4 2 2 0 00.66-1.11c0-.27-.17-.42-.53-.45a2.91 2.91 0 00-1.52.54l-.34.23c-.2.12-.43.24-.69.37l-.79.36-.63.25h-.15a1.58 1.58 0 01-.28.08l-.3.08a1 1 0 01-.23 0h-.53a.86.86 0 01-.33 0 1.37 1.37 0 00-.26-.08 4.51 4.51 0 01-.46-.17 3.3 3.3 0 01-.3-.27l-.31-.33c-.1-.12-.2-.22-.29-.31a.68.68 0 01-.17-.22l-.47-.67-.77-1.16-.76-1.15c-.25-.36-.39-.59-.45-.68l-.41-.47-.56-.58q-.3-.3-.54-.51l-.33-.28a2.11 2.11 0 00-.4-.07 4.12 4.12 0 00-.51 0 4.25 4.25 0 00-.53 0 1.94 1.94 0 00-.4.07 6.78 6.78 0 00-.65.44c-.3.22-.62.46-.94.72s-.62.5-.9.75a5.42 5.42 0 00-.57.54l-.09-.25c0-.11-.1-.23-.17-.37s-.13-.26-.19-.37-.12-.19-.15-.25l-.27-.3c-.11-.13-.24-.26-.36-.39s-.25-.24-.37-.34a1.55 1.55 0 00-.21-.18.61.61 0 00-.25 0h-.72a.71.71 0 00-.27 0 2.15 2.15 0 00-.29.25 1.58 1.58 0 00-.32.36c-.05.09-.2.31-.43.67s-.5.75-.77 1.17l-.78 1.17c-.24.36-.39.58-.46.67a2.31 2.31 0 01-.28.3c-.13.14-.27.27-.43.42l-.45.41a2.46 2.46 0 01-.33.27l-.25.17-.36.21a3 3 0 01-.37.16.73.73 0 01-.23.07l-.52.19-.58.2-.66.22-.19.54.57.72h.33a2.42 2.42 0 00.58 0 4.18 4.18 0 00.7-.16l.54-.17.21-.11.34-.19.37-.22.27-.16.34-.24.41-.31.37-.29.22-.18c.07-.06.23-.2.47-.44l.76-.79.75-.78c.24-.24.4-.38.47-.44s.14 0 .3.1a1.18 1.18 0 00.31.12v5.92a2.38 2.38 0 00.37-.07c.17-.05.36-.1.55-.17a4.33 4.33 0 00.54-.21 1.64 1.64 0 00.38-.19s0-.07.11-.22l.18-.51.18-.59c0-.2.1-.36.13-.5a.72.72 0 000-.31v-.32c0-.04.06-.16.11-.33l.18-.53q.11-.3.18-.57a2.72 2.72 0 01.14-.38 3 3 0 01.12-.31l.21-.38.19-.34a2.34 2.34 0 00.11-.21 1.83 1.83 0 01.22-.25l.36-.36.37-.37a1.8 1.8 0 01.26-.23 1.13 1.13 0 01.23-.15l.38-.2.37-.16.26-.1.49.47c.25.22.49.46.75.73l.71.74c.22.23.38.4.47.51a4.7 4.7 0 01.36.44l.57.77.57.77a4.42 4.42 0 00.34.44 1.19 1.19 0 00.2.22l.3.3.33.34.27.27zm-33.97-4.76v-.26a3.74 3.74 0 00.1-.58 1.94 1.94 0 01.23-.74 2.8 2.8 0 01.53-.75l.35-.38a1.05 1.05 0 01.35-.19 3.93 3.93 0 01.55-.21c.19-.07.37-.12.55-.17a1 1 0 01.4 0V287.01a3.3 3.3 0 010 .4l-.18.39-.35.72c-.13.27-.25.52-.38.77s-.23.44-.31.57a2.34 2.34 0 01-.3.31 1.89 1.89 0 01-.33.29.23.23 0 01-.11 0h-.5a1.54 1.54 0 01-.34-.29 1.71 1.71 0 01-.26-.31.71.71 0 010-.27v-.37-.34m-1 4l1 .66a2.31 2.31 0 01.44.1l.77.2.79.21a2.34 2.34 0 00.45.1l.92.14 1.46.17 1.5.18c.47.06.81.1 1 .11a1 1 0 00.38 0h1a1.38 1.38 0 00.4 0 7.14 7.14 0 00.85-.08l1.43-.18 1.52-.19 1.1-.15c.24 0 .57-.12 1-.24s.86-.24 1.28-.38l1.1-.38a4 4 0 00.5-.21 1.23 1.23 0 00.18-.28l.2-.42a2.79 2.79 0 00.17-.44 1.81 1.81 0 000-.32.39.39 0 00-.14-.08 1.33 1.33 0 00-.24-.1l-.26-.07h-.16a.21.21 0 01-.1.06.47.47 0 00-.14.08l-.18.08-.15.06a2.53 2.53 0 01-.57.22c-.3.09-.62.18-1 .26l-1 .24a3.87 3.87 0 01-.59.11l-1.17.16-1.53.21-1.4.18c-.42 0-.69.08-.8.08h-2.86l-.61-.11-.93-.18-.92-.19-.59-.15v-.14a1.23 1.23 0 010-.17 1.1 1.1 0 010-.16v-.14l.6-1.21c.09-.2.21-.47.34-.8s.27-.66.4-1 .25-.61.35-.85a2.46 2.46 0 00.15-.41v-.22-.43-.48-.39-.41-.5-.42-.21a.83.83 0 00-.26-.35 1.37 1.37 0 00-.38-.28l-.5-.08-.43-.06a2.33 2.33 0 00-.33 0 1.85 1.85 0 00-.3 0l-.39.06-.47.08-.3.18-.54.34c-.19.13-.38.26-.56.4l-.44.32a1.8 1.8 0 00-.26.23l-.38.37c-.14.13-.27.25-.38.37l-.22.24-.15.26c-.06.12-.13.24-.19.37s-.13.25-.18.37a.63.63 0 00-.08.24q0 .18-.15.66a4 4 0 00-.13 1 9.92 9.92 0 00.13 1.55c.08.5.13.86.15 1.06zm-13.22-14.66c.05-.22.11-.46.18-.71s.15-.51.21-.76a3.24 3.24 0 01.18-.57l.22-.49c.11-.24.23-.49.36-.74s.25-.5.37-.73.2-.39.26-.49h.15a.5.5 0 01.15 0 .69.69 0 01.18 0h.12a.84.84 0 01.11.18 3.76 3.76 0 01.18.35c.06.13.13.26.18.38l.14.31c0 .09.09.23.15.42a5.71 5.71 0 00.21.58c.07.19.13.37.18.52s.07.26.09.32v1.24c0 .15 0 .4-.11.75s-.12.74-.19 1.13-.14.76-.21 1.1-.1.57-.12.67-.06.23-.11.4-.12.37-.18.57-.13.38-.19.55l-.13.33a2.29 2.29 0 01-.28.32l-.32.29-.28-.49c-.12-.23-.25-.47-.38-.73s-.25-.5-.36-.74a2.4 2.4 0 01-.19-.5 2.92 2.92 0 01-.18-.64c-.06-.3-.13-.62-.21-.95s-.13-.63-.18-.9a4.83 4.83 0 01-.06-.56 3.45 3.45 0 01.06-.41m-7.81 14c.05-.19.1-.39.17-.58s.12-.37.18-.52.08-.25.08-.26a.9.9 0 01.08-.24l.18-.37.19-.35.15-.25a4.86 4.86 0 01.46-.51l.74-.75.74-.73.51-.46.22-.12.36-.2.37-.18.26-.11.51-.11.88-.19c.32-.07.64-.14.95-.19l.72-.14H169.66a4.44 4.44 0 010 .5c0 .24-.06.49-.1.74s-.07.5-.11.75-.06.4-.08.49a3.39 3.39 0 01-.18.33l-.34.54c-.13.19-.26.38-.4.56s-.24.32-.32.41l-.47.5c-.22.23-.46.49-.73.75l-.74.75a3.63 3.63 0 01-.51.45 2.3 2.3 0 01-.34.26l-.55.38-.55.35-.37.22-.43.18-.58.21a5.19 5.19 0 01-.52.17 1.23 1.23 0 01-.32.07 1.1 1.1 0 01-.45-.2c-.21-.14-.33-.26-.34-.35a3.83 3.83 0 01-.17-.54 2.93 2.93 0 01-.14-.78 2.49 2.49 0 01.07-.45m13 1.55a2.59 2.59 0 01.3.17l.39.2.35.18a.45.45 0 00.2.09h1.82l.52-.1.74-.18.73-.21a2.23 2.23 0 00.45-.15 7.59 7.59 0 002-1.4 2 2 0 00.67-1.1c0-.28-.17-.43-.53-.46a3.08 3.08 0 00-1.52.54 2.22 2.22 0 01-.35.24 7 7 0 01-.69.37q-.39.2-.78.36t-.63.24h-.15l-.28.09-.3.08h-.24a1.56 1.56 0 01-.5-.11 1.8 1.8 0 01-.38-.14 2.36 2.36 0 01-.44-.26c-.24-.15-.48-.33-.74-.53a14.22 14.22 0 01-.81-1.74 3.73 3.73 0 00-.43-.93c0-.08-.1-.27-.2-.6l-.32-1c-.11-.35-.21-.68-.3-1s-.15-.48-.17-.52 0 0 0-.1v-.34a.29.29 0 010-.17c0-.07.06-.26.11-.56s.12-.63.2-1 .14-.69.2-1 .11-.49.13-.56a14.93 14.93 0 00.37-1.56c.1-.56.17-1.11.22-1.66s.07-1.07.08-1.57 0-.92 0-1.27a1.94 1.94 0 00-.09-.38c-.05-.2-.12-.43-.19-.7s-.15-.52-.22-.77-.14-.45-.19-.6l-.11-.24-.18-.36-.19-.37-.13-.23a2.88 2.88 0 00-.3-.33 3.24 3.24 0 00-.33-.31l-.3-.16-.39-.21-.34-.16a.62.62 0 00-.18-.07.72.72 0 00-.26.07 3 3 0 00-.37.16 3.1 3.1 0 00-.36.21 2.66 2.66 0 00-.22.16 2.27 2.27 0 00-.22.36c-.11.2-.23.44-.36.7l-.38.78c-.13.26-.22.46-.28.61s-.09.26-.16.46-.15.38-.21.57-.12.37-.17.53a1.75 1.75 0 00-.06.28c0 .2-.08.54-.18 1a7.35 7.35 0 00-.15 1.53 7 7 0 00.15 1.44q.15.74.33 1.38l.33 1.16a5.52 5.52 0 01.18.78l-.47.11c-.24 0-.5.11-.79.19l-.78.22-.47.14-.23.11a3.14 3.14 0 00-.37.18l-.37.19-.24.12-1.9 1.35-1.78 1.7c0 .06-.09.21-.21.46s-.25.51-.4.78-.28.53-.4.77a3.21 3.21 0 00-.2.44 3.55 3.55 0 00-.14.7c0 .31-.07.62-.08.94s0 .61 0 .88v.51a2.71 2.71 0 00.1.67 7.15 7.15 0 00.23.79 5.37 5.37 0 00.29.67 1 1 0 00.26.35l.64.22a4.07 4.07 0 00.5.13 2.07 2.07 0 00.43.06 3.05 3.05 0 00.52-.06c.22 0 .45-.08.68-.13l.6-.16.32-.06.19-.09.36-.18.38-.19.28-.15.48-.34.74-.56c.27-.19.51-.38.75-.56l.48-.38a2.47 2.47 0 01.27-.25l.39-.36c.13-.13.24-.25.34-.37a1.85 1.85 0 01.21-.23 8.48 8.48 0 00.51-.72c.22-.35.47-.72.74-1.11s.51-.77.73-1.12l.46-.74c.06.13.14.34.25.63s.23.6.36.92.25.63.37.91.22.49.29.62a3.76 3.76 0 00.3.5l.46.67.44.65a2.22 2.22 0 00.31.38zm-22-.16a.92.92 0 00.14.11 2.31 2.31 0 00.36.19l.58.28.11.05a.35.35 0 00.16.06 1.28 1.28 0 00.77 0h.94l.52-.1a5.3 5.3 0 00.74-.18c.26-.06.5-.14.73-.2a4.1 4.1 0 00.46-.15 7.76 7.76 0 002-1.4 2 2 0 00.66-1.11c0-.27-.17-.42-.52-.45a2.91 2.91 0 00-1.53.54 4.13 4.13 0 01-.35.23c-.19.12-.42.24-.68.37l-.79.36c-.25.11-.47.19-.63.25h-.15l-.28.08-.3.08a1 1 0 01-.23 0h-.47a.86.86 0 01-.33 0 1.16 1.16 0 00-.26-.08 4.51 4.51 0 01-.46-.17 3.3 3.3 0 01-.3-.27l-.32-.33-.28-.31a.56.56 0 01-.17-.22l-.47-.67c-.23-.36-.49-.74-.77-1.16l-.77-1.15c-.24-.36-.38-.59-.44-.68l-.41-.47-.56-.58c-.2-.2-.37-.37-.54-.51l-.33-.28a2.11 2.11 0 00-.4-.07 4.12 4.12 0 00-.51 0 4 4 0 00-.53 0 1.78 1.78 0 00-.4.07 6.78 6.78 0 00-.65.44q-.45.33-.93.72c-.33.25-.63.5-.92.75s-.46.43-.56.54a2 2 0 00-.09-.25c-.05-.11-.1-.23-.17-.37s-.13-.26-.19-.37-.12-.19-.15-.25l-.26-.3-.38-.39c-.12-.13-.24-.24-.35-.34l-.22-.18a.66.66 0 00-.25 0h-.71a.73.73 0 00-.28 0 1.64 1.64 0 00-.29.25 1.58 1.58 0 00-.32.36c-.05.09-.2.31-.44.67l-.77 1.17-.77 1.17c-.23.36-.39.58-.46.67a2.31 2.31 0 01-.28.3c-.13.14-.27.27-.43.42l-.45.41-.33.27-.25.17a3.82 3.82 0 01-.36.21 3 3 0 01-.37.16.73.73 0 01-.23.07l-.52.19c-.2.08-.4.14-.58.2l-.66.22-.19.54.58.72h.32a2.42 2.42 0 00.58 0 4 4 0 00.7-.16l.54-.17.21-.11.34-.19.37-.22.26-.16.35-.24.41-.31.37-.29.22-.18a5.78 5.78 0 00.47-.44c.24-.24.49-.5.75-.79l.76-.78c.24-.24.4-.38.47-.44s.14 0 .3.1a1.35 1.35 0 00.3.12v5.92a2 2 0 00.37-.07c.18-.05.36-.1.55-.17a4.63 4.63 0 00.56-.21 1.75 1.75 0 00.37-.19s.05-.07.11-.22l.18-.51.18-.59c.05-.2.1-.36.13-.5a1 1 0 000-.31v-.32c0-.04.06-.16.11-.33s.12-.34.18-.53.12-.39.18-.57a2.72 2.72 0 01.14-.38 3 3 0 01.12-.31c.07-.12.13-.25.21-.38l.19-.34a2.34 2.34 0 00.11-.21 1.83 1.83 0 01.22-.25l.36-.36.37-.37a1.8 1.8 0 01.26-.23 1.13 1.13 0 01.23-.15l.38-.2.37-.16.26-.1.49.47c.24.22.49.46.75.73l.71.74c.22.23.38.4.47.51l.36.44.57.77.57.77a4.42 4.42 0 00.34.44 1.19 1.19 0 00.2.22l.3.3.33.34.27.27zm-33.96-4.8v-.26a3.74 3.74 0 00.1-.58 1.78 1.78 0 01.23-.74 3 3 0 01.52-.75 3 3 0 00.36-.38 1.05 1.05 0 01.35-.19 3.93 3.93 0 01.55-.21c.19-.07.37-.12.55-.17a1 1 0 01.39 0 2.58 2.58 0 01.05.46v.99a1.43 1.43 0 01-.05.4 2 2 0 01-.18.39l-.34.72c-.13.27-.25.52-.38.77s-.23.44-.31.57a2.34 2.34 0 01-.3.31 1.89 1.89 0 01-.33.29.2.2 0 01-.11 0h-.49a1.33 1.33 0 01-.35-.29 1.71 1.71 0 01-.26-.31.71.71 0 010-.27v-.37-.34m-1 4l1 .66a2.31 2.31 0 01.44.1l.77.2.79.21a2.19 2.19 0 00.45.1l.92.14 1.46.17 1.5.18c.48.06.82.1 1 .11a1.07 1.07 0 00.38 0h1a1.38 1.38 0 00.4 0 7.61 7.61 0 00.86-.08l1.43-.18 1.51-.19 1.1-.15c.24 0 .57-.12 1-.24s.86-.24 1.28-.38l1.1-.38a4 4 0 00.5-.21 1.72 1.72 0 00.18-.28l.2-.42a2.79 2.79 0 00.17-.44 1.81 1.81 0 00.05-.32.42.42 0 00-.13-.08l-.25-.1-.26-.07h-.16s-.05 0-.11.06a.41.41 0 00-.13.08l-.18.08-.15.06a2.76 2.76 0 01-.57.22c-.3.09-.63.18-1 .26l-1 .24a3.67 3.67 0 01-.59.11l-1.17.16-1.53.21-1.4.18c-.42 0-.69.08-.8.08h-3.05l-.6-.11-.94-.18-.92-.19-.6-.15a1 1 0 000-.14 1.23 1.23 0 010-.17 1.1 1.1 0 010-.16 1 1 0 000-.14l.61-1.21c.09-.2.21-.47.34-.8s.28-.66.4-1 .25-.61.35-.85a2.46 2.46 0 00.15-.41v-.22-.43-.48-.39-.41-.5-.42-.21a.83.83 0 00-.26-.35 1.53 1.53 0 00-.37-.28l-.51-.08-.43-.06a2.33 2.33 0 00-.33 0 1.85 1.85 0 00-.3 0l-.39.06-.47.08-.3.18-.53.34c-.2.13-.39.26-.57.4l-.44.32a1.38 1.38 0 00-.26.23l-.38.37c-.14.13-.27.25-.38.37l-.22.24-.15.26c-.06.12-.13.24-.19.37l-.18.37a.9.9 0 00-.08.24q0 .18-.15.66a3.54 3.54 0 00-.13 1 8.84 8.84 0 00.13 1.55c.08.5.13.86.15 1.06zm-11-5.81h.26a1.34 1.34 0 01.23.09l.37.18.37.19c.12.07.21.11.26.15a2.65 2.65 0 01.32.29 2 2 0 01.29.32 2.42 2.42 0 01.15.27l.19.39.18.35a.87.87 0 01.08.23v2.42a.88.88 0 01-.26.37 1.18 1.18 0 01-.34.26c-.19 0-.51 0-1 .08l-1.47.18-1.47.19c-.47.07-.8.11-1 .16l-.37.09-.55.16-.55.2a2.24 2.24 0 00-.37.15v-.25-.35-.93-.4-.52a.5.5 0 01.08-.18c.05-.1.11-.22.18-.34a3.72 3.72 0 01.21-.39l.16-.3c0-.07.12-.21.24-.38s.24-.38.37-.57l.36-.55a1.94 1.94 0 01.24-.34 2.32 2.32 0 01.3-.32c.17-.16.27-.25.3-.29l.27-.15.37-.19.37-.18a1.34 1.34 0 01.23-.09h.96m1 7.57a1.45 1.45 0 01-.11.42 3.15 3.15 0 01-.26.28 3.75 3.75 0 01-.34.32l-.27.15a3.2 3.2 0 01-.37.19l-.36.18a.53.53 0 01-.22.08l-.38.06-.6.05-.61.06h-.39v-.41a.85.85 0 01.1-.39s.13-.16.28-.32a1.3 1.3 0 01.32-.28l.35-.19.39-.2.35-.18a.68.68 0 01.22-.09h.39l.6-.06h1.05a2.82 2.82 0 010 .38m-9.09 6.88c.1-.41.21-.83.34-1.29s.26-.89.39-1.3a4.44 4.44 0 01.33-.82l.6.61c.1.93.17 1.72.24 2.38s.13 1.31.2 2 .13 1.27.17 1.72v.61c0 .07-.06.19-.11.37s-.12.36-.18.55-.13.38-.2.55-.1.29-.12.37a1.36 1.36 0 01-.33-.29 3 3 0 01-.27-.31 2.71 2.71 0 01-.11-.29c-.06-.16-.12-.33-.18-.53s-.13-.38-.2-.58l-.15-.45c-.05-.16-.11-.38-.18-.64s-.12-.54-.19-.8-.12-.5-.16-.69a2.39 2.39 0 01-.07-.32c0-.16.08-.44.18-.85m-2.63-8.91c.07-.06.23-.2.47-.44l.76-.79.75-.78a5.6 5.6 0 01.47-.44.24.24 0 01.13 0H98.46a3.84 3.84 0 01.24.82c.08.41.15.84.22 1.3s.11.88.15 1.29a4.49 4.49 0 010 .85 4.79 4.79 0 01-.31.8c-.18.42-.38.87-.6 1.36s-.43.94-.62 1.35a4 4 0 00-.31.79 3.87 3.87 0 00-.13.42c-.06.23-.14.48-.22.74s-.16.52-.22.76a3.69 3.69 0 00-.1.44v4.35a1.18 1.18 0 00.07.31c0 .16.1.33.16.53l.21.58c.07.19.13.33.17.42a4.91 4.91 0 00.26.59c.11.25.24.51.38.77l.36.7c.1.21.17.33.2.39a5 5 0 00.39.45c.18.2.37.39.56.58s.38.37.56.52a3.1 3.1 0 00.34.29 1.6 1.6 0 00.4.06h1.04a1.71 1.71 0 00.4-.06.67.67 0 00.17-.19 3.07 3.07 0 00.2-.36c.06-.13.12-.26.17-.39a1.05 1.05 0 00.07-.3c0-.09 0-.31-.1-.67s-.13-.74-.21-1.16-.14-.79-.2-1.15a4.72 4.72 0 01-.1-.67v-1.73c0-.82 0-1.68.07-2.61s.05-1.79.08-2.61 0-1.39 0-1.72a2.77 2.77 0 01.51.07 1.45 1.45 0 00.51 0c.11 0 .29-.05.52-.11l.76-.19.73-.2a2.83 2.83 0 00.44-.13l.48-.22.74-.36.75-.37.48-.27.44-.32.77-.6.77-.59a1.19 1.19 0 01.93-.41l.88-.14c.33 0 .66-.11 1-.18a3.81 3.81 0 00.73-.2 15.39 15.39 0 002.14-1.11q.52-.37.39-.51c-.09-.1-.33-.13-.73-.1s-.78.07-1.17.12a3 3 0 00-.74.24 1 1 0 01-.5.15 1.16 1.16 0 00-.4 0h-1.44q0-.26-.09-.87c-.05-.41-.11-.84-.17-1.29s-.13-.88-.19-1.28l-.15-.85a.61.61 0 00-.09-.22 4 4 0 00-.18-.36 3.2 3.2 0 00-.19-.37 2.67 2.67 0 00-.15-.27c0-.05-.14-.16-.3-.32s-.28-.27-.33-.31l-.28-.15-.38-.19-.36-.18-.21-.12h-3.06a1.82 1.82 0 00-.38.08l-.57.18-.55.19-.34.15-.5.34c-.23.18-.48.37-.75.56s-.51.38-.74.56a5.56 5.56 0 00-.46.39 2.7 2.7 0 00-.07-.5c0-.24-.1-.48-.16-.74s-.13-.5-.21-.73-.12-.39-.16-.48l-.21-.28a3.15 3.15 0 00-.36-.38c-.13-.13-.26-.24-.38-.34s-.21-.17-.26-.21l-.28.22-.38.35-.36.38a1.66 1.66 0 00-.22.26c-.05.09-.18.31-.36.67l-.59 1.16c-.21.41-.4.8-.58 1.17s-.28.59-.31.69l-.69 1.59zm-17.98-3.82a1.09 1.09 0 010-.26 2.83 2.83 0 00.1-.58 2 2 0 01.24-.74 2.78 2.78 0 01.52-.75c.2-.2.32-.33.36-.38a1 1 0 01.34-.19 5.2 5.2 0 01.55-.21c.19-.07.38-.12.55-.17a1 1 0 01.4 0 2.92 2.92 0 010 .46v.99a1.64 1.64 0 010 .4c0 .05-.08.19-.18.39l-.34.72a48.284 48.284 0 01-.69 1.34l-.3.31a3.18 3.18 0 01-.33.29h-.61a1.34 1.34 0 01-.34-.29 2 2 0 01-.27-.31 1.36 1.36 0 010-.27v-.37-.34m-1 4l1 .66a2.19 2.19 0 01.45.1c.23.07.49.13.77.2l.78.21a2.37 2.37 0 00.46.1l.92.14 1.46.17 1.49.18c.48.06.82.1 1 .11a1.15 1.15 0 00.39 0h1a1.38 1.38 0 00.4 0 7.51 7.51 0 00.85-.08l1.43-.18 1.51-.19 1.1-.15a10.37 10.37 0 001-.24c.43-.12.86-.24 1.28-.38l1.1-.38a3.46 3.46 0 00.49-.21 1 1 0 00.18-.28c.07-.12.13-.27.21-.42a2.67 2.67 0 00.16-.44 1.3 1.3 0 00.06-.32l-.14-.08a1.45 1.45 0 00-.25-.1l-.26-.07h-.15l-.11.06a.41.41 0 00-.13.08l-.18.08-.16.06a2.38 2.38 0 01-.56.22c-.3.09-.63.18-1 .26l-1 .24a3.72 3.72 0 01-.6.11l-1.16.16-1.53.21-1.4.18c-.43 0-.69.08-.8.08h-3.06l-.6-.11-.94-.18-.92-.19-.59-.15a.49.49 0 000-.14v-.17-.16a.53.53 0 000-.14l.6-1.21c.1-.2.21-.47.35-.8s.27-.66.4-1l.34-.85a2.46 2.46 0 00.15-.41v-.22-.43a3.85 3.85 0 010-.48v-.39-.41a4.18 4.18 0 010-.5v-.42-.21a.68.68 0 00-.26-.35 1.36 1.36 0 00-.37-.28l-.51-.08-.43-.06a2.14 2.14 0 00-.32 0 1.9 1.9 0 00-.31 0l-.38.06-.47.08-.3.18-.54.34c-.19.13-.38.26-.56.4l-.45.32a2.61 2.61 0 00-.26.23c-.11.12-.24.24-.38.37l-.37.37-.22.24a1.65 1.65 0 00-.15.26l-.2.37c-.06.13-.12.25-.17.37a.72.72 0 00-.09.24q0 .18-.15.66a4 4 0 00-.12 1 9.92 9.92 0 00.12 1.55c.08.5.13.86.15 1.06zm-13.2-14.71c0-.22.11-.46.18-.71l.21-.76a3.24 3.24 0 01.18-.57c0-.08.1-.25.21-.49s.24-.49.36-.74l.37-.73c.12-.23.21-.39.27-.49h.15a.44.44 0 01.15 0 .69.69 0 01.18 0h.12a.84.84 0 01.11.18c.06.1.11.22.18.35s.12.26.18.38a3.33 3.33 0 00.14.31l.15.42c.06.2.13.39.2.58s.14.37.18.52l.1.32v1.24c0 .15-.06.4-.11.75s-.12.74-.19 1.13-.15.76-.21 1.1-.11.57-.12.67-.06.23-.12.4-.11.37-.17.57-.13.38-.2.55l-.12.33a2 2 0 01-.29.32l-.31.29-.28-.49c-.13-.23-.26-.47-.38-.73s-.25-.5-.36-.74a1.93 1.93 0 01-.19-.5 2.92 2.92 0 01-.18-.64 48.705 48.705 0 01-.39-1.85 3.66 3.66 0 01-.07-.56 2.51 2.51 0 01.07-.41m-7.81 14c0-.19.1-.39.16-.58s.13-.37.18-.52a1.26 1.26 0 00.08-.26.72.72 0 01.09-.24c.05-.12.11-.24.18-.37a3.9 3.9 0 01.19-.35 2 2 0 01.15-.25 4.47 4.47 0 01.45-.51l.75-.75.74-.73.51-.46.22-.12.36-.2.37-.18.26-.11.51-.11.88-.19c.32-.07.64-.14.95-.19l.71-.14H64.13a4.44 4.44 0 010 .5c0 .24-.06.49-.09.74s-.08.5-.11.75-.07.4-.08.49a3.39 3.39 0 01-.18.33l-.35.54c-.12.19-.26.38-.4.56l-.31.41-.47.5c-.22.23-.46.49-.73.75l-.74.75a3.63 3.63 0 01-.51.45 3 3 0 01-.34.26l-.56.38-.54.35-.38.22a2.93 2.93 0 01-.43.18l-.57.21-.52.17a1.23 1.23 0 01-.32.07 1.1 1.1 0 01-.45-.2c-.22-.14-.33-.26-.35-.35a4.86 4.86 0 01-.16-.54 2.58 2.58 0 01-.14-.78 1.83 1.83 0 01.07-.45m13 1.55l.3.17.39.2.34.18a.52.52 0 00.21.09h1.81l.52-.1.74-.18.73-.21a2.4 2.4 0 00.46-.15 7.59 7.59 0 002-1.4 2 2 0 00.66-1.1c0-.28-.16-.43-.52-.46a3.1 3.1 0 00-1.53.54 1.93 1.93 0 01-.34.24 7 7 0 01-.69.37l-.79.36a5.43 5.43 0 01-.63.24h-.15l-.27.09-.3.08h-.24a1.66 1.66 0 01-.51-.11 1.59 1.59 0 01-.37-.14 2.06 2.06 0 01-.44-.26 7.93 7.93 0 01-.74-.53 14.22 14.22 0 01-.81-1.74 4.7 4.7 0 00-.43-.93 4.72 4.72 0 01-.21-.6l-.31-1c-.11-.35-.22-.68-.31-1s-.14-.48-.16-.52 0 0 0-.1v-.34a.29.29 0 010-.17c0-.07 0-.26.11-.56s.12-.63.19-1 .14-.69.21-1 .1-.49.12-.56a12.77 12.77 0 00.37-1.56 16.08 16.08 0 00.22-1.66c.05-.55.08-1.07.09-1.57s0-.92 0-1.27a2.54 2.54 0 00-.08-.38c-.06-.2-.12-.43-.19-.7l-.22-.77c-.08-.25-.14-.45-.2-.6a1.09 1.09 0 00-.11-.24q-.07-.17-.18-.36c-.06-.13-.12-.25-.19-.37l-.12-.23a2.88 2.88 0 00-.3-.33c-.17-.17-.28-.27-.33-.31a3.16 3.16 0 01-.31-.16c-.12-.08-.25-.14-.38-.21s-.24-.12-.35-.16l-.17-.07a.76.76 0 00-.27.07 3.76 3.76 0 00-.37.16c-.12.07-.25.13-.36.21a1.31 1.31 0 00-.21.16 2.27 2.27 0 00-.22.36 7.51 7.51 0 00-.36.7q-.19.41-.39.78a5.07 5.07 0 00-.27.61c0 .11-.09.26-.17.46s-.14.38-.2.57-.12.37-.17.53a1.28 1.28 0 00-.07.28c0 .2-.08.54-.18 1a7.35 7.35 0 00-.15 1.53 7 7 0 00.15 1.44q.15.74.33 1.38l.33 1.16a5.52 5.52 0 01.18.78l-.47.11c-.23 0-.5.11-.78.19s-.55.15-.78.22l-.47.14-.24.11-.37.18-.37.19-.23.12-1.9 1.35-1.79 1.7c0 .06-.09.21-.21.46s-.25.51-.39.78l-.4.77c-.12.24-.19.39-.21.44a4.47 4.47 0 00-.14.7c0 .31-.06.62-.08.94s0 .61 0 .88v.51a3.18 3.18 0 00.09.67c.07.27.15.53.24.79a5.37 5.37 0 00.29.67.91.91 0 00.26.35l.63.22a3.8 3.8 0 00.51.13 1.91 1.91 0 00.42.06 3.15 3.15 0 00.53-.06c.22 0 .44-.08.67-.13l.61-.16.31-.06.2-.09.35-.18.39-.19a1.44 1.44 0 00.27-.15c.1-.06.26-.17.49-.34l.74-.56.74-.56.48-.38.28-.25c.13-.11.25-.23.38-.36s.25-.25.35-.37l.2-.23a8.48 8.48 0 00.51-.72l.74-1.11c.27-.4.51-.77.73-1.12l.47-.74c.06.13.14.34.25.63s.23.6.36.92.25.63.37.91.21.49.28.62.16.28.31.5.3.44.45.67l.44.65a2.13 2.13 0 00.32.38zm-22-.16a.92.92 0 00.14.11 1.66 1.66 0 00.35.19 6.27 6.27 0 01.58.28l.11.05a.43.43 0 00.17.06 1.28 1.28 0 00.77 0H49.52l.52-.1a5.8 5.8 0 00.75-.18c.26-.06.5-.14.73-.2a3.17 3.17 0 00.45-.15 7.59 7.59 0 002-1.4 2 2 0 00.66-1.11c0-.27-.16-.42-.52-.45a2.91 2.91 0 00-1.53.54l-.34.23a7 7 0 01-.69.37l-.78.36-.64.25h-.14l-.28.08-.3.08a.93.93 0 01-.24 0h-.79a1.31 1.31 0 00-.27-.08l-.45-.17a3.3 3.3 0 01-.3-.27l-.32-.33c-.1-.12-.2-.22-.29-.31a.51.51 0 01-.16-.22l-.47-.67c-.24-.36-.5-.74-.77-1.16l-.77-1.15c-.24-.36-.39-.59-.44-.68l-.41-.47-.57-.58c-.19-.2-.37-.37-.53-.51l-.33-.28a2.11 2.11 0 00-.4-.07 4.12 4.12 0 00-.51 0 4.26 4.26 0 00-.54 0 2.11 2.11 0 00-.4.07 7 7 0 00-.64.44c-.31.22-.62.46-.94.72s-.62.5-.91.75a6.16 6.16 0 00-.56.54 2.54 2.54 0 00-.1-.25c0-.11-.1-.23-.16-.37l-.19-.37-.16-.25a3.75 3.75 0 00-.26-.3l-.37-.39-.36-.34a1.42 1.42 0 00-.22-.18.59.59 0 00-.24 0h-.72a.79.79 0 00-.28 0 3.14 3.14 0 00-.29.25 1.76 1.76 0 00-.31.36l-.44.67-.77 1.17-.77 1.17c-.24.36-.39.58-.47.67a1.63 1.63 0 01-.27.3c-.13.14-.27.27-.43.42l-.46.41a3.53 3.53 0 01-.32.27l-.25.17-.36.21a3.76 3.76 0 01-.37.16.81.81 0 01-.23.07l-.53.19c-.2.08-.39.14-.58.2l-.66.22-.19.54.58.72h.33a2.45 2.45 0 00.58 0 4.18 4.18 0 00.7-.16l.54-.17.2-.11.35-.19.37-.22.26-.16.34-.24c.14-.1.28-.2.41-.31l.38-.29.22-.18c.07-.06.22-.2.46-.44s.5-.5.76-.79l.76-.78c.24-.24.39-.38.46-.44s.14 0 .31.1a1.05 1.05 0 00.3.12v5.92a2.19 2.19 0 00.37-.07c.18-.05.36-.1.55-.17a4.48 4.48 0 00.55-.21 1.36 1.36 0 00.37-.19s.06-.07.11-.22.12-.32.18-.51a5.76 5.76 0 00.18-.59c.06-.2.1-.36.14-.5a.81.81 0 000-.31v-.32c0-.04 0-.16.11-.33s.11-.34.18-.53.12-.39.18-.57a3.09 3.09 0 01.13-.38 1.91 1.91 0 01.13-.31l.2-.38.2-.34.11-.21a1.32 1.32 0 01.22-.25l.35-.36.38-.37a1.38 1.38 0 01.26-.23.74.74 0 01.23-.15l.37-.2.38-.16.26-.1c.09.09.25.25.49.47s.49.46.74.73l.72.74c.22.23.37.4.46.51s.18.2.37.44.37.5.57.77l.56.77a4 4 0 00.35.44 1.52 1.52 0 00.19.22c.09.1.2.2.31.3s.22.22.32.34l.28.27zm-39.63 3.25a2.48 2.48 0 00.17.38l.21.37a.4.4 0 00.18.2.54.54 0 00.19 0h1.02l.56-.11 1-.2 1-.19.56-.11 1.12-.19 2-.32 2.41-.4 2.4-.4c.77-.11 1.42-.22 2-.32l1.12-.21.93-.22 1.48-.36 1.48-.37 1-.26.25-.11.21-.18.37-.18a1.07 1.07 0 00.24-.14 3.75 3.75 0 00.3-.26 3.52 3.52 0 00.38-.39l.35-.36a2.18 2.18 0 00.18-.22.9.9 0 000-.25v-.33-.37a1 1 0 000-.27 1.69 1.69 0 00-.27-.33 1.76 1.76 0 00-.34-.3h-.6a.84.84 0 00-.14.23q-.09.18-.18.39l-.18.4a.8.8 0 01-.11.22 2.89 2.89 0 01-.32.33l-.29.28-.28.11-.53.17-.57.19a3.15 3.15 0 01-.46.13l-.52.15-.76.19-.73.18-.43.11-.68.11-1.09.18-1.11.19c-.36.07-.62.11-.78.13h-.61a1.44 1.44 0 01-.36-.29 2.11 2.11 0 01-.27-.32v-1.23c0-.11 0-.38-.1-.79s-.13-.86-.21-1.34-.14-.94-.2-1.35a6.32 6.32 0 01-.1-.79v-1-2-2.27-1.84-1.39-2.12-2.12-1.39l.37-.15.55-.19.55-.18a1.7 1.7 0 01.38-.08q.3-.06 1.08-.15c.52-.07 1.08-.13 1.67-.19l1.66-.18 1.09-.11h5.5l.12-.24.2-.37.17-.36a1.09 1.09 0 00.11-.24 1.69 1.69 0 00.06-.39v-.38h-1.87l-1.15.05-.73.06-.87.1-1.57.17-2 .25-2.09.26-1.89.25-1.39.18-1.8.26c-.74.1-1.55.21-2.41.35s-1.73.25-2.61.4l-2.45.37c-.75.1-1.39.21-1.92.3l-1 .16-.73.18-1.24.35-1.33.38c-.44.13-.78.23-1 .31l-.34.13-.38.18-.34.18c-.1.05-.15.09-.15.11a.94.94 0 00-.05.36v1.06a1.49 1.49 0 00.05.42c0 .06.1.16.26.32a1.61 1.61 0 00.34.29.3.3 0 00.15 0h.51l.34-.33c.17-.19.37-.38.58-.59l.57-.58a3.08 3.08 0 01.35-.32 5.34 5.34 0 01.63-.26l1.09-.37 1.14-.37a7.12 7.12 0 01.8-.23l.75-.13 1.33-.22 1.62-.25 1.68-.25 1.5-.22 1.07-.15H16.53v20.66l-9.16 1.22a.92.92 0 00-.39.25c-.16.16-.24.28-.24.38a.77.77 0 00.07.26M354.13 2.19v241.53h-314V2.19zM356.32 0H37.91v245.91h318.37z"/><path d="M265.51 82.69h-2.92c-.46 0-1 .08-1.44.09h-13.14v1.32h6.7v40.8h-6.7v1.32h19.91v-1.32h-6.7v-21.22h5.8a22.43 22.43 0 012.39.15 6.08 6.08 0 014.76 3.29 11.23 11.23 0 011.18 4.61l.42 5.49a24.09 24.09 0 00.63 4.05 7.92 7.92 0 001.48 3 6.23 6.23 0 002.66 1.85 11.79 11.79 0 004.09.61 13.08 13.08 0 002.19-.15 8.44 8.44 0 001.53-.4 6.72 6.72 0 001-.54l.18-.13.52-.39.19-.15-.86-1.06-.19.19a3.84 3.84 0 01-1.42.91 4.59 4.59 0 01-1.54.29 2.51 2.51 0 01-2.34-1.16 9.3 9.3 0 01-1.12-2.76 14.66 14.66 0 01-.32-2.5c-.06-1-.12-2-.18-3.14s-.15-2.24-.25-3.17a14.16 14.16 0 00-.52-2.79 7.24 7.24 0 00-2.12-3.46 12.52 12.52 0 00-3.23-2.12 15.69 15.69 0 00-3.43-1.14l-1.46-.27a13.6 13.6 0 004.53-1.52 11 11 0 003.29-2.77 8 8 0 001.49-3 10.85 10.85 0 00.34-2.38 10.34 10.34 0 00-.89-3.95 9.5 9.5 0 00-3.06-3.77 11 11 0 00-5.18-2.32 45.89 45.89 0 00-6.27-.39zm8.32 10.55a16.12 16.12 0 01-.52 4.52 7 7 0 01-1.49 2.77 5.19 5.19 0 01-2.28 1.42 10.1 10.1 0 01-3 .41h-5.31v-18.2a16.41 16.41 0 011.67-.12h2.2a17.59 17.59 0 013.12.29 6.85 6.85 0 012.8 1.23 6.59 6.59 0 012 2.77 12.68 12.68 0 01.81 4.91zM100.94 112.62h-1.09v.18a20.08 20.08 0 01-4.35 8.94 10.46 10.46 0 01-8.15 3.25h-10.5v-40.8h6.69v-1.35h-19.9v1.32h6.7v40.8h-6.7v1.31h37.34zM115.73 123.59c2.58 2.4 6.36 3.62 11.23 3.62a18.94 18.94 0 007.75-1.35 11.61 11.61 0 004.62-3.58 12.86 12.86 0 002.28-4.39 18.82 18.82 0 00.55-4.67v-29h6.69v-1.38h-14.72v1.32h6.7v27.82a30.21 30.21 0 01-.18 3.62 13.86 13.86 0 01-.51 2.49 8.3 8.3 0 01-.76 1.79 12.7 12.7 0 01-1 1.55 9.75 9.75 0 01-4.36 3.45 16.41 16.41 0 01-5.89 1 12.56 12.56 0 01-4.2-.65 6.81 6.81 0 01-3-2.12 10.06 10.06 0 01-1.86-4 25.54 25.54 0 01-.62-6.07v-28.9h6.69v-1.3h-20.01v1.32h6.7v28.3c-.01 4.98 1.3 8.71 3.9 11.13zM171.49 82.88h-18.46v1.31h5.11l12.71 20.89-11.92 19.91h-5.9v1.32h13.08v-1.32h-5.6l11.1-18.62 11.35 18.62h-5.62v1.32h18.58v-1.32h-5.11l-14.88-24.32 9.93-16.48h5.9v-1.31h-13.02v1.31h5.6l-9.23 15.18-9.23-15.18h5.61zM235.58 115.63a13 13 0 01-.5 2.49 9.09 9.09 0 01-.76 1.79 14.94 14.94 0 01-1 1.55 9.67 9.67 0 01-4.37 3.45 16.32 16.32 0 01-5.88 1 12.52 12.52 0 01-4.2-.65 6.86 6.86 0 01-3-2.12 10.12 10.12 0 01-1.86-4 25.54 25.54 0 01-.63-6.07v-28.9h6.71v-1.33h-19.96v1.32h6.69v28.3c0 5 1.32 8.68 3.91 11.1s6.37 3.62 11.23 3.62a19 19 0 007.76-1.35 11.67 11.67 0 004.62-3.58 12.82 12.82 0 002.27-4.39 18.35 18.35 0 00.55-4.67v-29h6.7v-1.35h-14.79v1.32h6.69v27.82a30.44 30.44 0 01-.18 3.65zM305.97 107.97v17.02h-6.7v1.32h19.9v-1.32h-6.69v-18.95l11.66-21.85h5.96v-1.31h-13.39v1.31h5.93l-11.01 20.51-11.65-20.51h5.86v-1.31H286.9v1.31h5.59zM254.05 182.52v1.32h37.34v-13.68h-1.08v.18a20.23 20.23 0 01-4.35 9 10.53 10.53 0 01-8.15 3.23h-10.56v-40.84h6.7v-1.32h-19.9v1.32h6.7v40.79zM310.45 184.57a17.57 17.57 0 001.84.15h2.24a16.65 16.65 0 006.49-1.2 14.94 14.94 0 004.89-3.18 13.61 13.61 0 003.11-4.61 14.32 14.32 0 001.07-5.49 10.17 10.17 0 00-1.2-5.19 10.74 10.74 0 00-2.91-3.26 13.31 13.31 0 00-3.47-1.85c-1.24-.42-2.15-.73-2.9-1l-7.3-2.3c-1-.32-2.09-.69-3.09-1.1a12.5 12.5 0 01-2.72-1.54 7.51 7.51 0 01-2-2.23 6.2 6.2 0 01-.75-3.17 6.94 6.94 0 011-3.85 7.93 7.93 0 012.43-2.46 10.23 10.23 0 013.18-1.33 14.46 14.46 0 013.15-.39 9.93 9.93 0 017.72 3.34 12.86 12.86 0 012.23 3.49 17.31 17.31 0 011.21 4.14v.19h1.17v-11.32h-1.22l-.07.12a3.56 3.56 0 01-.69 1 1.6 1.6 0 01-.91.16 3.8 3.8 0 01-1.57-.34l-1.83-.81a16.33 16.33 0 00-2.49-.84 15.21 15.21 0 00-3.58-.37 14.64 14.64 0 00-5.43 1 13 13 0 00-4.27 2.71 12 12 0 00-2.77 4.09 13.27 13.27 0 00-1 5.12 9.11 9.11 0 002.58 6.81 18.15 18.15 0 007.48 4l6.94 2.11a17.83 17.83 0 012.65 1 10.83 10.83 0 012.57 1.68 8.24 8.24 0 011.93 2.49 7.43 7.43 0 01.77 3.51 11.39 11.39 0 01-.48 3.11 8.49 8.49 0 01-1.64 3.11 9.06 9.06 0 01-3.17 2.38 12.43 12.43 0 01-5.16.94c-.72 0-1.52 0-2.43-.06a13 13 0 01-2.66-.41 11.49 11.49 0 01-2.75-1.13 9.89 9.89 0 01-2.6-2.18 15.58 15.58 0 01-2.28-3.63 24.35 24.35 0 01-1.71-5.43v-.19h-1.09v13.48h1.31l.05-.15a3.14 3.14 0 01.53-.9 1.51 1.51 0 011.06-.28 7.34 7.34 0 012.34.46c1 .36 1.85.64 2.6.86a19.48 19.48 0 001.9.45zM89.73 141.73h6.7v19.26H76.81v-19.26h6.69v-1.32H63.6v1.32h6.7v40.8h-6.7v1.32h19.9v-1.32h-6.69v-20.22h19.62v20.22h-6.7v1.32h19.9v-1.32h-6.7v-40.8h6.7v-1.32h-19.9zM127.82 182.84a19.35 19.35 0 008.49 1.89 18.34 18.34 0 008.34-2 22.85 22.85 0 006.73-5.12 24.48 24.48 0 004.52-7.25 22.22 22.22 0 001.64-8.35 22.56 22.56 0 00-1.8-9 23.88 23.88 0 00-4.78-7.2 22.84 22.84 0 00-6.8-4.78 18 18 0 00-15.43 0 23.1 23.1 0 00-6.8 4.78 25.5 25.5 0 00-4.94 7.19 21.45 21.45 0 00-1.92 9 23.6 23.6 0 001.59 8.5 23.27 23.27 0 004.41 7.25 21.83 21.83 0 006.75 5.09zm-5.34-20.79a58 58 0 01.55-8 21.74 21.74 0 012.06-6.87 12.14 12.14 0 014.2-4.77 14.88 14.88 0 0114 0 12.3 12.3 0 014.2 4.77 22.17 22.17 0 012.06 6.87 58.28 58.28 0 01.54 8 55 55 0 01-.72 9.43 19.24 19.24 0 01-2.38 6.67 10.54 10.54 0 01-4.28 4 14.64 14.64 0 01-6.44 1.3 14.47 14.47 0 01-6.48-1.3 10.45 10.45 0 01-4.24-4 18.7 18.7 0 01-2.38-6.67 54.1 54.1 0 01-.69-9.41zM200.48 151.75v.18h1.08v-11.52h-37.11v11.52h1.08v-.18a19.66 19.66 0 012.42-5.69 10.17 10.17 0 012.88-3 7.68 7.68 0 013-1.14 19.62 19.62 0 012.68-.21h3.26v40.79h-6.7v1.34h19.91v-1.33h-6.7v-40.78h3.26a20 20 0 012.68.21 7.74 7.74 0 013 1.14 10.32 10.32 0 012.89 3 19.77 19.77 0 012.37 5.67zM209.19 182.52v1.32h37.27v-13.68h-1.11v.21a19.33 19.33 0 01-.83 3.45 14.27 14.27 0 01-2 4 12.55 12.55 0 01-3.51 3.32 9.88 9.88 0 01-5.4 1.37h-11.22v-21.3h4.65a7.14 7.14 0 013.42.73 6 6 0 012.09 1.94 10.33 10.33 0 011.23 2.83c.3 1.07.59 2.2.88 3.38v.18h1.09v-19.24h-1.09v.18a35.36 35.36 0 01-1.35 4.41 8.18 8.18 0 01-1.64 2.63 5 5 0 01-2.27 1.3 13.8 13.8 0 01-3.32.35h-3.69v-18.17h9.74a13 13 0 014.15.59 7.69 7.69 0 012.92 1.79 11.11 11.11 0 012.13 3 30.77 30.77 0 011.68 4.09l.05.16h1.08v-10.95h-35v1.32h6.7v40.79zM328.31 202.77a9.7 9.7 0 00-2.35-2.49 11.45 11.45 0 00-3.38-1.72c-.43-.15-.86-.27-1.26-.37a10.91 10.91 0 00-1.25-.22c-.45-.06-.92-.09-1.4-.12s-1 0-1.69 0h-9.6v.99h3.49v21h-3.49v.91h6.58c.35 0 .69 0 1.05.05s.71 0 1.08 0h2.95a14.63 14.63 0 001.58-.13 10.74 10.74 0 001.41-.29 9.58 9.58 0 001.46-.54 11.5 11.5 0 002.58-1.52 10.84 10.84 0 002.11-2.26 10.52 10.52 0 001.41-3 13.2 13.2 0 00.52-3.79 14.26 14.26 0 00-.43-3.49 10.61 10.61 0 00-1.37-3.01zm-4.28-1.13a8.93 8.93 0 011.52 3.36 20.54 20.54 0 01.46 4.47 17.72 17.72 0 01-.39 3.82 11.61 11.61 0 01-1.37 3.4 6.23 6.23 0 01-1.44 1.71 6.53 6.53 0 01-1.72 1 7.81 7.81 0 01-2 .45 19.33 19.33 0 01-2.1.11h-1.54l-1-.08v-21.04H316.88a10.86 10.86 0 014.33.77 7 7 0 012.82 2.03zM303.47 213.58a10.48 10.48 0 01-2.25 4.61 5.29 5.29 0 01-4.15 1.65h-5.36v-21h3.49v-.91h-10.58v.91h3.51v21h-3.48v.91h19.66v-7.35h-.77zM282.13 219.41a1.92 1.92 0 01-.7.45 2.32 2.32 0 01-.77.14 1.18 1.18 0 01-1.11-.56 4.25 4.25 0 01-.57-1.39 8.14 8.14 0 01-.17-1.29l-.09-1.62c0-.61-.08-1.18-.13-1.67a9 9 0 00-.27-1.47 4 4 0 00-1.14-1.85 7.15 7.15 0 00-1.71-1.13 8.88 8.88 0 00-1.81-.59h-.19a6.58 6.58 0 001.82-.68 6 6 0 001.75-1.48 4.26 4.26 0 00.79-1.6 4.61 4.61 0 00-.29-3.36 5.21 5.21 0 00-1.63-2 5.76 5.76 0 00-2.75-1.22 23 23 0 00-3.3-.21h-9.21v.96h3.48v21h-3.48v.91h10.58v-.91h-3.49v-10.86h2.91a12 12 0 011.23.07 3.07 3.07 0 012.39 1.66 5.65 5.65 0 01.6 2.35l.22 2.86a11.45 11.45 0 00.34 2.13 4.2 4.2 0 00.78 1.6 3.33 3.33 0 001.44 1 6.19 6.19 0 002.17.33 6.63 6.63 0 001.15-.09 3.8 3.8 0 00.82-.22 2.79 2.79 0 00.57-.29l.1-.07.27-.2.19-.15-.61-.74zm-14.39-11.35v-9.22l.76-.05a12.41 12.41 0 012.74.14 3.59 3.59 0 011.42.61 3.47 3.47 0 011 1.4 6.55 6.55 0 01.41 2.53 8.15 8.15 0 01-.28 2.32 3.44 3.44 0 01-.75 1.4 2.39 2.39 0 01-1.13.7 5.1 5.1 0 01-1.53.21zM253.36 200.78a11.9 11.9 0 00-3.57-2.51 9.93 9.93 0 00-4.14-.92 9.42 9.42 0 00-4 .92 12.3 12.3 0 00-3.57 2.51 13.2 13.2 0 00-2.59 3.78 11.24 11.24 0 00-1 4.74 12.48 12.48 0 00.84 4.47 12 12 0 002.32 3.81 11.59 11.59 0 003.55 2.65 10.12 10.12 0 004.46 1 9.71 9.71 0 004.4-1 12.17 12.17 0 003.54-2.69 12.81 12.81 0 002.36-3.81 11.51 11.51 0 00.87-4.4 11.75 11.75 0 00-1-4.73 12.53 12.53 0 00-2.47-3.82zm-13.23 16.85a9.82 9.82 0 01-1.22-3.44 27.75 27.75 0 01-.38-4.89 32.3 32.3 0 01.28-4.16 11.63 11.63 0 011.07-3.54 6.39 6.39 0 012.14-2.43 7.63 7.63 0 017.19 0 6.33 6.33 0 012.15 2.43 11.8 11.8 0 011.06 3.54 32.79 32.79 0 01.28 4.16 28.16 28.16 0 01-.38 4.89 9.53 9.53 0 01-1.22 3.44 5.31 5.31 0 01-2.18 2 8.51 8.51 0 01-6.62 0 5.29 5.29 0 01-2.17-2zM187.13 213.61a12.17 12.17 0 01-.43 1.78 7.59 7.59 0 01-1 2.05 6.55 6.55 0 01-1.81 1.7 4.93 4.93 0 01-2.74.7h-5.71v-10.86h2.32a3.5 3.5 0 011.71.36 2.81 2.81 0 011.05 1 5.14 5.14 0 01.63 1.45c.16.56.31 1.15.46 1.75v.18h.77v-10.27h-.77v.18a19.17 19.17 0 01-.7 2.28 4 4 0 01-.83 1.33 2.42 2.42 0 01-1.13.64 6.64 6.64 0 01-1.7.18h-1.81v-9.22h5a6.48 6.48 0 012.12.3 4.1 4.1 0 011.49.91 5.89 5.89 0 011.08 1.5 16.7 16.7 0 01.87 2.12v.16h.75v-5.9h-18.41v.91h3.49v21h-3.49v.91h19.64v-7.35h-.8zM225.26 198.84h3.25l-6.28 17.36-6.17-17.36h3.32v-.92h-9.89v.92h2.7l2.31 6.39-3.96 10.97-6.16-17.36h3.16v-.92h-9.92v.92h2.89l8.01 22.39h1.18l5.33-14.71 5.27 14.71h1.12l8.13-22.39h2.9v-.92h-7.19zM155.09 198.84h3.48v9.79h-9.98v-9.79h3.49v-.92h-10.59v.92h3.49v21h-3.49v.91h10.59v-.91h-3.49v-10.3h9.98v10.3h-3.48v.91h10.58v-.91h-3.48v-21h3.48v-.92h-10.58zM119 204.14h.77l.05-.17a9.91 9.91 0 011.23-2.93 5.36 5.36 0 011.47-1.52 3.87 3.87 0 011.49-.58 10.08 10.08 0 011.39-.11h1.58v21h-3.48v.91h10.63v-.9h-3.48v-21h1.58a9.94 9.94 0 011.38.11 3.87 3.87 0 011.49.58 5.23 5.23 0 011.47 1.52 9.78 9.78 0 011.24 2.93l.05.17h.76v-6.22H119zM89.39 198.84h3.48v21h-3.48v.91h10.59v-.91h-3.49v-10.39h2.31a3.6 3.6 0 011.72.36 2.8 2.8 0 011 1 5 5 0 01.63 1.44c.16.56.31 1.14.46 1.75v.18h.77v-10.26h-.77v.18a17.58 17.58 0 01-.7 2.28 3.82 3.82 0 01-.83 1.33 2.37 2.37 0 01-1.13.64 6.82 6.82 0 01-1.7.19h-1.8v-9.7h5a6.4 6.4 0 012.12.3 3.89 3.89 0 011.49.91 5.76 5.76 0 011.08 1.5 16.49 16.49 0 01.87 2.12l.05.16h.75v-5.9H89.39zM82.07 200.78a11.89 11.89 0 00-3.58-2.51 9.46 9.46 0 00-8.12 0 12.1 12.1 0 00-3.57 2.51 13 13 0 00-2.59 3.78 11.06 11.06 0 00-1 4.74 12.47 12.47 0 00.83 4.47 12.2 12.2 0 002.33 3.81 11.7 11.7 0 003.54 2.65 10.13 10.13 0 004.47 1 9.67 9.67 0 004.39-1 12.17 12.17 0 003.54-2.69 12.86 12.86 0 002.37-3.81 12 12 0 00-.08-9.13 12.53 12.53 0 00-2.53-3.82zm-13.19 16.85a9.87 9.87 0 01-1.23-3.44 28.07 28.07 0 01-.37-4.89 29.55 29.55 0 01.28-4.16 11.46 11.46 0 011.06-3.54 6.24 6.24 0 012.15-2.43 6.33 6.33 0 013.59-.9 6.41 6.41 0 013.59.9 6.25 6.25 0 012.15 2.43 11.54 11.54 0 011.03 3.54 30.68 30.68 0 01.28 4.16 26.3 26.3 0 01-.38 4.89 9.62 9.62 0 01-1.21 3.44 5.34 5.34 0 01-2.19 2 8.49 8.49 0 01-6.61 0 5.29 5.29 0 01-2.14-2zM329.86 199.03h.07a1.68 1.68 0 01.16-.42.8.8 0 01.21-.26.58.58 0 01.26-.13 1.67 1.67 0 01.34 0h.23v3.46h-.47v.07h1.67v-.07h-.47v-3.46h.18a1.67 1.67 0 01.34 0 .57.57 0 01.27.13.94.94 0 01.2.26 2.14 2.14 0 01.17.42h.07v-.93h-3.18zM335.59 200.63h-.01l-.87-2.52h-1.31v.07h.47v3.47h-.47v.07h1.02v-.07h-.47v-3.47h.01l1.25 3.54h.09l1.24-3.54h.01v3.47h-.46v.07h1.66v-.07h-.46v-3.47h.46v-.07h-1.27zM330.13 55.06h-1.09v.18a20 20 0 01-4.35 8.94 10.48 10.48 0 01-8.14 3.24h-10.59V26.63h6.7v-1.32h-19.91v1.32h6.7v40.79h-6.7v1.32h37.38zM275.49 55.06h-1.08v.18a20.19 20.19 0 01-4.35 8.94 10.49 10.49 0 01-8.15 3.24h-10.5V26.63h6.69v-1.32h-19.97v1.32h6.69v40.79h-6.69v1.32h37.33zM64.96 68.6a2.93 2.93 0 01.53-.9 1.53 1.53 0 011.06-.28 7.44 7.44 0 012.34.46c1.05.37 1.88.64 2.61.85a17.6 17.6 0 001.89.46c.57.1 1.14.2 1.7.27a14.33 14.33 0 001.84.16h2.23a16.91 16.91 0 006.49-1.19 15.34 15.34 0 004.9-3.19 13.83 13.83 0 003.1-4.61 14.2 14.2 0 001.08-5.48 10.23 10.23 0 00-1.21-5.2 10.87 10.87 0 00-2.9-3.27 13.88 13.88 0 00-3.49-1.84c-1.2-.41-2.16-.73-2.91-1l-7.3-2.29c-1.05-.33-2.09-.71-3.08-1.11a12.88 12.88 0 01-2.73-1.54 7.44 7.44 0 01-2-2.22 6.29 6.29 0 01-.75-3.18 7.07 7.07 0 011-3.85 7.82 7.82 0 012.43-2.46 9.81 9.81 0 013.18-1.33 14.94 14.94 0 013.15-.39 10 10 0 017.73 3.34 12.45 12.45 0 012.22 3.49 18 18 0 011.22 4.14v.2h1.16v-11.4h-1.22l-.06.12a3.71 3.71 0 01-.7 1 1.6 1.6 0 01-.91.16 3.75 3.75 0 01-1.56-.34l-.61-.27-1.23-.55a17.21 17.21 0 00-2.49-.83 16.41 16.41 0 00-9 .62 13.07 13.07 0 00-4.27 2.7 12.13 12.13 0 00-2.77 4.1 13.23 13.23 0 00-1 5.12 9.22 9.22 0 002.57 6.81 18.16 18.16 0 007.49 4l6.94 2.11a17 17 0 012.65 1 10.54 10.54 0 012.57 1.68 8.4 8.4 0 011.94 2.5 7.54 7.54 0 01.76 3.5 11.51 11.51 0 01-.48 3.11 8.49 8.49 0 01-1.64 3.11 9 9 0 01-3.18 2.38 12.22 12.22 0 01-5.15.94c-.83 0-1.63 0-2.42-.06a14 14 0 01-2.67-.41 11.45 11.45 0 01-2.75-1.12 10.35 10.35 0 01-2.6-2.19 15.55 15.55 0 01-2.28-3.62 24.43 24.43 0 01-1.71-5.44v-.19h-1.09v13.56h1.3zM124.03 67.44h-6.66V28.27l17.51 40.91 17.56-41.33v39.59h-6.66v1.31h19.8v-1.31h-6.67V26.85h6.67v-1.31h-13.66l-14.35 32.08-14.34-32.08h-13.9v1.31H116v40.59h-6.67v1.31h14.7zM191.25 67.43h-6.56l6.12-16.21h16.94l6.12 16.21h-6.56v1.32h19v-1.32h-5.42l-16.27-42.82-.06-.16h-5.1l-16.21 43h-5.35v1.32h13.38zm.06-17.52l8-21.11 8 21.11z"/></symbol><symbol id="slh-mobile" viewBox="0 0 318.37 245.92"><path d="M316.18 2.19v241.53h-314V2.19zm2.2-2.19H0v245.91h318.38z"/><path d="M227.6 82.69h-2.92c-.46 0-1 .08-1.43.09H210.11v1.32h6.7v40.8h-6.7v1.32h19.9v-1.32h-6.71v-21.22h5.8a22.28 22.28 0 012.39.15 6.08 6.08 0 014.77 3.29 11.24 11.24 0 011.17 4.61l.43 5.49a23.12 23.12 0 00.63 4.05 8.05 8.05 0 001.47 3 6.2 6.2 0 002.67 1.85 11.72 11.72 0 004.09.61 13 13 0 002.18-.15 8 8 0 001.53-.4 6.42 6.42 0 001.05-.54l.17-.13.53-.39.19-.15-.87-1.06-.18.19a3.84 3.84 0 01-1.42.91 4.6 4.6 0 01-1.55.29 2.5 2.5 0 01-2.33-1.16 9.31 9.31 0 01-1.13-2.76 14.81 14.81 0 01-.31-2.5c-.07-1-.13-2-.19-3.14s-.15-2.24-.24-3.17a14.93 14.93 0 00-.52-2.79 7.32 7.32 0 00-2.12-3.46 12.69 12.69 0 00-3.23-2.12 15.86 15.86 0 00-3.43-1.14l-1.47-.27a13.45 13.45 0 004.53-1.52 10.94 10.94 0 003.3-2.77 8.12 8.12 0 001.49-3 10.85 10.85 0 00.34-2.38 10.19 10.19 0 00-.9-3.95 9.5 9.5 0 00-3.06-3.77 10.91 10.91 0 00-5.18-2.32 45.79 45.79 0 00-6.3-.39zm8.33 10.55a15.72 15.72 0 01-.53 4.52 6.87 6.87 0 01-1.48 2.77 5.3 5.3 0 01-2.28 1.42 10.15 10.15 0 01-3 .41h-5.34v-18.2a16.64 16.64 0 011.67-.12h2.2a17.5 17.5 0 013.12.29 6.89 6.89 0 012.81 1.23 6.76 6.76 0 012 2.77 12.87 12.87 0 01.83 4.91zM63.04 112.62h-1.09v.18a20 20 0 01-4.35 8.94 10.44 10.44 0 01-8.15 3.25H38.91v-40.8h6.69v-1.35H25.7v1.32h6.7v40.8h-6.7v1.31h37.34zM77.82 123.59c2.58 2.4 6.36 3.62 11.23 3.62a19 19 0 007.76-1.35 11.69 11.69 0 004.62-3.58 12.82 12.82 0 002.27-4.39 18.35 18.35 0 00.55-4.67v-29h6.7v-1.38H96.17v1.32h6.7v27.82a32.77 32.77 0 01-.17 3.62 14.8 14.8 0 01-.51 2.49 8.83 8.83 0 01-.76 1.79 12.77 12.77 0 01-1.05 1.55 9.73 9.73 0 01-4.35 3.45 16.41 16.41 0 01-5.89 1 12.62 12.62 0 01-4.21-.65 6.92 6.92 0 01-3-2.12 10.2 10.2 0 01-1.86-4 25.54 25.54 0 01-.62-6.07v-28.9h6.7v-1.3h-19.9v1.32h6.69v28.3c-.03 4.98 1.29 8.71 3.88 11.13zM133.59 82.88h-18.46v1.31h5.11l12.71 20.89-11.93 19.91h-5.89v1.32h13.08v-1.32h-5.61l11.11-18.62 11.34 18.62h-5.61v1.32h18.58v-1.32h-5.12l-14.87-24.32 9.93-16.48h5.89v-1.31h-13.02v1.31h5.61l-9.23 15.18-9.24-15.18h5.62zM197.68 115.63a13.8 13.8 0 01-.5 2.49 9.08 9.08 0 01-.77 1.79 14.94 14.94 0 01-1 1.55 9.7 9.7 0 01-4.36 3.45 16.36 16.36 0 01-5.88 1 12.58 12.58 0 01-4.21-.65 7 7 0 01-3-2.12 10.26 10.26 0 01-1.85-4 25 25 0 01-.63-6.07v-28.9h6.7v-1.33H162.2v1.32h6.7v28.3c0 5 1.31 8.68 3.9 11.1s6.37 3.62 11.24 3.62a18.88 18.88 0 007.75-1.35 11.6 11.6 0 004.62-3.58 12.86 12.86 0 002.28-4.39 18.82 18.82 0 00.55-4.67v-29h6.7v-1.35h-14.77v1.32h6.69v27.82a30.44 30.44 0 01-.18 3.65zM268.07 107.97v17.02h-6.71v1.32h19.91v-1.32h-6.7v-18.95l11.67-21.85h5.95v-1.31H278.8v1.31h5.94l-11.01 20.51-11.66-20.51h5.86v-1.31H249v1.31h5.59zM216.15 182.52v1.32h37.33v-13.68h-1.08v.18a20.34 20.34 0 01-4.36 9 10.52 10.52 0 01-8.15 3.23h-10.5v-40.84h6.69v-1.32h-19.93v1.32h6.69v40.79zM272.55 184.57a17.57 17.57 0 001.84.15h2.24a16.63 16.63 0 006.48-1.2 15 15 0 004.9-3.18 13.58 13.58 0 003.1-4.61 14.15 14.15 0 001.08-5.49 10.17 10.17 0 00-1.21-5.19 10.71 10.71 0 00-2.9-3.26 13.47 13.47 0 00-3.47-1.85c-1.24-.42-2.16-.73-2.91-1l-7.3-2.3a35.33 35.33 0 01-3.09-1.1 12.43 12.43 0 01-2.71-1.54 7.4 7.4 0 01-2-2.23 6.3 6.3 0 01-.74-3.17 7 7 0 01.95-3.85 7.93 7.93 0 012.43-2.46 10.23 10.23 0 013.18-1.33 14.6 14.6 0 013.15-.39 9.93 9.93 0 017.73 3.34 12.6 12.6 0 012.22 3.49 17.81 17.81 0 011.22 4.14v.19h1.16v-11.32h-1.21l-.07.12a3.47 3.47 0 01-.7 1c-.07.06-.29.16-.91.16a3.75 3.75 0 01-1.56-.34l-1.84-.81a15.81 15.81 0 00-2.48-.84 15.3 15.3 0 00-3.59-.37 14.59 14.59 0 00-5.42 1 13.12 13.12 0 00-4.28 2.71 12.23 12.23 0 00-2.77 4.09 13.27 13.27 0 00-1 5.12 9.15 9.15 0 002.58 6.81 18.28 18.28 0 007.48 4l7 2.11a18.71 18.71 0 012.65 1 10.77 10.77 0 012.56 1.68 8.43 8.43 0 011.94 2.49 7.55 7.55 0 01.76 3.51 11.39 11.39 0 01-.48 3.11 8.35 8.35 0 01-1.64 3.11 9 9 0 01-3.17 2.38 12.38 12.38 0 01-5.15.94c-.73 0-1.52 0-2.43-.06a13.24 13.24 0 01-2.67-.41 11.66 11.66 0 01-2.75-1.13 10.05 10.05 0 01-2.6-2.18 15.58 15.58 0 01-2.28-3.63 24.88 24.88 0 01-1.71-5.43v-.19h-1.09v13.48h1.3l.06-.15a2.93 2.93 0 01.53-.9 1.48 1.48 0 011.05-.28 7.29 7.29 0 012.34.46c1 .36 1.86.64 2.61.86a19.48 19.48 0 001.9.45zM51.82 141.73h6.7v19.26H38.9v-19.26h6.7v-1.32H25.7v1.32h6.69v40.8H25.7v1.32h19.9v-1.32h-6.7v-20.22h19.62v20.22h-6.7v1.32h19.9v-1.32h-6.69v-40.8h6.69v-1.32h-19.9zM89.91 182.84a19.38 19.38 0 008.49 1.89 18.31 18.31 0 008.34-2 22.89 22.89 0 006.74-5.12 24.25 24.25 0 004.51-7.25 22.79 22.79 0 00-.16-17.37 23.52 23.52 0 00-4.78-7.2 22.72 22.72 0 00-6.8-4.78 18 18 0 00-15.43 0 23.23 23.23 0 00-6.8 4.78 25.68 25.68 0 00-4.93 7.19 21.3 21.3 0 00-1.92 9 23.59 23.59 0 001.58 8.5 23.29 23.29 0 004.42 7.25 21.79 21.79 0 006.74 5.11zm-5.33-20.79a58.07 58.07 0 01.54-8 22 22 0 012.06-6.87 12.22 12.22 0 014.2-4.77 14.88 14.88 0 0114 0 12.22 12.22 0 014.2 4.77 22.17 22.17 0 012.06 6.87 58.28 58.28 0 01.54 8 54 54 0 01-.72 9.43 18.84 18.84 0 01-2.38 6.67 10.52 10.52 0 01-4.27 4 14.69 14.69 0 01-6.45 1.3 14.46 14.46 0 01-6.47-1.3 10.45 10.45 0 01-4.24-4 18.51 18.51 0 01-2.39-6.67 54.18 54.18 0 01-.68-9.41zM162.57 151.75l.05.18h1.08v-11.52h-37.16v11.52h1.08l.05-.18a19.4 19.4 0 012.41-5.69 10.19 10.19 0 012.89-3 7.64 7.64 0 012.95-1.14 19.86 19.86 0 012.68-.21h3.27v40.79h-6.7v1.34h19.9v-1.33h-6.7v-40.78h3.27a20.11 20.11 0 012.68.21 7.7 7.7 0 013 1.14 10.32 10.32 0 012.89 3 19.77 19.77 0 012.36 5.67zM171.3 182.52v1.32h37.27v-13.68h-1.12v.21a20.25 20.25 0 01-.83 3.45 14.27 14.27 0 01-2 4 12.45 12.45 0 01-3.52 3.32 9.85 9.85 0 01-5.39 1.37h-11.23v-21.3h4.66a7.07 7.07 0 013.41.73 5.83 5.83 0 012.09 1.94 10.34 10.34 0 011.24 2.83c.29 1.07.59 2.2.87 3.38v.18h1.09v-19.24h-1.09v.18a32.26 32.26 0 01-1.35 4.41 8 8 0 01-1.63 2.63 5 5 0 01-2.28 1.3 13.74 13.74 0 01-3.32.35h-3.69v-18.17h9.82a12.94 12.94 0 014.14.59 7.73 7.73 0 012.93 1.79 11.33 11.33 0 012.13 3 30.83 30.83 0 011.67 4.09l.06.16h1.07v-10.95h-35v1.32h6.69v40.79zM290.41 202.77a9.7 9.7 0 00-2.35-2.49 11.45 11.45 0 00-3.38-1.72c-.44-.15-.86-.27-1.26-.37a11.08 11.08 0 00-1.26-.22c-.44-.06-.91-.09-1.39-.12s-1.06 0-1.69 0h-9.6v.99h3.49v21h-3.49v.91h6.58c.34 0 .69 0 1 .05s.71 0 1.07 0h3a14.63 14.63 0 001.58-.13 10.74 10.74 0 001.41-.29 9.48 9.48 0 001.45-.54 11.34 11.34 0 002.59-1.52 10.54 10.54 0 003.52-5.24 13.21 13.21 0 00.51-3.79 13.79 13.79 0 00-.43-3.49 10.58 10.58 0 00-1.35-3.03zm-4.28-1.13a8.91 8.91 0 011.51 3.36 19.91 19.91 0 01.47 4.47 18.37 18.37 0 01-.39 3.82 11.38 11.38 0 01-1.38 3.4 6 6 0 01-1.43 1.71 6.58 6.58 0 01-1.73 1 7.81 7.81 0 01-2 .45 19.14 19.14 0 01-2.09.11h-1.54l-1-.08v-21.04h2.44a10.81 10.81 0 014.32.77 7 7 0 012.82 2.03zM265.56 213.58a10.48 10.48 0 01-2.24 4.61 5.32 5.32 0 01-4.15 1.65h-5.36v-21h3.49v-.91h-10.59v.91h3.49v21h-3.49v.91h19.67v-7.35h-.77zM244.3 219.41a2 2 0 01-.69.45 2.37 2.37 0 01-.77.14 1.19 1.19 0 01-1.12-.56 4.46 4.46 0 01-.56-1.39 7.11 7.11 0 01-.17-1.29l-.1-1.62c0-.61-.08-1.18-.12-1.67a8 8 0 00-.28-1.47 3.93 3.93 0 00-1.13-1.85 7.36 7.36 0 00-1.71-1.13 9.16 9.16 0 00-1.82-.59h-.18a6.51 6.51 0 001.81-.68 6 6 0 001.75-1.48 4.14 4.14 0 00.8-1.6 5.81 5.81 0 00.18-1.26 5.34 5.34 0 00-.48-2.1 5.1 5.1 0 00-1.62-2 5.75 5.75 0 00-2.76-1.22 22.74 22.74 0 00-3.29-.21h-9.22v.96h3.48v21h-3.48v.91h10.59v-.91h-3.5v-10.86h2.91a11.83 11.83 0 011.23.07 3 3 0 011.3.46 3.16 3.16 0 011.1 1.2 6 6 0 01.6 2.35l.21 2.86a11.39 11.39 0 00.35 2.13 4.06 4.06 0 00.78 1.6 3.36 3.36 0 001.43 1 6.27 6.27 0 002.17.33 6.75 6.75 0 001.16-.09 3.54 3.54 0 00.81-.22 2.86 2.86 0 00.58-.29l.1-.07.27-.2.18-.15-.6-.74zm-14.39-11.35v-9.22l.76-.05a12.5 12.5 0 012.75.14 3.55 3.55 0 011.41.61 3.48 3.48 0 011 1.4 6.76 6.76 0 01.4 2.53 8.2 8.2 0 01-.27 2.32 3.44 3.44 0 01-.75 1.4 2.47 2.47 0 01-1.14.7 5.1 5.1 0 01-1.53.21zM215.46 200.78a11.94 11.94 0 00-3.58-2.51 9.85 9.85 0 00-4.13-.92 9.39 9.39 0 00-4 .92 12 12 0 00-3.57 2.51 13.2 13.2 0 00-2.59 3.78 11.09 11.09 0 00-1 4.74 12.27 12.27 0 00.84 4.47 12 12 0 002.32 3.81 11.54 11.54 0 003.54 2.65 10.13 10.13 0 004.47 1 9.67 9.67 0 004.39-1 11.91 11.91 0 003.54-2.69 13 13 0 002.37-3.81 11.51 11.51 0 00.87-4.4 11.75 11.75 0 00-1-4.73 12.71 12.71 0 00-2.47-3.82zm-13.16 16.85a9.62 9.62 0 01-1.23-3.44 27.83 27.83 0 01-.37-4.89 30.6 30.6 0 01.28-4.16 11.35 11.35 0 011.06-3.54 6.33 6.33 0 012.15-2.43 7.61 7.61 0 017.18 0 6.25 6.25 0 012.15 2.43 11.52 11.52 0 011.06 3.54 31.07 31.07 0 01.29 4.16 28.16 28.16 0 01-.38 4.89 9.92 9.92 0 01-1.22 3.44 5.34 5.34 0 01-2.19 2 8.51 8.51 0 01-6.62 0 5.27 5.27 0 01-2.16-2zM149.3 213.61a10.75 10.75 0 01-.42 1.78 7.35 7.35 0 01-1 2.05 6.51 6.51 0 01-1.8 1.7 5 5 0 01-2.75.7h-5.7v-10.86h2.31a3.55 3.55 0 011.72.36 3 3 0 011.05 1 5.44 5.44 0 01.63 1.45c.15.56.31 1.15.45 1.75l.05.18h.76v-10.27h-.76l-.05.18a17.48 17.48 0 01-.7 2.28 4.2 4.2 0 01-.82 1.33 2.5 2.5 0 01-1.14.64 6.59 6.59 0 01-1.7.18h-1.8v-9.22h5a6.52 6.52 0 012.12.3 4.06 4.06 0 011.48.91 6.17 6.17 0 011.09 1.5 15.35 15.35 0 01.86 2.12l.06.16h.75v-5.9h-18.55v.91h3.49v21h-3.49v.91h19.63v-7.35h-.77zM187.35 198.84h3.26l-6.29 17.36-6.16-17.36h3.31v-.92h-9.89v.92h2.71l2.3 6.39-3.96 10.97-6.16-17.36h3.17v-.92h-9.93v.92h2.9l8 22.39h1.18l5.34-14.71 5.27 14.71h1.11l8.14-22.39h2.89v-.92h-7.19zM117.18 198.84h3.49v9.79h-9.98v-9.79h3.48v-.92h-10.59v.92h3.49v21h-3.49v.91h10.59v-.91h-3.48v-10.3h9.98v10.3h-3.49v.91h10.59v-.91h-3.49v-21h3.49v-.92h-10.59zM81.1 204.14h.77v-.17a9.9 9.9 0 011.24-2.93 5.23 5.23 0 011.47-1.52 3.87 3.87 0 011.49-.58 9.94 9.94 0 011.38-.11h1.59v21h-3.49v.91h10.58v-.9h-3.48v-21h1.65a10.06 10.06 0 011.38.11 3.87 3.87 0 011.49.58 5.23 5.23 0 011.47 1.52 10 10 0 011.24 2.93l.05.17h.76v-6.22H81.1zM51.48 198.84h3.49v21h-3.49v.91h10.59v-.91h-3.49v-10.39h2.31a3.6 3.6 0 011.72.36 2.83 2.83 0 011.05 1 5.27 5.27 0 01.63 1.44c.16.56.31 1.14.45 1.75l.05.18h.77v-10.26h-.77l-.05.18a16.14 16.14 0 01-.7 2.28 4 4 0 01-.82 1.33 2.36 2.36 0 01-1.14.64 6.79 6.79 0 01-1.69.19h-1.81v-9.7h5a6.48 6.48 0 012.12.3 3.93 3.93 0 011.48.91 5.79 5.79 0 011.09 1.5 16.56 16.56 0 01.86 2.12l.06.16h.75v-5.9H51.48zM44.16 200.78a12 12 0 00-3.57-2.51 9.49 9.49 0 00-8.13 0 12.23 12.23 0 00-3.57 2.51 13.2 13.2 0 00-2.59 3.78 11.2 11.2 0 00-1 4.74 12.47 12.47 0 00.83 4.47 12.18 12.18 0 002.32 3.81 11.62 11.62 0 003.55 2.65 10.13 10.13 0 004.47 1 9.7 9.7 0 004.39-1 12.3 12.3 0 003.54-2.69 13.07 13.07 0 002.37-3.81 12 12 0 00-.08-9.13 12.55 12.55 0 00-2.53-3.82zm-13.19 16.85a9.67 9.67 0 01-1.22-3.44 28 28 0 01-.38-4.89 31.13 31.13 0 01.28-4.16 11.46 11.46 0 011.07-3.54 6.3 6.3 0 012.14-2.43 7.61 7.61 0 017.18 0 6.27 6.27 0 012.16 2.43 11.82 11.82 0 011.1 3.54 30.72 30.72 0 01.27 4.16 27.29 27.29 0 01-.37 4.89 9.82 9.82 0 01-1.22 3.44 5.31 5.31 0 01-2.18 2 8.51 8.51 0 01-6.62 0 5.29 5.29 0 01-2.21-2zM291.96 199.03h.06a2.14 2.14 0 01.17-.42.94.94 0 01.2-.26.61.61 0 01.27-.13 1.66 1.66 0 01.33 0h.18v3.46h-.46v.07h1.66v-.07h-.46v-3.46h.18a1.67 1.67 0 01.34 0 .53.53 0 01.26.13 1.18 1.18 0 01.21.26 2.18 2.18 0 01.16.42h.07v-.93h-3.17zM297.68 200.63l-.88-2.52h-1.3v.07h.46v3.47h-.46v.07h1.01v-.07h-.46v-3.47h.01l1.24 3.54h.09l1.25-3.54v3.47h-.45v.07h1.66v-.07h-.47v-3.47h.47v-.07h-1.28zM292.19 55.06h-1.09v.18a20.08 20.08 0 01-4.35 8.94 10.49 10.49 0 01-8.15 3.24h-10.5V26.63h6.69v-1.32h-19.9v1.32h6.7v40.79h-6.7v1.32h37.34zM237.59 55.06h-1.09v.18a20.3 20.3 0 01-4.35 8.94 10.52 10.52 0 01-8.16 3.24h-10.5V26.63h6.7v-1.32H200.3v1.32h6.7v40.79h-6.7v1.32h37.34zM27.06 68.6a2.93 2.93 0 01.53-.9 1.51 1.51 0 011.06-.28 7.38 7.38 0 012.33.46c1.05.37 1.88.64 2.61.85a17.6 17.6 0 001.89.46c.57.1 1.14.2 1.7.27a14.5 14.5 0 001.84.16h2.24a16.94 16.94 0 006.49-1.19 15.34 15.34 0 004.9-3.19 14 14 0 003.1-4.61 14.38 14.38 0 001.07-5.48 10.13 10.13 0 00-1.21-5.2 10.61 10.61 0 00-2.9-3.27 13.71 13.71 0 00-3.47-1.84c-1.2-.41-2.15-.73-2.9-1l-7.3-2.29c-1.06-.33-2.09-.71-3.09-1.11a12.81 12.81 0 01-2.72-1.54 7.44 7.44 0 01-2-2.22 6.19 6.19 0 01-.76-3.18 7.15 7.15 0 011-3.85 8 8 0 012.44-2.46 9.81 9.81 0 013.18-1.33 14.79 14.79 0 013.15-.39 10.4 10.4 0 014.45.91 10.55 10.55 0 013.28 2.43 12.66 12.66 0 012.21 3.49 17.53 17.53 0 011.22 4.14v.2h1.16v-11.4h-1.22l-.07.12a4.11 4.11 0 01-.69 1 1.65 1.65 0 01-.92.16 3.71 3.71 0 01-1.55-.34l-.61-.27-1.24-.55a16.64 16.64 0 00-2.48-.83 14.91 14.91 0 00-3.58-.36 14.69 14.69 0 00-5.43 1 13 13 0 00-4.27 2.7 12 12 0 00-2.77 4.1 13.24 13.24 0 00-1 5.12 9.18 9.18 0 002.58 6.81 18.05 18.05 0 007.48 4l6.95 2.11a17 17 0 012.65 1 10.94 10.94 0 012.57 1.68 8.57 8.57 0 011.94 2.5 7.54 7.54 0 01.75 3.5 11.47 11.47 0 01-.47 3.11 8.52 8.52 0 01-1.65 3.11 8.88 8.88 0 01-3.17 2.38 12.28 12.28 0 01-5.15.94c-.84 0-1.63 0-2.43-.06a14.11 14.11 0 01-2.67-.41 11.62 11.62 0 01-2.75-1.12 10.14 10.14 0 01-2.59-2.19 15.9 15.9 0 01-2.29-3.62 24.45 24.45 0 01-1.7-5.44v-.19H25.7v13.54H27zM86.13 67.44h-6.67V28.27l17.51 40.91 17.56-41.33v39.59h-6.66v1.31h19.8v-1.31h-6.66V26.85h6.66v-1.31h-13.65L99.67 57.62 85.32 25.54H71.43v1.31h6.66v40.59h-6.66v1.31h14.7zM153.3 67.43h-6.56l6.13-16.21h16.93l6.13 16.21h-6.56v1.32h19v-1.32h-5.41l-16.27-42.82-.06-.16h-5.1l-16.21 43h-5.36v1.32h13.34zm.07-17.52l8-21.11 8 21.11z"/></symbol></svg>