<svg xmlns="http://www.w3.org/2000/svg" viewBox="0 0 2100 2100"><title>honeymoon</title><g id="Draw_Layer" data-name="Draw Layer"><path d="M756.38,118.07q-4.1,1.13-8.18,2.31a1.12,1.12,0,0,0-1-.18v0a698.76,698.76,0,0,0-76.65,28.37,22.33,22.33,0,0,0-4,1.67c-5.81,2.56-11.56,5.24-17.29,8-11,5.27-21.89,10.87-32.66,16.66q-9,4.81-17.86,9.74c-5.65,3.13-11.2,6.44-16.79,9.69-4.77,2.77-9.48,5.62-14.27,8.36s-9.61,6-14.64,8.62l-2.62,1.66c-1.75,1.1-3.49,2.22-5.23,3.34q-3.91,2.52-7.79,5.07-7.38,4.84-14.72,9.76C512.9,237.7,503.4,244.82,494,252c-2.08,1.56-4.17,3.1-6.29,4.62s-4.26,3.33-6.38,5c-4.8,3.79-9.53,7.66-14.27,11.52-7.88,6.4-15.62,12.94-23.39,19.47a8.19,8.19,0,0,0-2.26,1.57h0c-11.79,10.16-23.37,20.55-34.61,31.33-6.43,6.18-12.65,12.57-18.81,19q-4.37,4.56-8.68,9.17c-3.26,3.48-6.37,7.12-9.54,10.67-5.56,6.22-11,12.53-16.44,18.86-6.14,7.15-12,14.52-18,21.83-11.06,13.58-21.44,27.65-32,41.65-10,13.28-19.2,27.18-28.13,41.19-10,15.7-19.46,31.73-28.53,48C238.76,550,231.23,564.46,224,579c-7.39,15-14.24,30.21-20.62,45.63-21.18,49.57-38.6,100.84-50.93,153.34q-4.53,19.26-8.31,38.69c-2.51,12.78-4.76,25.6-7,38.43-1,5.89-2,11.81-3,17.71q-1.33,7.88-2.38,15.78-1.16,8.85-2.1,17.69c-.7,6.61-1.16,13.23-1.6,19.85-.87,13-1.39,26.05-1.71,39.09-.32,12.64-.52,25.28-.32,37.92.38,24.53,1.15,49.11,3.41,73.55,1.19,12.81,2.72,25.59,4.32,38.36.67,5.39,1.22,10.8,2,16.18q1.36,9.71,3,19.36,1.59,9.11,3.33,18.2c1.2,6.35,2.6,12.69,3.55,19.08.44,3,1.23,5.93,1.85,8.85s1.28,5.92,1.93,8.87c1.21,5.46,2.34,10.94,3.46,16.42a10.38,10.38,0,0,0,.47,3.34q4.44,18.6,9.92,36.91c1.73,5.82,3.67,11.6,5.56,17.37,2,6.16,4.13,12.29,6.29,18.41a12.18,12.18,0,0,0,.54,1.61c2.63,7.59,5.24,15.19,8,22.73q5.07,13.81,10.47,27.49c3,7.72,6.14,15.43,9.42,23,1.79,4.15,3.72,8.25,5.6,12.36l1.41,3a14.59,14.59,0,0,0,1.76,3.56c5.16,11,10.44,21.95,15.93,32.79,6.34,12.52,13.23,24.72,20.3,36.85,7.29,12.49,15,24.75,22.62,37,3.43,5.49,6.91,10.93,10.4,16.38,4,6.24,8.27,12.32,12.52,18.4q12,17.21,24.89,33.81c9.13,11.87,18.73,23.39,28.46,34.76q7,8.2,14.16,16.3c.94,1.16,1.89,2.33,2.85,3.49q2.17,2.47,4.36,4.93c2.78,3.13,5.62,6.21,8.45,9.28,11.05,12,22.64,23.47,34.43,34.7a11.53,11.53,0,0,0,1.33,1.2q15.9,15.17,32.56,29.48c6.31,5.45,12.78,10.71,19.26,16q5.33,4.3,10.69,8.56c2.68,2.12,5.35,4.31,8.13,6.31q15.65,12.21,31.75,23.76c12.13,8.67,24.57,16.92,37.08,25q33.54,21.73,69,40.33c6.3,3.33,12.65,6.58,19,9.79,5.27,2.65,10.63,5.09,15.94,7.67,12.88,6.26,25.93,12.13,39.1,17.71q19.1,8.1,38.5,15.4c13.58,5.09,27.31,9.74,41.1,14.17,5.69,1.82,11.44,3.4,17.15,5.13,6.86,2.06,13.76,4,20.66,5.92,13.88,3.83,27.88,7.23,41.94,10.36,26.31,5.88,52.87,10.46,79.59,14.05,12.51,1.69,25.06,3,37.62,4.18,13.66,1.26,27.31,2.4,41,3.07,12.05.61,24.11,1.09,36.18,1.25,13.48.18,27,0,40.46-.29,27-.65,54-2.83,80.83-5.87,25.42-2.88,50.73-6.94,75.82-11.91q18.22-3.6,36.31-7.88c13.54-3.18,27-6.85,40.33-10.67,12.11-3.45,24.1-7.35,36.07-11.26,13.11-4.28,26.05-9,38.92-14,11.66-4.47,23.17-9.31,34.63-14.27q18.74-8.1,37.1-17,33.84-16.36,66.24-35.41A960.23,960.23,0,0,0,1660.37,1714a916,916,0,0,0,76.4-71l.34-.33,1.78-1.86c.09-.1.17-.2.26-.29,13.22-14,26.14-28.32,38.56-43.06q19.05-22.61,36.71-46.33,17.08-22.83,32.61-46.75c10.91-16.77,21.14-34,31.07-51.33.11-.15.2-.3.3-.46q2.61-4.66,5.19-9.34c2.86-5.2,5.64-10.45,8.41-15.7,5.4-10.24,10.56-20.62,15.59-31a4.93,4.93,0,0,0,.44-.77c4.62-9.63,9.06-19.36,13.48-29.1,4.53-10,8.41-20.3,12.07-30.66a5.9,5.9,0,0,0,.3-2.34q.82-2.41,1.63-4.84l-.07,0a6.57,6.57,0,0,0,.25-2.73q.76-2.41,1.56-4.83a5.12,5.12,0,0,0-.08-3.35l.84-3a4.15,4.15,0,0,0-.35-3.08c2.24-8.61,4.31-17.26,6.13-26,0,0,0,0,0,0-3.78,8-7.54,16-11.36,24a4.28,4.28,0,0,0-2.06,1.77h0v0a3.76,3.76,0,0,0-.32.67l-1.17,2.49a6,6,0,0,0-2,2l0,0a2.44,2.44,0,0,1-.1.24,6.29,6.29,0,0,0-.43,1q-.8,1.83-1.62,3.66a5,5,0,0,0-1.57,1.86q-1.11,2.51-2.24,5a8.11,8.11,0,0,0-1.16,1.56l0,0-.31.7-.2.45c-2.06,4.66-4.15,9.31-6.22,14-2.49,5.57-4.85,11.19-7.21,16.81-3.71,8.6-7.59,17.12-11.56,25.6a12.06,12.06,0,0,0-.5,1.19q-6.62,13.9-13.69,27.57-4.1,7.92-8.36,15.73c-1.71,3.13-3.43,6.24-5.17,9.36-.48.88-1.39,2.32-2,3.65-11.51,20.55-24,40.51-37.11,60.08q-18.63,27.8-39.08,54.31c-19,24.27-39.17,47.66-60.54,69.91l-.08.09-1.79,1.85-.09.09q-12.39,12.86-25.23,25.25c-7.69,7.41-15.55,14.62-23.47,21.76-16.68,15-34,29.39-51.67,43.19-6.35,4.82-12.7,9.65-19.15,14.35-8.21,6-16.56,11.78-24.94,17.52-16.55,11.31-33.59,21.92-50.87,32.06a925.75,925.75,0,0,1-105.07,52.75q-29.4,12.23-59.5,22.61c-9.54,3.28-19.11,6.47-28.75,9.45-10.68,3.31-21.44,6.36-32.21,9.32-10.06,2.77-20.2,5.25-30.33,7.7-10.3,2.5-20.67,4.58-31,6.84s-20.57,4-30.88,5.72c-9,1.54-18.11,2.88-27.2,4.12a929.88,929.88,0,0,1-118,8.2,865.54,865.54,0,0,1-115.47-7.08c-9.66-1.33-19.31-2.72-28.93-4.29-10.12-1.66-20.2-3.56-30.27-5.49-20.36-3.91-40.54-8.76-60.56-14.12q-15.58-4.18-31-8.87c-10.28-3.1-20.45-6.61-30.61-10.09-20.95-7.15-41.55-15.25-62-23.73q-12.91-5.55-25.7-11.38-6.23-2.84-12.39-5.77c-4.28-2-8.49-4.16-12.71-6.29q-26.16-13.15-51.47-27.87c-17.22-10-34.06-20.56-50.63-31.56-8.66-5.75-17.1-11.83-25.55-17.89-9.24-6.63-18.31-13.5-27.33-20.42-25.48-19.82-49.6-41.41-72.95-63.69-.19-.22-.39-.42-.6-.62-16.25-15.81-32-32.15-47.36-48.8l-3.14-3.19c-2-2-3.84-4.31-5.73-6.46-3.5-4-6.92-8-10.32-12-6.56-7.82-12.95-15.79-19.23-23.83-1.85-2.48-3.75-4.92-5.65-7.36q-15.07-19.62-29.13-40-6.94-10.11-13.81-20.26c-4.68-6.9-9.05-14-13.39-21.13-9.16-15-17.52-30.52-25.76-46.06-7.46-14.1-14.76-28.26-21.54-42.7-.62-1.82-1.55-3.55-2.35-5.32-2.35-5.15-4.59-10.33-6.89-15.49-3.7-8.28-7.38-16.56-10.92-24.9-6-14.29-11.46-28.81-16.47-43.45l-.18-.51c-7.87-23.93-14.83-48.14-21.47-72.44a11.58,11.58,0,0,0-.89-2.25c-1.84-6.65-3.79-13.27-5.4-20q-1.75-7.32-3.36-14.7-.77-2.58-1.27-5.23-1.16-5.1-2.16-10.24c-1.89-9.68-3.56-19.4-5.09-29.14-1.58-10-3.36-20-4.74-30-1.33-10.28-2.37-20.59-3.29-30.92q-.67-7.5-1.25-15c-.43-5.43-.92-10.84-1.27-16.28-.63-9.63-1.06-19.27-1.38-28.92-.37-11.3-.12-22.62-.16-33.93,0-9.92.44-19.84,1-29.75q.93-18,2.54-35.89c1.86-20.55,3.44-41.12,6-61.6q3.51-24.77,8.55-49.24c4.12-20.07,9.14-40,14.65-59.69q8-28.62,17.74-56.7c6.24-17.85,13.13-35.45,20.42-52.89s15.62-34.48,24-51.42q13.25-26.67,28.31-52.33,8-13.63,16.4-27c5.69-9,11.68-17.89,17.53-26.84,5.19-7.95,10.79-15.65,16.17-23.46,5.67-8.24,11.74-16.22,17.83-24.16q5.49-7.08,11.05-14.11c5.12-6.44,10.47-12.7,15.82-18.95,4.64-5.43,9.32-10.82,14.1-16.13,5.49-6.1,11.17-12,16.77-18,9.87-10.57,20.08-20.83,30.32-31q14-13.93,28.4-27.4a7.23,7.23,0,0,0,1.28-1.56c7.58-7.06,15.37-13.88,23.29-20.56,4.66-3.94,9.42-7.77,14.19-11.6,5.13-4.11,10.21-8.28,15.4-12.33,8.69-6.67,17.48-13.19,26.27-19.74,5.1-3.8,10.29-7.49,15.5-11.14q3.82-2.67,7.67-5.3c1.73-1.18,3.33-2.35,4.94-3.62,3.87-2.62,7.78-5.19,11.63-7.84,4.55-3.13,9.23-6.05,13.91-9,10.21-6.37,20.62-12.49,31.13-18.36,10-5.58,20.12-10.88,30.27-16.16,5.49-2.86,11-5.65,16.54-8.42q4.24-2.13,8.52-4.23a2.67,2.67,0,0,0,.48-.32q18.6-9.14,37.46-17.71c12.07-5.45,24.24-10.69,36.41-15.89a.94.94,0,0,0,.52-.71l7.81-3.38s0,0,0,0Z"/><path d="M801.38,97.9l-6,3.16a.45.45,0,0,0-.5,0q-26.22,14.1-51.5,29.87a1.71,1.71,0,0,0-1,.32l-4.66,3a2.3,2.3,0,0,0-1.14.37q-5.31,3.47-10.58,7l-.62.26-3.7,2.49c-3.07,2.07-6.16,4.11-9.22,6.19s-6.13,4.13-9.2,6.17c-1.6,1.06-3.17,2.18-4.73,3.3a5.19,5.19,0,0,0-.79.38l0,0c-1.49,1.11-3,2.24-4.46,3.36a4.24,4.24,0,0,0-1,.46l0,0-4.55,3.48a7.12,7.12,0,0,0-1.84,1.15l-4,3.11a8.65,8.65,0,0,0-1.34.92q-4.51,3.59-9,7.21l.12-.09c-4,3.11-7.92,6.35-11.86,9.55Q653,195,646.26,200.6a8.24,8.24,0,0,0-2,1.32l-3.9,3.44a5.94,5.94,0,0,0-1.14.87q-1.86,1.65-3.7,3.32a6.4,6.4,0,0,0-1.33,1l-3.2,2.9a6.89,6.89,0,0,0-1.91,1.34q-3.71,3.33-7.39,6.7a6.73,6.73,0,0,0-1.26,1c-1.52,1.34-3,2.72-4.48,4.1q-4.83,4.5-9.51,9.16-9,9-17.61,18.17a7.68,7.68,0,0,0-.59.69q-4.18,4.49-8.32,9c-.17.18-.32.36-.47.55q-6.76,7.45-13.37,15.06c-5,5.78-9.89,11.67-14.78,17.54l-.68.82-.44.58q-6.41,7.84-12.62,15.83l-1.18,1.52,0,.07q-6.36,8.19-12.56,16.51c-5,6.7-10,13.44-14.65,20.36a4.07,4.07,0,0,0-.44.76q-3.7,5.39-7.3,10.85a5,5,0,0,0-.54,1q-13.86,21.18-26.74,43c-.06.1-.12.2-.17.3q-3.6,6.13-7.12,12.32c-.09.16-.17.32-.25.49q-12,21.25-22.71,43.21c-.12.26-.24.51-.35.77q-2.29,4.66-4.54,9.37c-.06.1-.12.2-.17.3-4.74,9.88-9.23,19.87-13.57,29.94-3.49,8.11-6.75,16.32-10,24.54a7.22,7.22,0,0,0-.6,1.46c-3.71,9.44-7.31,18.93-10.64,28.5s-6.44,19.16-9.45,28.81a5.69,5.69,0,0,0-.18.68q-3.18,10.26-6.12,20.59c-2.06,7.26-3.95,14.56-5.81,21.87-1.7,6.68-3.19,13.43-4.7,20.16q-2,9-3.9,17.94a4.32,4.32,0,0,0-.19.68q-3.22,15.16-5.84,30.45c-1.81,10.63-3.31,21.32-4.72,32-2.7,20.41-4.87,40.9-6.14,61.44-.72,11.59-1.14,23.19-1.49,34.79-.29,9.77-.37,19.56-.15,29.33.26,11.34.59,22.67,1.2,34q.42,7.95.91,15.91c.21,3.4.4,6.79.62,10.19a4.34,4.34,0,0,0,0,1.19c2,23.55,5.25,46.94,9.16,70.25q5.76,34.29,14.2,68.08,0,.3.12.6c1.36,5.32,2.71,10.65,4.18,15.94,1.66,6,3.42,12,5.21,18,3.16,10.56,6.57,21,10.1,31.49,7.56,22.34,16.13,44.34,25.47,66a6.65,6.65,0,0,0,.74,1.8q8.71,19.8,18.29,39.19c2.67,5.42,5.45,10.78,8.26,16.13,3,5.76,6,11.53,9.14,17.26a6.82,6.82,0,0,0,.35.72q14.46,26.39,30.83,51.62a3.38,3.38,0,0,0,.24.41c10.87,16.7,22.36,33,34.31,48.93a7.41,7.41,0,0,0,1.31,1.8q19.77,25.88,41.19,50.45a8.57,8.57,0,0,0,.9,1.11c8.17,9.19,16.46,18.23,25,27.08,6.9,7.14,14,14.07,21.19,20.94l.14.13c18.57,18,38.07,35,58.27,51.09,10.45,8.35,21,16.52,31.86,24.39,12.36,9,25,17.59,37.8,25.93,11.5,7.5,23.11,14.78,35,21.7,12.65,7.38,25.52,14.34,38.53,21.08a875.39,875.39,0,0,0,80.39,36.39c1.32.68,3.31,1.33,4.5,1.79,2.81,1.1,5.64,2.17,8.45,3.24,5.27,2,10.59,3.87,15.89,5.77,10.65,3.81,21.41,7.25,32.17,10.7,20.44,6.56,41.24,11.93,62.13,16.84,11.4,2.69,22.92,5,34.43,7.13,11.35,2.15,22.76,4,34.18,5.72,21,3.15,42.12,5.43,63.3,7,22.43,1.69,44.91,2.32,67.39,2.22,21.49-.09,43-1.08,64.37-2.82q32.67-2.65,65.07-8,16.41-2.71,32.71-5.92c11.77-2.34,23.48-5,35.14-7.84q17.22-4.23,34.28-9c12.16-3.44,24.21-7.27,36.19-11.29,6.18-2.08,12.29-4.3,18.42-6.49s12.15-4.46,18.17-6.8q17.34-6.75,34.39-14.22a6.79,6.79,0,0,0,1.62-.7q13.41-5.9,26.65-12.18c8.44-4,16.76-8.22,25.06-12.5,17.22-8.89,34-18.52,50.67-28.46,7.52-4.49,14.93-9.18,22.28-13.94q11.92-7.74,23.56-15.9,18.69-13.1,36.65-27.15a7.43,7.43,0,0,0,1.52-1.17q20.61-16.11,40.25-33.43c.21-.16.42-.33.63-.52q2.05-1.82,4.09-3.66l.16-.15q2.73-2.46,5.43-4.94l.14-.13,3-2.81.21-.21q19.9-18.51,38.6-38.25c.17-.15.33-.31.49-.48l4-4.24a6.92,6.92,0,0,0,.56-.53q2-2.08,3.89-4.19a5.17,5.17,0,0,0,.64-.6c6-6.46,11.83-13,17.57-19.63q6.2-7.18,12.29-14.45a4.73,4.73,0,0,0,.54-.56q3.12-3.81,6.22-7.66l1.23-1.6.05-.08q2.16-2.71,4.29-5.45l.2-.25a8,8,0,0,0,1.53-1.83c5-6.35,9.9-12.77,14.63-19.32,5.07-7,10-14.17,14.9-21.29l.15-.23c1-1.5,2.08-3,3.11-4.5.08-.11.16-.23.23-.35.37-.56.75-1.11,1.13-1.66.17-.22.34-.45.5-.69q1.26-1.85,2.5-3.71a10.76,10.76,0,0,0,1.34-1.64c.25-.39.51-.77.76-1.15l.09-.14.08-.12,2.23-3.39a5.58,5.58,0,0,0,.35-.58q5.36-8.34,10.32-16.94c2.19-3.78,4.28-7.63,6.39-11.47,1.19-2.15,2.49-4.25,3.63-6.43a8.59,8.59,0,0,0,.4-.87,5.41,5.41,0,0,0,.43-1.08l1.66-3.26a6.7,6.7,0,0,0,.8-3.21c.47-1,.94-1.91,1.4-2.86a5.22,5.22,0,0,0,.6-3.24l1.59-3.32a3.71,3.71,0,0,0,.36-2.69c0-.1-.06-.19-.1-.29l1.22-2.7a2.2,2.2,0,0,0-.1-2.16c.55-1.25,1.09-2.5,1.59-3.76a.41.41,0,0,0-.36-.56.37.37,0,0,0-.23,0,.45.45,0,0,0-.26.19h0c-.77,1.09-1.52,2.19-2.27,3.29a1.87,1.87,0,0,0-1.82,1l-1.71,2.53a3.09,3.09,0,0,0-2.33,1.65c-.68,1-1.38,2.09-2.07,3.13a4.19,4.19,0,0,0-2.43,2.08c-.6.88-1.19,1.76-1.78,2.65a5.17,5.17,0,0,0-2.38,2.29l-2.09,3.1a5.64,5.64,0,0,0-1.26,1.59c-1,1.45-1.86,2.94-2.78,4.4-2.35,3.7-4.82,7.33-7.31,10.94q-8,11.74-15.94,23.61a6.55,6.55,0,0,0-.64,1.3c-1,1.42-1.91,2.83-2.87,4.25l-.22.35-1.34,2c-.09.13-.19.26-.28.4l-2.62,3.8a9,9,0,0,0-.65.93c-6.73,9.59-13.84,18.9-21,28.2-.75.88-1.47,1.88-2.16,2.78l-2.9,3.78a6.73,6.73,0,0,0-.82,1.07l-.93,1.21c-.38.49-.76,1-1.13,1.46l-1.24,1.59c0,.09-.09.17-.13.25-1.52,1.89-3,3.79-4.56,5.67l-.21.21q-3.11,3.84-6.24,7.65c-.41.53-.83,1.06-1.24,1.6v0c-2.8,3.44-5.63,6.87-8.51,10.24q-3.57,4.17-7.19,8.29c-1.71,1.95-3.48,3.85-5.09,5.89l.6-.78q-4.27,4.88-8.65,9.67c-.23.25-.44.51-.64.77l-3.78,4.13c-.17.18-.33.36-.48.55q-2,2.15-4,4.28-.23.24-.42.48c-5.91,6.24-11.88,12.41-18,18.46-7,7-14.23,13.8-21.5,20.54q-6.09,5.63-12.26,11.15l-.25.23q-8.1,7.27-16.35,14.36c-6.46,5.55-13.08,10.92-19.74,16.24a7.3,7.3,0,0,0-.88.7l-3.39,2.69h0q-2.78,2.18-5.56,4.34c-12.22,9.32-24.62,18.39-37.29,27.1-14.31,9.83-28.91,19.19-43.72,28.23-15.4,9.39-31.27,18-47.28,26.3-7.48,3.87-15.07,7.56-22.66,11.22-8.18,4-16.46,7.69-24.79,11.34a7.41,7.41,0,0,0-1.23.54l-.65.28,0,0-3.19,1.36q-12.11,5.09-24.31,9.91c-9.45,3.71-19,7.19-28.56,10.58-9.19,3.24-18.51,6.2-27.81,9.11q-14.76,4.61-29.66,8.73c-19,5.29-38.23,9.74-57.56,13.67-9.41,1.91-18.85,3.58-28.32,5.2-9,1.54-18.07,2.8-27.13,4-18.82,2.46-37.72,4.42-56.66,5.66q-29,1.89-58,1.93c-19.77,0-39.54-.88-59.26-2.19-18.2-1.2-36.33-3.32-54.42-5.66q-26.77-3.73-53.25-9.17c-18.63-3.85-37.09-8.44-55.44-13.44-16.53-4.49-32.89-9.6-49.07-15.16q-26.79-9.2-52.92-20.17l.88.37-4.35-1.83c-17.18-7.29-34.06-15.32-50.73-23.71s-33.07-17.54-49.16-27.06q-11.65-6.87-23.12-14c-7.55-4.7-15-9.62-22.34-14.59-7.75-5.22-15.35-10.69-22.94-16.16s-14.9-11-22.25-16.69c-23.23-18-45.34-37.5-66.69-57.71q-23.88-23.13-46.19-47.85a5,5,0,0,0-.52-.51c-5.77-6.37-11.47-12.81-17-19.38q-9.72-11.5-18.93-23.44l-4.76-6.21c-.4-.52-.8-1-1.19-1.55l-.17-.16q-8.11-10.67-15.91-21.55c-6-8.47-11.85-17.11-17.58-25.8l-.23-.33q-16.5-25.18-31.34-51.4c-.11-.21-.24-.41-.37-.61q-4.2-7.43-8.26-14.93c-3.28-6-6.35-12.23-9.44-18.38-6-11.82-11.55-23.84-16.88-36a7.53,7.53,0,0,0-.38-.88c-.35-.78-.69-1.57-1-2.36l-.07-.1q-2.52-5.78-5-11.59-5.65-13.6-10.87-27.4c-4-10.71-7.8-21.52-11.45-32.36-3-9-5.76-18.07-8.44-27.17q-4.56-15.56-8.58-31.26a5.76,5.76,0,0,0-.18-.59c-.76-2.94-1.53-5.88-2.26-8.82q-1.53-6.21-3-12.43c-2-8.68-3.82-17.42-5.55-26.16q-2.49-12.54-4.59-25.14C378,974.1,377,966.65,376,959.2q-2.58-19.87-4.4-39.82c-.08-.6-.16-1.2-.25-1.8,0-.12-.06-.23-.1-.35-.49-4.59-.94-9.18-1.29-13.78-.64-8.37-1.09-16.74-1.43-25.12-.64-15.76-.77-31.55-.6-47.32.16-16.46.94-32.9,2.11-49.32,1.07-15.13,2.5-30.21,4.46-45.25,2.88-21.17,6.55-42.23,10.8-63.17.06-.29.1-.57.13-.85,2.66-12.7,5.74-25.29,9.13-37.81,2-7.28,4-14.55,6.08-21.79q3-10.37,6.25-20.65c.07-.19.14-.38.2-.58q9.3-28.9,20.46-57.2v-.09q2.35-5.89,4.81-11.75,8.75-20.55,18.24-40.76l0-.07q2.4-5,4.84-10.05a2.11,2.11,0,0,0,.18-.33q11-21.93,23.05-43.27l.17-.28q3.69-6.46,7.46-12.9c4.22-7.13,8.52-14.2,13-21.17s9.13-14.07,13.87-21a12.79,12.79,0,0,0,.94-1.2q3.48-5,7-10a7.25,7.25,0,0,0,1-1.39c4-5.6,8-11.25,12-16.84,4.33-6,8.82-11.88,13.33-17.74l.6-.76.08-.09q6.36-8.1,12.87-16.07c.09-.09.17-.19.25-.28,9.29-11.5,19.06-22.64,29-33.58l.33-.34q4.23-4.62,8.53-9.19c.16-.14.32-.29.47-.45q8.69-9.19,17.57-18.2c2.58-2.6,5.17-5.22,7.74-7.83q2.31-2.36,4.65-4.71a19.12,19.12,0,0,0,1.8-2q3.73-3.71,7.5-7.38a6.49,6.49,0,0,0,1.14-1.49l3.46-3.27a6.06,6.06,0,0,0,.78-.91l4-3.68a5.74,5.74,0,0,0,.7-.78c1.36-1.26,2.74-2.51,4.11-3.76a4.53,4.53,0,0,0,1.07-1.37q7.41-7,15-13.73c6.08-5.37,12.32-10.55,18.64-15.65a4.29,4.29,0,0,0,.51-.53q2.29-1.86,4.61-3.7a3.39,3.39,0,0,0,.75-.88q2.14-1.71,4.31-3.4a3,3,0,0,0,.75-.91c1.43-1.13,2.88-2.24,4.32-3.36a2.85,2.85,0,0,0,.68-.81c1.44-1.18,2.89-2.34,4.34-3.5,1.73-1.38,3.4-2.83,5.1-4.23s3.2-2.5,4.8-3.74l-.24.19c3-2.28,5.91-4.53,8.91-6.74a13.23,13.23,0,0,0,2.6-2.07q5-3.58,10.05-7.15a2.84,2.84,0,0,0,1-1.06l4.35-3.06a2.79,2.79,0,0,0,.78-.83c7.63-5.39,15.35-10.67,23.19-15.77,8.8-5.72,17.73-11.22,26.73-16.62a.43.43,0,0,0,.23-.45l5.8-3.46s0,0,0,0ZM548.11,324.78l-.51.66.51-.66Zm-.79,1-.33.42.33-.42ZM432,523.34l-.19.45.19-.45ZM695.37,1513l.5.38-.5-.38Z"/><path d="M721.47,148.29q-11,7.44-21.68,15.26l-.11,0v0q-14.4,10.58-28.34,21.74C661.73,193,652.33,201,643,209a20.8,20.8,0,0,0-2.36,2c-1.77,1.57-3.53,3.16-5.28,4.75q-5.34,4.81-10.59,9.73c-7.09,6.59-14,13.42-20.83,20.26-3,3-5.83,6-8.71,9s-5.67,5.87-8.45,8.85q-10.29,11-20.24,22.39c-12.17,13.86-23.71,28.27-34.85,43-11.39,15-22.18,30.47-32.59,46.18q-15.47,23.32-29.36,47.64-14.46,25.31-27,51.63c-8.09,16.8-15.51,33.94-22.4,51.27-3.42,8.59-6.79,17.21-10,25.89q-5.08,13.77-9.75,27.69C395,595.89,390,612.8,385.52,629.83q-3.28,12.48-6.22,25c-.9,3.86-1.83,7.72-2.67,11.59q-1.77,8.17-3.36,16.38-5.1,26-8.64,52.24c-2.47,18.51-4.32,37.09-5.75,55.71-.63,8.27-1.1,16.55-1.55,24.83-.48,8.87-.61,17.77-.76,26.66-.15,8.66,0,17.34.27,26,.25,9.46.67,18.9,1.15,28.35.44,8.87,1.06,17.72,1.78,26.56.76,9.38,1.6,18.74,2.62,28.09,1,9,2.1,17.87,3.45,26.78q2.37,15.59,5.35,31.07h0c.62,4.25,1.59,8.46,2.45,12.66q1.62,7.92,3.28,15.84c1.12,5.37,2.44,10.7,3.73,16q1.13,4.68,2.19,9.37a6.25,6.25,0,0,0,.29,2.17c6.29,25,14.21,49.57,22.95,73.82q12.74,35.28,28.17,69.49c.52,1.43,1.17,2.78,1.8,4.16,1,2.07,1.93,4.12,2.9,6.18,1.94,4.11,3.94,8.19,6,12.26,4.37,8.84,9,17.56,13.7,26.21s9.5,16.93,14.45,25.28c2.29,3.87,4.65,7.69,7,11.51,2.76,4.45,5.55,8.87,8.5,13.2,10.75,15.75,22.15,31,34.38,45.68,13.2,15.79,27.21,30.9,41.62,45.59,0,0,0,0,0,0-13.43-18.39-26.05-37.34-38.15-56.63-5.91-9.43-11.85-18.83-17.62-28.35q-4.05-6.69-8-13.42c-3-5.16-6.17-10.25-9.23-15.38q-8.06-13.53-15.65-27.33c-5.46-9.89-10.64-20-15.76-30-2.4-4.72-4.73-9.48-7.05-14.24q-1.49-3.06-3-6.14-1-2.05-1.94-4.12a13.79,13.79,0,0,1-1.44-2.84q-6.73-14.33-12.87-28.89c-7.41-17.69-14.25-35.6-20.31-53.8-6.15-18.49-11.63-37.18-16.85-56a7,7,0,0,0-.73-1.7c-.72-2.43-1.42-4.86-2-7.31-1.38-5.31-2.69-10.65-4-16s-2.54-10.44-3.68-15.7q-.75-3.5-1.47-7c-.55-2.64-1-5.33-1.67-7.94-.16-.81-.31-1.63-.47-2.45-.32-1.63-.62-3.27-.93-4.9-.46-2.45-.89-4.9-1.33-7.36Q379,983,377.67,974.8c-1.63-10.15-3.19-20.33-4.58-30.51-1.13-8.49-2.15-17-3-25.5-.94-9.64-1.74-19.3-2.27-29-1-18.08-1.28-36.18-1.3-54.29,0-8.53.21-17.06.4-25.58.2-9.42.7-18.85,1.34-28.25q.93-13.37,2.25-26.7c.89-9,2-18,3.21-26.93l-.06.47.09-.65.06-.43c0,.08,0,.16,0,.25q3.58-26.25,8.88-52.21c1.65-8.15,3.37-16.3,5.23-24.4,2.19-9.5,4.6-18.94,7.13-28.35,4.72-17.54,10.07-34.88,15.73-52.13,2.92-8.89,6.19-17.67,9.49-26.43,3.4-9,7-18,10.76-26.92-.12.27-.23.55-.34.82a927.37,927.37,0,0,1,50.61-101.57q14.12-24.51,29.86-48,15.93-23.7,33.4-46.28l-.48.62c7.74-10,15.61-19.82,23.73-29.49,3.79-4.52,7.58-9.05,11.45-13.51,4.78-5.5,9.67-10.89,14.6-16.24a18.37,18.37,0,0,1,2-2.29q1.44-1.56,2.9-3.1c1.91-2,3.83-4.06,5.75-6.08q6.75-7.08,13.64-14,7.38-7.4,14.9-14.69c2.26-2.2,4.57-4.35,6.86-6.51l3.45-3.23a19.59,19.59,0,0,0,2.14-2.14l-.15.2c17.61-16.57,36.09-32.22,55.06-47.21a.67.67,0,0,0,.16-.19c2.24-1.76,4.47-3.51,6.72-5.24h0q7.07-5.44,14.2-10.81s0,0,0,0ZM373.77,727.88l0,.18c0-.12,0-.24.05-.36l0,.18Z"/><path d="M676.05,183c-5.57,3.85-11.08,7.77-16.51,11.82-4,3-7.94,6.14-11.83,9.3a3.15,3.15,0,0,0-.78.48c-11.93,9.86-23.54,20-34.65,30.82q-9.21,8.93-18.11,18.17c-6.26,6.53-12.31,13.24-18.28,20-12.25,13.92-23.89,28.36-35.31,43-11,14-21.39,28.52-31.82,43-3.26,4-6.35,8.21-9.37,12.44-3.65,5.13-7.32,10.25-10.94,15.4q-2.52,3.58-5,7.21c-2,2.88-3.73,5.95-5.56,8.92-3.74,6.07-7.3,12.25-10.78,18.47-13.78,24.57-26.15,50-37.63,75.7-5.29,11.82-10.42,23.74-15.23,35.77q-8.08,20.19-15.11,40.8c-1.29,3.74-2.53,7.5-3.76,11.26-1.11,3.38-2.38,6.68-3.45,10.07-2.22,7-4.3,13.95-6.35,21-1,3.41-1.92,6.83-3,10.22-.87,2.81-1.7,5.63-2.51,8.46-1.91,6.68-3.54,13.45-5.31,20.17a14,14,0,0,0-1.05,3.82c-.41,1.8-.82,3.6-1.21,5.4-1.52,6.8-3,13.61-4.29,20.46-2.42,12.59-4.54,25.26-6.2,38-1.55,11.37-3,22.76-4.19,34.17s-2.12,23.09-3,34.64q-2.67,35.08-2.15,70.27c.17,11.51.52,23,1,34.51s1.5,23.18,2.69,34.71c1.24,11.94,2.82,23.83,4.54,35.71,1.68,11.62,3.5,23.22,5.56,34.78.73,5.25,1.84,10.44,2.89,15.64,1.23,6.11,2.55,12.21,3.9,18.29,2.64,12,5.59,23.87,8.75,35.69,1.69,6.36,3.49,12.68,5.3,19,1.66,5.8,3.31,11.6,5.11,17.37,1.69,5.45,3.45,10.88,5.23,16.31,1.73,5.26,3.5,10.52,5.6,15.65l-.13-.31q3.53,9.66,7.25,19.23c2.33,6,4.94,11.9,7.46,17.82,4.6,10.76,9.31,21.48,14,32.21a25.23,25.23,0,0,0,2.26,5.62q1.69,3.72,3.44,7.44,3.45,7.43,6.93,14.83c4.22,9,8.84,17.86,13.62,26.58,5,9.08,10.15,18,15.4,27,4.83,8.2,9.81,16.35,15.06,24.29.21.34.45.67.69,1,11.76,17.77,24.19,35.08,37.13,52a10.81,10.81,0,0,0,1.69,2.21l1,1.28c11,14.14,22.35,28,34.23,41.4q9.21,10.41,18.78,20.49c1.33,1.41,2.7,2.67,4,4.08,1.83,1.92,3.67,3.81,5.52,5.71q6.28,6.48,12.75,12.79c15.2,14.86,31,29.14,47.09,43,4,3.45,8.17,6.79,12.32,10.09s8.44,6.73,12.68,10.08q14,11.12,28.47,21.69c8.23,6,16.76,11.66,25.24,17.34,9.7,6.49,19.58,12.68,29.58,18.71,4.37,2.64,8.82,5.15,13.22,7.75s8.7,5.14,13.06,7.7c2.33,1.36,4.67,2.7,7,4l.66.5c1.62.94,3.26,1.86,4.89,2.79q8,4.53,16.16,8.89c9,4.83,18.1,9.37,27.28,13.79q14.85,7.14,30,13.63,28.79,12.35,58.26,22.89c7.09,2.54,14.24,5,21.36,7.41,8.06,2.78,16.25,5.22,24.37,7.79l.77.33,5.07,1.49c4.66,1.36,9.33,2.67,14,4,8.75,2.49,17.63,4.58,26.49,6.62a7.42,7.42,0,0,0,1.38.25c20.87,4.69,41.91,8.57,63.06,11.78l.07,0h0a6.76,6.76,0,0,0,1.63.25c17.72,2.67,35.49,5,53.34,6.77,5.1.51,10.21.82,15.31,1.33,4.93.48,9.89.76,14.83,1.08,9.35.61,18.71,1,28.07,1.32,9.11.36,18.24.46,27.36.51,9.64,0,19.31-.07,29-.42,18-.66,36.09-1.76,54.06-3.56.25,0,.51,0,.77,0,13.1-1.4,26.21-3,39.23-5q15-2.34,30-5.1a10.35,10.35,0,0,0,2-.34l4.08-.8a5.7,5.7,0,0,0,1-.27q20.6-4.38,41.08-9.36a8,8,0,0,0,1.56-.34,23.31,23.31,0,0,0,3.17-.79q2.76-.75,5.57-1.4c4.42-1.09,8.82-2.31,13.21-3.52q11.85-3.27,23.55-7,10.4-3.29,20.69-6.86c4-1.38,8-2.81,12-4.24,3-1.08,6.09-2.19,9.08-3.42l-.14.07q22.59-8.4,44.75-18a13.27,13.27,0,0,0,2.49-1c11.74-5.06,23.23-10.55,34.44-16.7,4.75-2.6,9.36-5.43,14-8.26,2.57-1.57,5.08-3.25,7.63-4.86s4.85-3.26,7.27-4.9a7.07,7.07,0,0,0,2.49-2.49c.07-.11.13-.24.19-.36.81-.54,1.61-1.09,2.41-1.64l0,0a5.07,5.07,0,0,0,2-1.91,5.94,5.94,0,0,0,.43-.92c4.07-2.88,8.12-5.81,12.11-8.82,6.61-5,13.32-9.83,20-14.77,0,0,0,0,0,0q-6.62,3.35-13.33,6.53c-4.9,2.33-9.87,4.47-14.86,6.6-2.62,1.1-5.22,2.22-7.83,3.34a5.64,5.64,0,0,0-1.16-.12,5.4,5.4,0,0,0-2.75.74l-2.28,1a5.07,5.07,0,0,0-2.67.24c-1.87.77-3.77,1.46-5.64,2.26l-5.32,2.28c-9.12,3.78-18.22,7.58-27.28,11.49-10.11,4.37-20.14,8.93-30.21,13.4l-.19.15q-4.47,1.93-9,3.84l-3.6,1.52.49-.21c-19.14,8.05-38.69,15.15-58.43,21.58-9.17,3-18.4,5.78-27.63,8.58-4.73,1.43-9.47,2.79-14.22,4.12-2.71.77-5.44,1.51-8.15,2.29q-2.76.81-5.54,1.5a25.73,25.73,0,0,0-3.16.83,7,7,0,0,0-1.24.36c-6.87,1.8-13.76,3.52-20.69,5.1-6.64,1.52-13.32,2.86-20,4.12a15.07,15.07,0,0,0-1.71.26l-4.07.81c-.2,0-.39.08-.59.14-17.81,3.58-35.74,6.51-53.74,9q-5.73.76-11.46,1.45l-2.64.35-.34.11c-15.69,1.87-31.4,3.46-47.17,4.46-18.06,1.13-36.14,1.87-54.23,1.92a799.25,799.25,0,0,1-106.33-6.85q-4.9-.68-9.79-1.41l-.43-.06q-31.82-5-63.17-12.4c-.24-.08-.49-.16-.74-.22q-13.27-3.17-26.5-6.58c-4.7-1.22-9.39-2.42-14.07-3.72a47.05,47.05,0,0,0-5.86-1.57c-20.69-5.56-41-12.44-61.11-19.9-1-.43-2.24-.86-3.06-1.18-3.09-1.18-6.17-2.4-9.25-3.61-5.77-2.27-11.49-4.66-17.2-7.06-15.13-6.43-30-13.35-44.79-20.61-7.58-3.73-15.09-7.58-22.6-11.46-3.8-2-7.57-4-11.34-6q-3.72-2-7.42-4l-2.46-1.36-1-.42c-8.1-4.54-16.16-9.13-24-14.11q-13.46-8.57-26.59-17.59c-8-5.47-16-10.93-23.73-16.75-8.12-6.12-16.33-12.13-24.39-18.33-9.3-7.24-18.49-14.6-27.36-22.36s-17.79-15.49-26.44-23.51-17-15.92-25.12-24.23-16.19-16.7-24.07-25.26c-1.19-1.5-2.49-2.9-3.78-4.34q-3.18-3.54-6.32-7.12-6-6.84-11.94-13.79-12.56-14.84-24.49-30.18-3.57-4.63-7.07-9.31l-.38-.49q-9.43-12.6-18.37-25.56-9.2-13.35-17.88-27c-.1-.19-.2-.37-.32-.56-5.07-8.07-10.2-16.09-15.12-24.25q-8-13.32-15.5-26.91c-4.81-8.7-9.57-17.44-14.21-26.23-2.12-4-4.25-8-6.31-12-1.24-2.43-2.42-4.89-3.61-7.33q-1.2-2.46-2.38-4.92c-.22-.32-.45-.63-.68-.93-3.63-7.4-7-14.9-10.3-22.45q-5-12.39-9.69-24.92c-1.71-4.59-3.48-9.14-5.17-13.73s-3.3-9.42-4.94-14.14c-6.15-17.78-12.14-35.6-17.24-53.71-5-17.88-9.53-35.93-13.29-54.12-.91-4.45-1.82-8.89-2.68-13.34-1-5-2-9.88-2.9-14.85q-2.64-14.62-4.67-29.34c-2.29-17.64-4.05-35.34-5.46-53.06q-1-12.6-1.82-25.22c-.3-4.71-.41-9.44-.57-14.16q-.27-8.21-.37-16.4-.16-13.53.05-27c.07-4.58.08-9.15.24-13.72.17-5.35.5-10.69.62-16,.11-4.42.46-8.85.78-13.26s.68-8.91,1.09-13.37c.92-10.07,2.06-20.12,3.32-30.17,2-14.35,4.31-28.66,6.88-42.93q1.83-10.18,3.85-20.34c.72-3.62,1.49-7.23,2.26-10.84a32.11,32.11,0,0,0,.88-4.89v0c1-4.91,2-9.79,3.15-14.67,1.39-6.08,2.6-12.21,4.13-18.25q2.4-9.39,5-18.72c1-3.48,2-6.95,3-10.41q.6-2.4,1.22-4.8.87-2.84,1.76-5.67c8-25.53,17.22-50.68,27.51-75.37,6.87-15.95,14.15-31.71,22.08-47.16,8.6-16.75,17.83-33.16,27.33-49.41q3.3-5.68,6.64-11.34c1.93-3.26,3.73-6.6,5.59-9.91s3.57-6.35,5.37-9.53c2.52-4.43,5.35-8.69,7.95-13.07,1.72-2.9,3.37-5.84,5.21-8.66q3.57-5.44,7.31-10.76c6-8.59,12.32-17,18.71-25.35,16.83-21.72,34.93-42.36,53.7-62.42,8.57-9.15,17.22-18.21,26-27.1,9.32-9.39,18.64-18.77,28.16-28a2,2,0,0,0,.48-.64q12.54-12.27,25.12-24.48s0,0,0,0Zm962.77,1402.7-.27.11.27-.11Z"/><path d="M383.77,652.24q-.86,2.47-1.68,5a1.49,1.49,0,0,0-1.23,1.11h0c-2,6-3.93,12-5.77,18-1.11,3.62-2.16,7.26-3.2,10.9-1.11,3.88-2.3,7.74-3.38,11.63-1.88,6.75-3.65,13.55-5.39,20.34a24.67,24.67,0,0,0-1.57,5.39c-.42,1.83-.82,3.67-1.22,5.51-1,4.55-1.88,9.12-2.78,13.69a372.07,372.07,0,0,0-5.9,40.13c-1.17,13.86-1.68,27.79-2.14,41.69q-.32,10.14-.54,20.28c-.18,8-.06,16,.14,23.94.36,14.26,1.32,28.51,2.58,42.72.69,7.86,1.19,15.74,1.93,23.6q1.28,13.3,2.89,26.57c1.9,15.59,4.33,31.1,7.43,46.49l.72,1.71q1.64,7.3,3.41,14.59c2.13,8.72,4,17.52,6.08,26.25,1.76,7.26,3.7,14.47,5.49,21.73,1.22,4.91,2.79,9.77,4.23,14.62,1.22,4.12,2.51,8.22,3.81,12.32.93,3,2,5.91,3,8.83,1.48,4.09,2.9,8.19,4.33,12.3,2.89,8.33,6.11,16.53,9.27,24.76,3.47,9,6.89,18.06,10.57,27s7.42,18,11.26,27c7.15,16.65,15.09,33,23.33,49.13,3.71,7.26,7.78,14.36,11.79,21.45,4.41,7.8,9.1,15.44,13.75,23.1,8.75,14.42,17.66,28.76,27,42.78,9.83,14.75,20.25,29.1,31.07,43.13,6.39,8.23,13,16.25,19.82,24.15s13.69,15.41,20.6,23.06c7.67,8.51,15.59,16.83,23.58,25,8.75,9,17.64,17.83,26.78,26.43,16.56,15.58,34,30.18,51.77,44.33,18.66,14.86,37.84,29.14,57.52,42.61,2.05,1.62,4.24,3,6.42,4.49,3.91,2.6,7.85,5.15,11.79,7.69,2.58,1.67,5.11,3.4,7.7,5,3.65,2.32,7.33,4.6,11,6.85,6.46,4,12.93,7.88,19.52,11.61q10.18,5.77,20.51,11.31,20.1,10.79,40.77,20.43c14.43,6.75,29.09,13,43.82,19.06l.33.08c19.33,7.66,39,14.37,58.78,20.82a9.13,9.13,0,0,0,2.49.87c14,4.41,28.07,8.68,42.31,12.27,5.91,1.49,11.8,3.07,17.75,4.43,7.33,1.68,14.7,3.22,22.08,4.71,28.93,5.82,58.14,10.07,87.46,13.33,30.33,3.38,60.81,4.83,91.31,5.36,15.4.27,30.83-.22,46.2-.94,6.83-.32,13.65-.74,20.46-1.3q5.45-.45,10.89-.94c2-.18,3.89-.38,5.84-.58a35.56,35.56,0,0,0,7-1q11.29-1.29,22.55-2.83c7.65-1,15.27-2.32,22.89-3.54,8-1.29,15.93-2.91,23.87-4.5,3.08-.61,6.11-1.35,9.17-2,5-1,10-2.14,15-3.26a874.54,874.54,0,0,0,99.18-28.28,15.15,15.15,0,0,0,1.91-.75c11-3.93,21.89-8.11,32.73-12.46,11.49-4.61,23-9.34,34.29-14.31s22.28-10,33.24-15.44q8.12-4,16.08-8.33,4-2.17,7.91-4.38a50.33,50.33,0,0,0,6.39-3.88c5.79-3.22,11.55-6.47,17.25-9.84,5.34-3.15,10.59-6.45,15.88-9.68q7.38-4.51,14.63-9.26c3-1.93,5.92-3.91,8.88-5.86,2-1.33,4-2.64,5.91-4.07l-.14.11c13.12-8.89,26-18.07,38.61-27.74l-.57.44q13.58-10.3,26.73-21.14c4.87-4,9.65-8.11,14.42-12.23,4.35-3.74,8.54-7.68,12.77-11.55q5.93-5.41,11.82-10.88c4.3-4,8.46-8.11,12.7-12.18,8.72-8.39,17.14-17.08,25.54-25.79q12.28-12.72,24-25.93c7.54-8.46,14.91-17.07,21.66-26.16,3-4,6-7.94,9-11.94,3.64-4.92,7.05-10,10.47-15,1.52-2.26,3-4.52,4.42-6.87,1.48-2.51,3-5,4.51-7.46q4.41-7.1,8.72-14.24l0,0a4,4,0,0,0,.41-1.09c8.65-14.21,17-28.62,24.64-43.38a0,0,0,1,0,0,0c-7.64,10.59-15.38,21.11-23.33,31.47-2.09,2.7-4.21,5.39-6.33,8.07a2.63,2.63,0,0,0-.86.7q-5.92,7.29-12,14.45c-1.89,2.2-3.87,4.31-5.84,6.43l-3.88,4.55c-1.66,1.93-3.33,3.84-5,5.75-5.18,5.87-10.17,11.89-15.36,17.76-1.93,2.19-3.9,4.33-5.88,6.48-2.66,2.91-5.14,6-7.72,9q-15.15,17.52-31.14,34.28c-10.93,11.41-22.38,22.32-34,33l.06,0c-1,.79-1.94,1.61-2.89,2.48-2.65,2.42-5.33,4.8-8,7.19-4.66,4.13-9.42,8.13-14.21,12.1-4.43,3.68-8.94,7.28-13.42,10.91-5,4-10,8-15,11.88-8,6.16-16.18,12.11-24.36,18.05-5.22,3.79-10.5,7.48-15.81,11.13q-3.73,2.55-7.49,5.07a97.07,97.07,0,0,1-8.28,5.4l-2.57,1.67-5.18,3.33c-2.12,1.35-4.27,2.66-6.41,4q-7.36,4.55-14.78,9c-10.71,6.46-21.7,12.5-32.7,18.45a54.38,54.38,0,0,0-7.56,3.67q-5,2.57-10.11,5.08c-6.78,3.36-13.53,6.77-20.33,10.07q-20.6,10-41.64,19c-15.83,6.5-31.87,12.4-48.06,18a9.05,9.05,0,0,0-.93.25c-8.18,2.74-16.41,5.33-24.64,7.93-9.86,3.12-19.79,5.92-29.75,8.66-20.34,5.59-41,10.17-61.68,14.08-2.58.3-5.13.83-7.68,1.27-3.39.59-6.8,1.12-10.21,1.64-7.59,1.17-15.18,2.37-22.78,3.47-8.09,1-16.18,2-24.27,2.89l-5.71.61-2.85.28a8.45,8.45,0,0,0-3.77.17q-8.35.81-16.73,1.47c-19.47,1.59-39,2.63-58.51,3-9,.15-18,.28-27.08.2-10.6-.1-21.2-.55-31.78-1.13-19.43-1.07-38.85-2.81-58.16-5.33q-8.37-1.15-16.72-2.45c-5.95-.91-11.87-2-17.81-3.08-12.45-2.2-24.78-4.9-37.11-7.67-6.08-1.37-12.12-2.92-18.19-4.36-5-1.2-10-2.44-15-3.8-6.18-1.68-12.36-3.33-18.52-5.08q-10.89-3.09-21.69-6.48-.57-.18-1.14-.3c-9-2.8-17.89-5.82-26.75-9-10.2-3.67-20.31-7.7-30.37-11.77a13.89,13.89,0,0,0-3.17-1.33q-7.67-3-15.27-6.22c-16.21-6.91-32.14-14.45-48-22.24s-31.52-16.5-47-25.29c-7.37-4.2-14.64-8.57-21.88-13-3.47-2.12-6.95-4.21-10.38-6.4-2.37-1.51-4.73-3-7.09-4.58a57.71,57.71,0,0,0-5.62-3.55l-5.18-3.45c-2.59-1.73-5.16-3.49-7.72-5.24q-6.71-4.59-13.34-9.27c-6.83-4.82-13.49-9.88-20.11-15q-11.1-8.62-21.92-17.62c-6.81-5.64-13.43-11.56-20.07-17.41-7.33-6.46-14.51-13.13-21.63-19.82-7.61-7.16-15.15-14.41-22.51-21.84-12.72-12.85-25.12-26.11-36.63-40.06q-17.73-21.51-34.82-43.52c-10.24-13.35-20-27-29.57-40.88a512.54,512.54,0,0,1-27.52-44.45c-3.68-6.7-7.48-13.33-11.08-20.08-4.12-7.73-8.22-15.48-12.22-23.28-8.68-16.91-16.69-34.19-24.26-51.63-5.72-13.92-11.2-27.94-15.94-42.23-2.37-7.15-4.65-14.34-6.91-21.52-.93-3-1.65-6-2.5-9q-1.68-5.79-3.35-11.58c-4.25-14.73-8.29-29.52-11.92-44.41-1.9-7.81-3.67-15.64-5.23-23.53-.79-4-1.47-8-2.11-12a13.8,13.8,0,0,0-.42-4.77c-3.26-18.22-6.51-36.47-9.06-54.81-.76-5.92-1.42-11.86-2.24-17.77-2.44-22.75-3.41-45.62-3.92-68.49-.25-10.9-.59-21.8-.48-32.71.11-11.36.57-22.72,1.21-34.06.28-4.93.63-9.86,1-14.79.35-5.2.53-10.39.69-15.58.18-5.8.33-11.59.58-17.38.27-6.54.64-13.08,1-19.62.05-.93.11-1.87.16-2.81a27.64,27.64,0,0,1,0-5.38c.12-2.6.26-5.2.4-7.8.31-5.83.82-11.66,1.2-17.49.42-6.33,1.17-12.64,1.84-18.94.55-5.26,1.13-10.51,1.77-15.76a1.35,1.35,0,0,0-.68-1.25c.21-1.74.43-3.47.65-5.21h0Zm503.84,967.82,1.19.5-1.19-.5Zm-354-239.56-.49-.63h0c.16.21.33.42.49.64Zm-.49-.64-1.49-1.93,1.49,1.93Z"/><path d="M409.61,563.46a626.94,626.94,0,0,0-24.77,68.48c-3.68,12.24-7.11,24.58-10.1,37-3.34,13.89-6,28-8.33,42-4.35,25.86-7.34,51.89-9.91,78-.61,6.27-1,12.57-1.44,18.85s-1,12.77-1.29,19.17c-.7,14.31-1,28.66-1.16,43a16.49,16.49,0,0,0-.13,4.27c.06,2.55.14,5.1.22,7.65q.24,7.85.7,15.67c.65,11.48,1.68,22.93,2.84,34.37,1.19,11.77,2.74,23.5,4.41,35.21,1.55,10.89,3.19,21.77,5,32.63.34,3.38.88,6.71,1.48,10.07q1.41,8,3,15.88c1.83,9.11,3.73,18.21,5.84,27.25,1.89,8.11,3.92,16.2,6,24.27,2.44,9.51,5.27,18.94,8.13,28.33,2.69,8.86,5.37,17.72,8.35,26.48,1.47,4.3,3,8.58,4.52,12.85l.36,1.7,1.77,4.87c.9,2.43,1.81,4.85,2.72,7.28q5,13.27,10.32,26.41c3.57,8.73,7.42,17.35,11.3,25.94,3.77,8.33,7.77,16.56,11.79,24.79,4.23,8.67,8.58,17.29,13.13,25.8q6.47,12.13,13.3,24.07c4.7,8.16,9.5,16.28,14.51,24.26,5.15,8.18,10.43,16.3,15.91,24.26,5.16,7.47,10.42,14.86,15.68,22.25,10.2,14.38,21.08,28.27,32.16,42l-.49-.63c11.27,14.5,23.16,28.51,35.74,41.89,7.28,7.74,14.76,15.28,22.29,22.78,3.3,3.3,6.77,6.47,10.16,9.67l5.32,5c1.18,1.11,2.35,2.22,3.54,3.31a9.66,9.66,0,0,0,2,1.73q10.77,9.88,21.73,19.54C653.09,1507.9,660,1514,667,1520c1.66,1.41,3.29,2.88,4.94,4.31,2,1.69,4.09,3.24,6.12,4.84q6.74,5.3,13.56,10.48c7.55,5.77,15.33,11.26,23.15,16.67a15.49,15.49,0,0,0,2.47,1.83c8.94,6.33,18,12.47,27.08,18.62,4.71,3.19,9.6,6.13,14.43,9.13,4.08,2.53,8.13,5.09,12.22,7.6.38.27.76.52,1.16.75h0c14.29,8.77,29,16.89,44,24.46,8.38,4.23,16.76,8.46,25.23,12.51q11,5.27,22.1,10.33c8.57,3.92,17.32,7.45,26,11,6.76,2.77,13.59,5.4,20.43,8q22,8.23,44.4,15.3.63.26,1.29.45c10.52,3.27,21.06,6.41,31.68,9.33,11.18,3.07,22.43,5.79,33.73,8.37l1,.21c21.27,4.91,42.75,8.78,64.35,11.93,11.68,1.71,23.39,3.11,35.1,4.53,10.21,1.23,20.46,2.2,30.72,3a14.67,14.67,0,0,0,3,.29c22.13,1.6,44.33,2.54,66.52,2.44l.87,0a737.71,737.71,0,0,0,74.75-3.78h.15c15.13-1.44,30.22-3.23,45.24-5.56q16.31-2.54,32.5-5.61c.32,0,.64-.11,1-.18l5-.94a10.24,10.24,0,0,0,1.24-.32q31.33-6.35,62.17-14.73l.88-.21c18.2-5.07,36.26-10.63,54.1-16.88a13.48,13.48,0,0,0,2.85-1.06c22.93-8.06,45.5-17.21,67.68-27.15a14.37,14.37,0,0,0,2.78-1.25l3.8-1.72,0,0c8.37-3.85,16.72-7.75,25-11.87q13.44-6.74,26.6-14c.39-.23.77-.47,1.13-.73,22.69-12.68,45.1-25.88,66.75-40.28a7.31,7.31,0,0,0,.76-.46,400.62,400.62,0,0,0,51.41-40.85,9.51,9.51,0,0,0,2-2.62q4.41-4.26,8.7-8.62a8.26,8.26,0,0,0,2.2-4q6.69-7.1,13.08-14.48c5.31-6.14,10.43-12.44,15.59-18.71,0,0,0,0,0,0-12,8-24.41,15.54-36.75,23.09a7.53,7.53,0,0,0-3.9,1,8.91,8.91,0,0,0-.93.57q-5,3.17-10,6.31a11,11,0,0,0-2.64,1.07l0,0q-26.34,16.71-52.36,33.92c-.32.21-.62.42-.92.65-10.28,6.78-20.63,13.47-31.21,19.77-11.4,6.77-22.93,13.32-34.68,19.47a14.21,14.21,0,0,0-2.16,1c-16.18,8.34-32.51,16.43-49.11,23.9a14.44,14.44,0,0,0-2.91,1.29q-6.87,3-13.81,6c-18.35,7.65-36.94,14.61-55.73,21.1a7.71,7.71,0,0,0-1,.27c-17.93,6-36,11.53-54.24,16.43l-.73.22q-30.06,8-60.64,13.82a16,16,0,0,0-3.11.51c-12.07,2.28-24.22,4.23-36.39,5.93-13,1.7-26,3.32-39.07,4.61l-.33,0c-11.25,1-22.5,1.92-33.79,2.48-6.52.32-13,.69-19.57.91-7.06.24-14.14.37-21.21.51l-.53,0c-9.78.08-19.55.08-29.33-.18q-18.79-.5-37.53-1.77c-.34,0-.69,0-1,0-14.54-1.1-29.1-2.35-43.56-4.23-13.26-1.83-26.48-3.92-39.63-6.37-13.81-2.57-27.53-5.47-41.22-8.58l-.47-.12c-22-5.23-43.8-11.17-65.32-18a7,7,0,0,0-.69-.2c-18.14-5.85-36-12.36-53.81-19.26-4.14-1.78-8.36-3.42-12.54-5.12-6.45-2.75-12.88-5.54-19.31-8.32-3.89-1.68-7.74-3.45-11.59-5.22-2.12-1-4.25-2-6.36-3-1.54-.72-3.16-1.61-4.79-2.21-10.91-5.26-21.71-10.73-32.33-16.56-6.17-3.39-12.37-6.67-18.49-10.12-5.32-3-10.62-6-15.92-9.08-.27-.15-.53-.3-.8-.43q-28-16.33-54.59-34.81a9.32,9.32,0,0,0-1.06-.64c-9.88-7.13-19.62-14.46-29.29-21.89-5.44-4.23-10.86-8.49-16.38-12.62l-7.43-5.77,3,2.36c-13.19-10.23-25.67-21.32-37.86-32.72-.68-.74-1.42-1.41-2.23-2.17-2.37-2.22-4.73-4.46-7.05-6.72-4.61-4.49-9.11-9.1-13.67-13.64-9.67-9.66-18.89-19.77-28.19-29.78-7.51-8.1-14.8-16.39-22.09-24.69-4-4.48-7.82-9-11.57-13.65s-7.5-9.57-11.34-14.28q-7.35-9.6-14.52-19.33c-5.79-7.87-11.14-16-16.59-24.16s-10.53-16.39-15.86-24.55c-5.71-8.75-10.91-17.82-16.2-26.82-9.68-16.43-18.67-33.3-27-50.45-8.13-16.72-15.66-33.74-22.93-50.85-1.59-3.93-3.17-7.87-4.71-11.82-1.41-3.59-2.63-7.31-4.37-10.77-5.23-14-10.29-28.16-14.83-42.45q-7.06-22.23-13-44.82c-1.88-7.18-3.76-14.36-5.45-21.59-1.81-7.76-3.49-15.56-5.13-23.36-.59-2.83-1.16-5.62-2-8.39-.34-1.78-.69-3.57-1-5.35-.5-2.63-1-5.27-1.44-7.9q-2.14-12.21-3.83-24.48-2.91-22.34-4.72-44.8c-.63-7.95-1.12-15.91-1.64-23.87-.21-3.4-.4-6.81-.57-10.21a89.94,89.94,0,0,0-.69-10q-1.18-18.48-1.41-37c-.07-5.79-.12-11.58-.19-17.37-.07-6.8.26-13.64.51-20.43q.33-8.67.75-17.33c.34-7.1,1-14.19,1.66-21.27,1.18-12.69,2.8-25.33,4.47-38-.07.52-.13,1-.2,1.55,2-13.53,4.24-27,6.68-40.47s4.82-26.67,7.62-39.92c5.37-25.41,11.8-50.59,18.55-75.67,0,0,0,0,0,0Zm1137.33,1055.4-1.15.48,1.15-.48Z"/><path d="M728.65,143.24c-10.51,6.75-20.76,13.84-31,21.06C687.28,171.67,677,179.25,667,187.15q-21.45,16.51-41.31,35c-7.19,6.67-14.24,13.48-21.26,20.33q-4.79,4.67-9.49,9.41l-1.89,1.61c-1.23,1.25-2.47,2.49-3.7,3.75-1.85,1.88-3.68,3.78-5.51,5.67-7,7.25-13.72,14.83-20.42,22.36-2.6,2.94-5.31,5.77-7.88,8.74q-5,5.81-9.87,11.71c-6,7.24-11.89,14.53-17.62,22-6.2,8.05-12.23,16.21-18.3,24.35l.52-.67c-6.54,8.51-12.56,17.42-18.54,26.33q-5.24,7.8-10.31,15.7c-3.15,4.89-6.41,9.71-9.55,14.61a22.89,22.89,0,0,0-2.8,4.15c-1.42,2.35-2.81,4.7-4.21,7.06l-7.81,13.17c-2.6,4.39-5,8.93-7.43,13.4-2.32,4.23-4.56,8.52-6.77,12.81-5.08,9.84-9.74,19.88-14.32,29.95-4.37,9.63-8.64,19.28-12.71,29l.1-.21q-2.15,5.08-4.25,10.19c-1.68,3.87-3.33,7.75-5.15,11.58-1.17,2.47-2.12,5.07-3.16,7.61-.75,1.81-1.48,3.63-2.21,5.45q-4.8,10.35-9.27,20.85c-2.17,5.07-4.37,10.17-6.07,15.43-1.53,4.72-2.9,9.48-4.27,14.25q-3.93,13.74-7.49,27.6c-1.61,6.19-3.24,12.4-5.15,18.52a16.76,16.76,0,0,0-2.62,5.43h0c-.25,1-.5,2-.74,2.93a15.78,15.78,0,0,0-1.3,3.38c-2.78,10.71-5,21.55-7.06,32.4-.84,4.36-1.36,8.8-2,13.2-.34,2.47-.74,4.94-1.1,7.42-.24,1.65-.47,3.3-.7,5a26,26,0,0,0-.65,5.33c-2.74,20-5.22,40-6.93,60-2,23.07-2.14,46.29-1.63,69.43.23,10.36.45,20.72.83,31.08.17,4.83.28,9.64.55,14.47.34,6.08.88,12.15,1.48,18.2,1.1,11.08,2.69,22.13,4.22,33.16,1.7,12.16,4,24.24,6.11,36.33,1.78,10.27,4,20.46,6,30.68,2.29,11.33,4.93,22.6,7.7,33.83,2.47,10,5.2,19.93,8.11,29.81,1.49,5.06,2.92,10.13,4.43,15.17,1.85,6.15,3.89,12.23,5.95,18.31q5.25,15.48,11,30.79c4.16,11,8.35,21.93,12.76,32.8,8.18,20.18,16.79,40.2,26.88,59.51,4.89,9.34,10,18.56,15.13,27.77,2.63,4.71,5.49,9.28,8.21,13.93,3.35,5.71,6.8,11.35,10.23,17,5.46,9,11.22,17.81,17.11,26.54,6.36,9.45,12.81,18.81,19.57,28,6.63,9,13.31,17.94,20.31,26.66s14.22,17.38,21.62,25.83,14.6,16.58,22,24.8c8.33,9.27,17.19,18.09,26.09,26.8,7.7,7.54,15.62,14.84,23.66,22,9.34,8.33,18.56,16.84,28.24,24.77,18.24,14.93,37.13,29.17,56.46,42.67q13.9,9.72,28.32,18.63c4.65,2.89,9.16,6,13.78,8.92q8,5.1,16.16,10c19.37,11.57,39.15,22.39,59.79,31.52,28.23,12.5,57.44,22.75,87,31.71,0,0,0,0,0,0-17-7.86-33.61-16.31-50.06-25.19-17.46-9.41-34.51-19.56-51.68-29.49s-34.16-20.08-50.84-30.8c-3.84-2.46-7.65-5-11.45-7.5-4.83-3.22-9.51-6.65-14.17-10.11-8.1-6-16.21-12-24.2-18.12q-20.47-15.93-39.88-33.13c-7.31-6.47-14.63-12.94-21.85-19.51-6.67-6.07-13-12.46-19.38-18.87q-9.82-9.94-19.43-20.08c-6.6-7-13-14.17-19.48-21.25-11.88-13-22.93-26.58-33.7-40.46a908.26,908.26,0,0,1-65.9-97.79c-5.07-8.78-9.78-17.75-14.57-26.69-4.54-8.47-8.74-17.13-12.89-25.79-8.27-17.26-16.59-34.5-24.11-52.1-2.86-6.8-5.67-13.63-8.29-20.53-3.18-8.36-6.08-16.83-9-25.3-3-8.73-5.66-17.59-8.28-26.44-2.53-8.52-5.15-17-7.42-25.63-4.2-15.91-8.06-31.93-11.47-48-3.49-16.49-6.26-33.09-8.69-49.75-1.17-9.79-2.1-19.58-3-29.39-.9-9.4-1.48-18.82-2.12-28.24s-1.2-18.56-1.92-27.84c-.78-10.2-1-20.47-1.1-30.69-.23-21.21,1.05-42.42,2.19-63.57,1-18.69,2.41-37.36,4.79-55.92,1.41-10,3.12-20,5-29.91,1-5.45,1.9-10.93,2.85-16.39,1.21-6.92,2.53-13.81,3.73-20.73a17.09,17.09,0,0,0,.58-5.38l.24-1.26c.2-1.48.39-3,.59-4.43a17,17,0,0,0-.31-3.21q.86-5.06,1.93-10.06c1.41-6.51,3.21-12.95,4.94-19.37,1.9-7,4-14,6.13-21,.89-2.9,1.78-5.8,2.65-8.71,1-3.42,1.82-6.89,2.69-10.35,1.26-5,2.39-10,3.61-14.94.69-2.84,1.41-5.67,2.13-8.51.83-3.25,1.94-6.43,3-9.62,1-3,1.94-5.92,2.81-8.92.92-3.17,2.17-6.28,3.27-9.39,2.18-6.18,4.79-12.24,7.33-18.28q1.62-3.83,3.23-7.66c-.35.84-.7,1.68-1.06,2.52,7.05-16.58,14.82-32.81,22.8-48.95,3.64-7.4,7.45-14.71,11.14-22.08q2.88-5.75,5.95-11.41c1.31-2.4,2.64-4.79,4-7.19l1.33-2.39c.29-.67.57-1.34.85-2,4.47-8.22,9-16.37,13.84-24.38,5.65-9.37,11.56-18.58,17.59-27.7,2.06-3.13,4-6.3,6.09-9.43,2.75-4.18,5.64-8.27,8.54-12.35,3.14-4.43,6.38-8.8,9.62-13.16,3-4.07,6-8.19,9.07-12.22,6.16-7.94,12.46-15.77,18.59-23.73-.29.39-.59.77-.89,1.16q7.79-9.46,15.83-18.69c3-3.46,6.07-6.88,9.11-10.32,1.16-1.32,2.33-2.63,3.51-3.95s2.45-2.86,3.63-4.38l-.34.44c9-9.83,18.2-19.45,27.74-28.76q15.09-14.75,30.59-29.05,15-13.83,30.6-27.09c9.1-7.75,18.52-15.1,28-22.43h0l.07-.05,0,0h0q5.07-3.91,10.18-7.78a0,0,0,0,0,0,0Zm-61.16,43.54-.47.36.47-.36ZM556.76,1369.18c.2.24.39.49.58.74-.19-.25-.38-.5-.58-.74Zm155,154.83,1.53,1.18-1.53-1.18Zm6.69-1372.95-.06.05.09-.07,0,0Z"/><path d="M1912.3,1342.61c-12.87,14.12-25.77,28.21-38.87,42.12a5.67,5.67,0,0,0-.58.52c-20.2,21.44-40.89,42.46-62.33,62.67q-16.07,15.12-32.81,29.53c-5.58,4.82-11.37,9.44-17.09,14.09s-11.31,9.16-17,13.67c-3,2-5.83,4.27-8.72,6.42-3.56,2.65-7.09,5.32-10.65,8q-9.82,7.28-19.84,14.27-10.67,7.41-21.45,14.61c-8.32,5.51-16.79,10.77-25.27,16q-11.1,6.88-22.42,13.46c-8.69,5.06-17.58,9.75-26.51,14.37-15.31,8-31,15.21-46.85,22l-23,9c-8.48,3.3-16.94,6.63-25.49,9.75q-24.11,8.78-48.64,16.39c-8.43,2.64-16.93,5.09-25.42,7.55q-11.91,3.43-24,6.34c-8.12,2-16.27,3.85-24.44,5.61-9.48,2-19,3.82-28.57,5.39l1.68-.22c-7.7,1.05-15.37,2.28-23.07,3.34-8.51,1.12-17,2.22-25.54,3.2-9.68,1.13-19.4,1.87-29.11,2.62q-29.68,2.31-59.51,2.5c-19.42.1-38.83-.22-58.22-1.43-8.93-.56-17.87-1.14-26.78-2-9.61-.9-19.24-1.77-28.82-3-4.44-.62-8.89-1.25-13.33-1.85-8.18-1.11-16.35-2.3-24.48-3.74q-14.18-2.51-28.3-5.32c-18.88-3.78-37.66-8.08-56.24-13.14-9.54-2.6-19.09-5.18-28.59-7.91-9.73-2.8-19.37-5.85-29-9-18.88-6.28-37.71-12.77-56.08-20.43-8.83-3.77-17.56-7.75-26.36-11.6-9.53-4.16-19-8.54-28.34-13.07q-27.54-13.32-53.86-29c-17.82-10.65-35.22-22-52.33-33.78-9-6.19-17.72-12.89-26.46-19.46q-12.57-9.43-25-19-33.33-25.82-64.54-54.15a0,0,0,1,0,0,0,724.33,724.33,0,0,0,49.52,53.08c8.73,8.46,17.65,16.71,26.89,24.62,9.43,8.08,19.24,15.7,29.16,23.16q10.47,8.1,21.14,16c8.93,6.55,18.16,12.72,27.39,18.83,17.13,11.34,34.62,22.13,52.34,32.52,8.27,4.84,16.63,9.52,25,14.11,4.19,2.29,8.4,4.52,12.62,6.73,5.21,2.73,10.6,5.17,15.92,7.68,18.89,8.91,38,17.42,57.33,25.29,18.47,7.52,37.36,14.13,56.35,20.19,8.79,2.8,17.71,5.2,26.61,7.64,9.94,2.73,19.94,5.17,30,7.49,18.8,4.36,37.79,7.76,56.85,10.77,10.35,1.63,20.75,2.84,31.15,4.13,10,1.23,20.06,2.19,30.13,2.94,4.47.34,8.92.79,13.39,1s9,.46,13.43.66c10.49.44,21,.8,31.47.88q29.45.2,58.84-1.56c19.77-1.18,39.47-3.44,59.1-6,9.69-1.25,19.33-2.75,29-4.43,9.9-1.72,19.75-3.71,29.58-5.77,9.16-1.91,18.34-3.73,27.48-5.72,9.77-2.13,19.45-4.73,29.15-7.19,19.06-4.83,37.9-10.48,56.54-16.79,8.88-3,17.67-6.32,26.41-9.7,10.26-4,20.46-8.1,30.53-12.52,8.36-3.66,16.48-7.78,24.72-11.7q14.27-6.79,28.3-14c13.69-7.06,27.13-14.57,40.57-22.09s26.36-15.34,39.16-23.65c12.64-8.21,25.07-16.71,37.21-25.64q9.24-6.8,18.31-13.78c2.94-2.29,5.86-4.59,8.75-6.94q1.77-1.44,3.53-2.89c1.74-1.43,3.37-3,5.11-4.39q17-13.9,33-29c5.22-4.92,10.5-9.76,15.62-14.78q8.05-7.9,15.89-16a625,625,0,0,0,57.8-69.15l-.06,0a505.89,505.89,0,0,0,31-49.17s0,0,0,0Zm-811,335.14,1.38.19-1.38-.19Z"/><path d="M780.55,107.48s0,0,0,0c.27-.08.56-.16.84-.22h.07l0,0,0,0h0l-.07,0h0A22.17,22.17,0,0,1,779,108c-.42.1-.83.19-1.25.27s-.82.21-1.24.34c-1.76.52-3.48,1.18-5.19,1.83s-3.27,1.29-4.9,1.93c-1.79.72-3.61,1.39-5.42,2.08-3.61,1.39-7.2,2.86-10.74,4.43-3.36,1.49-6.64,3.14-9.92,4.79-1.73.88-3.48,1.7-5.21,2.56,0,0,0,0,0,0,3.52-1.33,7-2.68,10.52-4.08s7.14-2.73,10.72-4.08,7-2.7,10.34-4.28c3.16-1.48,6.25-3.09,9.43-4.5l0,0c1.33-.54,2.72-.95,4.07-1.42l.88-.32c.1,0,.51-.15.51-.28s-.06-.09-.15-.09a3.48,3.48,0,0,0-.87.24Zm.91-.19Zm0,0h0Zm-.08.05Z"/><path d="M784.77,107c-2.49.92-5.06,1.62-7.58,2.47-1.24.43-2.49.84-3.72,1.3l-3.81,1.42c-2.55,1-5.08,2-7.62,2.95s-4.87,1.92-7.28,2.92l-2.85,1.18h0c-1.56.62-3.11,1.22-4.68,1.81,0,0,0,0,0,0q2.26-.74,4.48-1.54c1.18-.43,2.36-.89,3.54-1.33,2.42-.92,4.85-1.81,7.28-2.71s5.13-1.94,7.68-2.92l3.74-1.45c1.19-.47,2.4-.9,3.6-1.35,2.41-.9,4.85-1.69,7.2-2.74,0,0,0,0,0,0Z"/><path d="M781.76,108.67c-2.61.94-5.28,1.62-8,2.34-2.93.78-5.86,1.59-8.77,2.43a144.16,144.16,0,0,0-16.41,6c-2.53,1.07-5.07,2.17-7.49,3.48-2.62,1.43-5.19,2.94-7.76,4.45,0,0,0,0,0,0,2.8-1.26,5.59-2.57,8.39-3.84,5.48-2.25,11.07-4.2,16.66-6.16s11.26-3.82,16.83-5.92c1.45-.54,2.89-1.1,4.32-1.71h0c.76-.31,1.49-.68,2.23-1,0,0,0,0,0,0Zm-2.18,1.06h0Z"/><path d="M773.77,109.8c-1.77.55-3.51,1.14-5.24,1.79a0,0,0,0,0,0,0c1.75-.57,3.5-1.16,5.24-1.79,0,0,0,0,0,0Z"/><path d="M785.59,106.35c-1.3.33-2.58.76-3.88,1.12-.28.08-.56.2-.84.28l-1,.26-2,.59c-2.65.79-5.28,1.6-7.92,2.4s-5.53,1.61-8.22,2.62c-1.4.52-2.79,1-4.17,1.62s-2.77,1.11-4.11,1.75-2.45,1.19-3.66,1.82-2.18,1.19-3.28,1.78-2.34,1.28-3.5,1.94-2.47,1.54-3.67,2.34c0,0,0,0,0,0,1.94-1.05,3.88-2.07,5.89-3s4.24-2,6.37-2.91h0c2.74-1.13,5.5-2.16,8.3-3.12s5.42-1.78,8.13-2.67,5.47-1.91,8.17-3l3.77-1.49c1.19-.46,2.38-.89,3.53-1.44.55-.26,1.09-.53,1.65-.77h0l.41-.16s0,0,0,0Z"/></g><g id="Draw_Layer-2" data-name="Draw Layer"><path d="M1165.45,596.2c-3.5,1.59-5.81,4.36-8.07,7.3a21.47,21.47,0,0,0-2.6,4.47,49.77,49.77,0,0,0-2.51,6.43,136.56,136.56,0,0,0-3.57,17.26c-1.08,6.54-2,13.13-2.55,19.74a137.93,137.93,0,0,0-.05,17.49q.14,2.85.33,5.69c-1.86-3.94-3.87-7.81-6-11.63-2.89-5.26-6-10.42-9.33-15.41-3.65-5.46-7.77-10.65-11.79-15.84-.48-.61-1-1.22-1.46-1.82a9.5,9.5,0,0,0-2.8-4.78c-1.58-1.42-3.25-2.71-5-4a22.78,22.78,0,0,0-5.91-2.82,11.27,11.27,0,0,0-1.74-.4,24.41,24.41,0,0,0-9.33,0,48.43,48.43,0,0,0-4.9,1.16,23.93,23.93,0,0,0-7.61,3.62,41.46,41.46,0,0,0-3.69,3,24.5,24.5,0,0,0-3.73,5.06,38,38,0,0,0-3.72,9.83,60.31,60.31,0,0,0-1.64,10.69c-.23,3.11-.39,6.23-.47,9.34a86.57,86.57,0,0,0,2.28,20.53,95.49,95.49,0,0,0,6.2,19.21,135.65,135.65,0,0,0,8.77,16.22c3.5,5.55,7.69,10.59,11.7,15.77,3.7,4.78,7.45,9.51,11.38,14.09s7.81,9.13,11.85,13.57,7.79,8.87,12,13,8.55,7.72,12.77,11.64c4.38,4.06,8.59,8.32,13.12,12.21,5.4,4.64,11.21,8.77,16.88,13.06,2.69,2.13,5.36,4.29,8.07,6.4l-.06-.05.07.06,1.64,1.27.64.49c3,2.43,5.94,5,9,7.39,2,1.56,4,3.16,6.08,4.52,1.57,1,3.18,2,4.72,3.08l.2.16c1.15,1,2.28,1.94,3.39,3,1.52,1.38,2.81,3.11,4.74,3.95a11.09,11.09,0,0,0,5.15,1.42,8.85,8.85,0,0,0,7.66-4.56c1.2-2.19,1.4-4.52,1.65-7,.57-5.6.35-11.25,1-16.84.59-3.92,1.18-7.82,1.72-11.75-.06.5-.13,1-.2,1.49,1-6.78,2-13.56,2.69-20.38.57-5.94.82-11.9,1.16-17.86s1.28-12.12,1.79-18.2a124.5,124.5,0,0,0,.47-17.8c-.34-5.91-1-11.79-1.75-17.66-.88-7.16-1.71-14.33-2.72-21.47-.85-5.94-1.94-11.88-3.24-17.73s-3.08-11.65-4.78-17.4a173.82,173.82,0,0,0-7.17-19.25,164.64,164.64,0,0,0-7.37-15.11c-1.39-2.51-2.85-5-4.36-7.44a39.52,39.52,0,0,0-7.08-9,63.52,63.52,0,0,0-5.35-4.18,29.44,29.44,0,0,0-6.16-3.18,31,31,0,0,0-9.92-2c-.59,0-1.18-.05-1.77-.07h-.56a19.41,19.41,0,0,0-8.15,2Zm6.63,19.56-.45.07.45-.07Zm1.7.27c.48.13,1,.26,1.42.41s1,.58,1.51.9a38.39,38.39,0,0,1,3.46,3.41A60.67,60.67,0,0,1,1185,630c4,9.69,8.06,19.41,11.08,29.46.87,2.89,1.57,5.83,2.36,8.73s1.63,6,2.42,8.94c1.48,5.59,2.48,11.3,3.46,17,.38,2.24.74,4.48,1.07,6.74,1,7.6,2.18,15.18,3.29,22.77a159.62,159.62,0,0,1,1.15,16.63c.08,6,0,11.91-.18,17.86s.23,12.18.38,18.26c.14,5.89.16,11.79,0,17.69-.11,3.24-.07,6.45,0,9.7s-.2,6.67-.2,10q-2.73-2.24-5.35-4.6c-3.23-2.93-6.7-5.6-10.18-8.24s-6.92-5.52-10.45-8.2c-3-2.26-6-4.43-9-6.67-2.2-1.77-4.41-3.55-6.53-5.43s-4.27-4-6.45-5.92-4.57-4.1-6.88-6.13c-2.09-1.83-4.25-3.59-6.32-5.45a133.24,133.24,0,0,1-12.23-12.91c-3.9-4.59-7.85-9.13-11.63-13.83-2.3-2.85-4.63-5.67-6.9-8.56s-4.28-5.62-6.36-8.46c-2.29-3.13-4.62-6.22-6.64-9.52a177.31,177.31,0,0,1-10.32-19.76,106.87,106.87,0,0,1-6.07-22.58,85.52,85.52,0,0,1,.48-17.66,53.08,53.08,0,0,1,2.13-9c.18-.36.37-.72.57-1.07l.06-.07.61-.36a24.6,24.6,0,0,1,3-.73,9.74,9.74,0,0,1,1.08,0l.47.14a24.39,24.39,0,0,1,2.34,1.43l.41.33a10.84,10.84,0,0,0,4.37,2.68c2,2.11,3.86,4.33,5.74,6.54,2.66,3.12,5.55,6.05,8.32,9.07,5.61,6.1,10.82,12.55,16,19l1.85,2.38c4.07,5.49,7.94,11.14,11.93,16.7.19,2.35.48,4.69.85,7a68.55,68.55,0,0,0,2,8.14c.37,1.32.74,2.64,1.14,4,.47,1.52,1.3,3.49,2.62,4.44a2.53,2.53,0,0,0,2.71.08c1.05-.45,1.19-1.8,1.26-2.77a17.66,17.66,0,0,0-.5-4.69c-.1-.53-.22-1.05-.33-1.57s0-1.22,0-1.83c2.38,2.94,4.8,5.87,7.2,8.8,0,0,0,0,0,0-2.18-5.67-4.48-11.32-6.88-16.91q.09-1.11.21-2.22l.06-.47c.56-3.23,1.19-6.45,1.73-9.68.64-3.79,1-7.6,1.41-11.43.63-6.37,1.22-12.75,2-19.1,1-6.87,2.58-13.65,3.63-20.52.5-3.21,1.35-6.36,2.09-9.52a73.48,73.48,0,0,1,2.94-9.39,32.35,32.35,0,0,1,1.78-3.28l0,0Zm-15.7,83.64-.15,1.1.15-1.1Z"/></g></svg>