<svg width="45" height="24" viewBox="0 0 45 24" fill="none" xmlns="http://www.w3.org/2000/svg">
<path d="M8.95996 10.8401V7.14006L9.76996 6.31006L10.58 7.14006V10.8401L9.76996 11.6701L8.95996 10.8401Z" fill="white"/>
<path d="M44 23.49H0.85C0.623651 23.4874 0.407467 23.3956 0.248342 23.2346C0.0892176 23.0736 -1.53017e-05 22.8564 1.96813e-09 22.63L1.96813e-09 0.85C1.96813e-09 0.624566 0.0895533 0.408365 0.248959 0.248959C0.408365 0.0895533 0.624566 0 0.85 0L44 0C44.2254 0 44.4416 0.0895533 44.601 0.248959C44.7604 0.408365 44.85 0.624566 44.85 0.85V22.63C44.85 22.8564 44.7608 23.0736 44.6017 23.2346C44.4425 23.3956 44.2263 23.4874 44 23.49V23.49ZM1.7 21.78H43.17V1.7H1.7V21.78Z" fill="white"/>
<path d="M37.6499 16.3501V12.6501L38.4599 11.8201L39.2699 12.6501V16.3501L38.4599 17.1801L37.6499 16.3501Z" fill="white"/>
<path d="M31.5498 16.3501V12.6501L32.3598 11.8201L33.1698 12.6501V16.3501L32.3598 17.1801L31.5498 16.3501Z" fill="white"/>
<path d="M37.6499 10.8401V7.14006L38.4599 6.31006L39.2699 7.14006V10.8401L38.4599 11.6701L37.6499 10.8401Z" fill="white"/>
<path d="M31.5498 10.8401V7.14006L32.3598 6.31006L33.1698 7.14006V10.8401L32.3598 11.6701L31.5498 10.8401Z" fill="white"/>
<path d="M33.5998 18.44L32.7798 17.61L33.5998 16.79H37.2198L38.0298 17.61L37.2198 18.44H33.5998Z" fill="white"/>
<path d="M33.5998 6.70004L32.7798 5.87004L33.5998 5.04004H37.2198L38.0298 5.87004L37.2198 6.70004H33.5998Z" fill="white"/>
<path d="M28.2002 16.3501V12.6501L29.0102 11.8201L29.8202 12.6501V16.3501L29.0102 17.1801L28.2002 16.3501Z" fill="white"/>
<path d="M22.1001 16.3501V12.6501L22.9101 11.8201L23.7201 12.6501V16.3501L22.9101 17.1801L22.1001 16.3501Z" fill="white"/>
<path d="M28.2002 10.8401V7.14006L29.0102 6.31006L29.8202 7.14006V10.8401L29.0102 11.6701L28.2002 10.8401Z" fill="white"/>
<path d="M22.1001 10.8401V7.14006L22.9101 6.31006L23.7201 7.14006V10.8401L22.9101 11.6701L22.1001 10.8401Z" fill="white"/>
<path d="M24.1498 18.44L23.3398 17.61L24.1498 16.79H27.7698L28.5898 17.61L27.7698 18.44H24.1498Z" fill="white"/>
<path d="M24.1498 6.70004L23.3398 5.87004L24.1498 5.04004H27.7698L28.5898 5.87004L27.7698 6.70004H24.1498Z" fill="white"/>
<path d="M15.0498 10.8401V7.14006L15.8598 6.31006L16.6698 7.14006V10.8401L15.8598 11.6701L15.0498 10.8401Z" fill="white"/>
<path d="M10.9999 12.5699L10.1899 11.7399L10.9999 10.9099H14.6299L15.4399 11.7399L14.6299 12.5699H10.9999Z" fill="white"/>
<path d="M5.6001 16.3501V12.6501L6.4101 11.8201L7.2301 12.6501V16.3501L6.4101 17.1801L5.6001 16.3501Z" fill="white"/>
<path d="M5.6001 10.8401V7.14006L6.4101 6.31006L7.2301 7.14006V10.8401L6.4101 11.6701L5.6001 10.8401Z" fill="white"/>
<path d="M20.1501 8.19995H18.6001V9.77995H20.1501V8.19995Z" fill="white"/>
<path d="M20.1501 13.71H18.6001V15.29H20.1501V13.71Z" fill="white"/>
<path d="M15.0498 16.3501V12.6501L15.8598 11.8201L16.6698 12.6501V16.3501L15.8598 17.1801L15.0498 16.3501Z" fill="white"/>
</svg>
