<svg width="54" height="23" viewBox="0 0 54 23" fill="none" xmlns="http://www.w3.org/2000/svg">
<path d="M42.5108 10.2777C42.6628 10.1729 42.7805 10.0257 42.8493 9.85452C42.931 9.64111 42.9755 9.41532 42.981 9.1869C42.981 8.8954 42.981 8.5945 42.981 8.303C42.981 8.01151 42.981 7.71061 42.981 7.41911C42.9764 7.18754 42.9319 6.9585 42.8493 6.74209C42.7805 6.57088 42.6628 6.42372 42.5108 6.31895C42.3101 6.20751 42.0818 6.15534 41.8526 6.1685C41.6206 6.158 41.3901 6.20996 41.185 6.31895C41.0331 6.42372 40.9154 6.57088 40.8465 6.74209C40.764 6.9585 40.7194 7.18754 40.7148 7.41911C40.7148 7.6824 40.7148 7.9833 40.7148 8.303C40.7148 8.62271 40.7148 8.91421 40.7148 9.1869C40.7203 9.41532 40.7648 9.64111 40.8465 9.85452C40.9154 10.0257 41.0331 10.1729 41.185 10.2777C41.3885 10.3908 41.6203 10.4431 41.8526 10.4281C42.0822 10.4457 42.3117 10.3933 42.5108 10.2777Z" fill="white"/>
<path d="M35.2711 7.3063C35.205 6.97243 35.0375 6.66706 34.7915 6.43181C34.5167 6.24061 34.1854 6.14784 33.8512 6.16853C33.5125 6.14611 33.1775 6.24995 32.9109 6.46002C32.6543 6.71777 32.4779 7.04439 32.4032 7.40033C32.2724 7.93929 32.203 8.49132 32.1963 9.04588C32.1963 9.7135 32.1963 10.5316 32.1963 11.4907C32.1963 12.4498 32.1963 13.2491 32.1963 13.9167C32.2023 14.4744 32.2717 15.0296 32.4032 15.5716C32.4779 15.9276 32.6543 16.2542 32.9109 16.5119C33.1853 16.708 33.514 16.8134 33.8512 16.8134C34.1884 16.8134 34.5172 16.708 34.7915 16.5119C35.0474 16.255 35.2209 15.9276 35.2899 15.5716C35.4204 15.0292 35.4929 14.4744 35.5062 13.9167C35.5062 13.2397 35.5062 12.4216 35.5062 11.4907C35.5062 10.5598 35.5062 9.66648 35.5062 8.98006C35.4937 8.41485 35.4148 7.85308 35.2711 7.3063V7.3063Z" fill="white"/>
<path d="M48.4167 13.061C48.3479 12.8898 48.2301 12.7427 48.0782 12.6379C47.8751 12.5237 47.643 12.4714 47.4106 12.4875C47.1812 12.4722 46.9524 12.5245 46.7524 12.6379C46.6005 12.7427 46.4827 12.8898 46.4139 13.061C46.3278 13.2732 46.2832 13.4998 46.2822 13.7287C46.2822 14.0014 46.2822 14.3023 46.2822 14.6126C46.2822 14.9229 46.2822 15.2332 46.2822 15.4965C46.2822 15.7285 46.3269 15.9584 46.4139 16.1735C46.4827 16.3447 46.6005 16.4918 46.7524 16.5966C46.9593 16.6959 47.1858 16.7474 47.4153 16.7474C47.6448 16.7474 47.8713 16.6959 48.0782 16.5966C48.2301 16.4918 48.3479 16.3447 48.4167 16.1735C48.4992 15.9571 48.5438 15.728 48.5484 15.4965C48.5484 15.2332 48.5484 14.9323 48.5484 14.6126C48.5484 14.2929 48.5484 14.0014 48.5484 13.7287C48.5429 13.5002 48.4984 13.2745 48.4167 13.061V13.061Z" fill="white"/>
<path d="M8.07727 23V21.6929H8.64146L8.70728 23H8.07727ZM7.42846 23C7.21218 23 7.00532 23 6.78904 22.9435L6.92069 21.6271L7.48487 21.6741L7.42846 23ZM9.30908 22.9435L9.20564 21.6271C9.3937 21.6271 9.58177 21.5989 9.76983 21.5425L9.96729 22.8307C9.76043 22.8683 9.54415 22.9059 9.32788 22.9247L9.30908 22.9435ZM6.14023 22.8589L5.51962 22.7367L5.76411 21.4578L6.32829 21.5613L6.14023 22.8589ZM10.5785 22.7179L10.3434 21.4202L10.6819 21.3356L10.8888 21.2698L11.2179 22.5674L10.9828 22.6426L10.5785 22.7179ZM4.93663 22.5768L4.32543 22.3793L4.70155 21.1193C4.88021 21.1758 5.05887 21.2416 5.24693 21.2886L4.93663 22.5768ZM11.8479 22.3041L11.4154 21.0911L11.9325 20.8466L12.4497 22.0314L11.8479 22.3041ZM3.72363 22.1443L3.13123 21.8622L3.6296 20.6868C3.79736 20.7777 3.97002 20.8593 4.14677 20.9313L3.72363 22.1443ZM13.0233 21.7023L12.4309 20.5646C12.5934 20.4667 12.7503 20.36 12.9011 20.2448L13.5781 21.3262C13.3941 21.4565 13.2026 21.5758 13.0045 21.6835L13.0233 21.7023ZM2.52944 21.5143L1.97465 21.1287L2.67048 20.0568C2.82093 20.1696 2.97138 20.2731 3.14064 20.3765L2.52944 21.5143ZM14.1047 20.8843L13.343 19.8687C13.4907 19.7444 13.632 19.6126 13.7662 19.4738L14.5936 20.4141C14.415 20.5834 14.2551 20.7432 14.1047 20.8843ZM1.44808 20.6868C1.27882 20.5175 1.11897 20.3389 0.96852 20.1602L1.90883 19.3045C2.02348 19.446 2.14591 19.581 2.27555 19.7089L1.44808 20.6868ZM15.045 19.9157L14.1047 19.0412C14.2363 18.8908 14.3491 18.7309 14.462 18.5805L15.4023 19.3798C15.3177 19.5584 15.1766 19.7465 15.045 19.9157ZM0.554783 19.5396C0.421234 19.3078 0.314 19.0618 0.235078 18.8062L1.35405 18.336C1.41369 18.5027 1.48926 18.6633 1.57972 18.8156L0.554783 19.5396ZM15.8254 18.8062L14.8193 18.0821C14.9227 17.9129 15.0168 17.7436 15.1108 17.565L16.1639 18.2044C16.0605 18.4112 15.9853 18.6087 15.8254 18.8062ZM0 18.0821C0 17.8941 0 17.6872 0 17.4803V17.3017L1.2036 17.3487V17.4803C1.19392 17.6118 1.19392 17.7438 1.2036 17.8753L0 18.0821ZM1.23181 16.7939L0.084628 16.5588C0.124436 16.3178 0.177805 16.0792 0.244481 15.8442L1.40106 16.2297C1.34387 16.4144 1.29988 16.603 1.26942 16.7939H1.23181ZM1.55151 15.6749L0.479558 15.1672C0.556742 14.9484 0.647824 14.7349 0.752249 14.5278L1.8242 15.139C1.73957 15.3176 1.65495 15.4963 1.58913 15.6749H1.55151ZM2.05928 14.6218L1.05315 13.9072C1.16599 13.7097 1.29763 13.5122 1.42927 13.3242L2.36958 14.1234C2.30376 14.2833 2.20033 14.4525 2.09689 14.6218H2.05928ZM11.6975 14.3867C11.5094 14.3867 11.3119 14.3867 11.1145 14.3867L11.2837 13.0515H11.7351H11.8103V14.3679L11.6975 14.3867ZM12.4967 14.3021L12.2711 13.0233C12.3572 13.0108 12.4401 12.9821 12.5155 12.9386L13.2302 14.1046C13.0061 14.1955 12.7728 14.2617 12.5343 14.3021H12.4967ZM10.4657 14.2363L9.87326 14.1046L10.193 12.8446L10.7383 12.9856L10.4657 14.2363ZM9.22445 13.8695L8.63205 13.6439L9.05519 12.4215L9.60998 12.6283L9.22445 13.8695ZM2.82093 13.6627L1.88062 12.7788C2.03107 12.6001 2.19092 12.4309 2.35078 12.271L3.15004 13.2113C3.0278 13.3806 2.89616 13.5216 2.82093 13.6627ZM8.14309 13.3994L7.52249 13.1643L7.99264 11.9513L8.53802 12.2052L8.14309 13.3994ZM3.6296 12.8916L2.93377 11.8197C3.11771 11.6761 3.31264 11.5472 3.51676 11.4341L4.07155 12.5907C3.90171 12.6794 3.73832 12.78 3.58258 12.8916H3.6296ZM7.01472 12.8916L6.46934 12.6377L6.92069 11.4341L7.49428 11.688L7.01472 12.8916ZM5.93336 12.4215L5.79231 12.365C5.68483 12.3311 5.57477 12.3059 5.46321 12.2898L5.62306 10.9922C5.80278 11.0171 5.97932 11.0613 6.14963 11.1238L6.32829 11.1803L5.93336 12.4215ZM4.5323 12.4215L4.17498 11.1708C4.40446 11.0953 4.6406 11.0418 4.88021 11.011L5.00245 12.3086C4.82775 12.3138 4.65421 12.339 4.48528 12.3838L4.5323 12.4215Z" fill="white"/>
<path d="M18.7117 0L11.4243 10.7478L18.7117 21.7494H53.381V0H18.7117ZM16.6713 17.3957L15.6087 16.8128C15.7121 16.5871 15.8062 16.3614 15.9002 16.1357L17.0098 16.6153C16.8123 17.1137 16.8405 17.029 16.6713 17.3957ZM17.2825 15.8066L16.1353 15.4399C16.2099 15.2082 16.2727 14.9728 16.3233 14.7347L17.4987 14.9792C17.4504 15.2607 17.3781 15.5375 17.2825 15.8066V15.8066ZM17.6586 14.1329L16.455 14.0106C16.4905 13.7739 16.5124 13.5353 16.5208 13.296H17.7432C17.7313 13.567 17.7031 13.8371 17.6586 14.1047V14.1329ZM17.9407 11.5564C18.0248 11.8635 18.0752 12.1788 18.0911 12.4967L16.5114 12.619C16.503 12.4674 16.4842 12.3166 16.455 12.1676C16.2288 12.098 16.0263 11.967 15.8701 11.7891C15.714 11.6113 15.6102 11.3936 15.5705 11.1602C15.5307 10.9269 15.5565 10.6871 15.6449 10.4676C15.7333 10.248 15.8809 10.0573 16.0713 9.91672C16.2617 9.7761 16.4874 9.69107 16.7232 9.6711C16.9591 9.65113 17.1958 9.697 17.4071 9.80361C17.6184 9.91022 17.796 10.0734 17.9201 10.2749C18.0442 10.4765 18.1099 10.7085 18.1099 10.9452C18.1042 11.1597 18.0461 11.3695 17.9407 11.5564ZM27.7105 16.9256H22.567V16.5589H24.0903V7.38144C23.7706 7.54129 23.4509 7.70114 23.15 7.8798L22.0874 8.4628H22.031L21.8148 8.13369H21.89L22.9243 7.52249C23.2252 7.36577 23.5073 7.20591 23.7706 7.04293C24.0245 6.88307 24.2972 6.70442 24.5605 6.51635C24.8237 6.32829 25.1246 6.07441 25.4443 5.80172H26.1966V16.5401H27.6823L27.7105 16.9256ZM37.8188 12.3933C37.7847 12.7922 37.7219 13.1882 37.6308 13.5781C37.5346 14.0065 37.3993 14.4251 37.2264 14.8287C37.048 15.2481 36.8071 15.638 36.5118 15.9853C36.2027 16.3344 35.825 16.6161 35.4022 16.8128C34.9122 17.0342 34.3789 17.1435 33.8413 17.1325C33.2558 17.1491 32.674 17.0334 32.1394 16.7939C31.7098 16.5709 31.3318 16.2601 31.0298 15.8818C30.7336 15.53 30.5013 15.129 30.3434 14.6971C30.1905 14.2849 30.0741 13.8601 29.9955 13.4276C29.9223 13.046 29.8783 12.6594 29.8638 12.2711C29.8638 11.9231 29.8638 11.6504 29.8638 11.4624C29.8638 11.2743 29.8638 10.8982 29.9108 10.5221C29.9578 10.146 30.0143 9.76043 30.0989 9.33729C30.1997 8.906 30.3382 8.48438 30.5126 8.07727C30.6898 7.66296 30.931 7.27903 31.2273 6.93949C31.5534 6.56787 31.9578 6.2731 32.4114 6.07638C32.865 5.87965 33.3566 5.78585 33.8507 5.80172C34.4374 5.78329 35.0203 5.90244 35.5527 6.14963C35.982 6.36086 36.363 6.65859 36.6717 7.02412C36.972 7.37654 37.2047 7.78139 37.3581 8.21832C37.5138 8.63351 37.6333 9.06137 37.7154 9.49714C37.7834 9.87953 37.8274 10.2658 37.847 10.6537C37.847 11.0016 37.847 11.2649 37.847 11.4624C37.8532 11.7667 37.8438 12.0711 37.8188 12.3745V12.3933ZM39.8875 10.1177C39.625 9.89616 39.4051 9.62848 39.2387 9.32788C39.0725 9.01858 38.9854 8.6729 38.9854 8.32175C38.9854 7.9706 39.0725 7.62492 39.2387 7.31562C39.4017 7.01274 39.6221 6.74447 39.8875 6.52576C40.1661 6.29648 40.485 6.1211 40.8278 6.00859C41.5055 5.76448 42.2471 5.76448 42.9247 6.00859C43.2676 6.1211 43.5864 6.29648 43.865 6.52576C44.1305 6.74447 44.3509 7.01274 44.5139 7.31562C44.6846 7.62319 44.7721 7.97 44.7677 8.32175C44.7696 8.6732 44.6822 9.01937 44.5139 9.32788C44.3475 9.62848 44.1276 9.89616 43.865 10.1177C43.584 10.3434 43.2658 10.5184 42.9247 10.6349C42.2482 10.8855 41.5043 10.8855 40.8278 10.6349C40.4854 10.5127 40.1671 10.3313 39.8875 10.0989V10.1177ZM41.3168 16.9256V16.8504L47.4758 5.78291L47.946 5.98038L47.899 6.0556L41.787 17.1231L41.3168 16.9256ZM50.0241 15.628C49.8579 15.9287 49.6343 16.1939 49.3659 16.4084C49.0857 16.6331 48.7671 16.8052 48.4255 16.9162C48.0912 17.0392 47.738 17.1029 47.3818 17.1043C46.6707 17.0956 45.9827 16.8508 45.426 16.4084C45.1604 16.1935 44.9399 15.9283 44.7771 15.628C44.6109 15.317 44.5239 14.9698 44.5239 14.6171C44.5239 14.2645 44.6109 13.9173 44.7771 13.6063C44.9423 13.3048 45.1623 13.0369 45.426 12.8164C45.707 12.5907 46.0252 12.4157 46.3663 12.2993C47.0407 12.055 47.7794 12.055 48.4538 12.2993C48.7945 12.4166 49.1125 12.5915 49.3941 12.8164C49.6552 13.0395 49.8748 13.3068 50.0429 13.6063C50.2037 13.919 50.2876 14.2655 50.2876 14.6171C50.2876 14.9687 50.2037 15.3153 50.0429 15.628H50.0241Z" fill="white"/>
</svg>
