<svg width="48" height="28" viewBox="0 0 48 28" fill="none" xmlns="http://www.w3.org/2000/svg">
<path d="M46.29 10.71H47.06V0H0V10.7H0.77C1.51619 10.7436 2.21748 11.0708 2.73036 11.6146C3.24323 12.1583 3.5289 12.8775 3.5289 13.625C3.5289 14.3725 3.24323 15.0917 2.73036 15.6354C2.21748 16.1792 1.51619 16.5064 0.77 16.55H0V27.1H47.06V16.56H46.29C45.5438 16.5164 44.8425 16.1892 44.3296 15.6454C43.8168 15.1017 43.5311 14.3825 43.5311 13.635C43.5311 12.8875 43.8168 12.1683 44.3296 11.6246C44.8425 11.0808 45.5438 10.7536 46.29 10.71V10.71ZM1.55 25.55V18C2.58385 17.8128 3.51932 17.269 4.19355 16.4632C4.86779 15.6574 5.23809 14.6407 5.24 13.59C5.22689 12.5468 4.85168 11.5405 4.17858 10.7434C3.50547 9.94621 2.57629 9.40772 1.55 9.22V1.55H35L41.71 25.55H1.55ZM41.86 7.73C41.3817 7.93655 40.8544 8.00246 40.34 7.92C40.1479 7.88797 39.96 7.8343 39.78 7.76C39.4846 7.65364 39.2129 7.49058 38.98 7.28C38.9662 7.26114 38.9587 7.23838 38.9587 7.215C38.9587 7.19163 38.9662 7.16886 38.98 7.15C38.9806 7.12847 38.9876 7.10761 39 7.09C39.5082 7.1121 40.0106 6.97548 40.4376 6.69911C40.8646 6.42273 41.1951 6.0203 41.383 5.54765C41.571 5.07501 41.6072 4.55557 41.4866 4.06143C41.366 3.56728 41.0946 3.12292 40.71 2.79C40.697 2.77269 40.69 2.75164 40.69 2.73C40.69 2.70836 40.697 2.68731 40.71 2.67C40.7181 2.6471 40.7329 2.62719 40.7526 2.61291C40.7722 2.59863 40.7957 2.59064 40.82 2.59C41.1342 2.60886 41.444 2.67285 41.74 2.78C42.4036 3.04499 42.938 3.55786 43.23 4.21C43.3727 4.53087 43.4504 4.87681 43.4586 5.22787C43.4669 5.57892 43.4056 5.92814 43.2782 6.25538C43.1509 6.58262 42.96 6.88141 42.7166 7.1345C42.4732 7.38759 42.182 7.58999 41.86 7.73V7.73Z" fill="white"/>
<path d="M13.52 13.5401C13.1829 13.3421 12.8238 13.1844 12.45 13.0701L11.36 12.7401V9.8601C11.6648 9.86808 11.9645 9.93961 12.24 10.0701C12.4872 10.1881 12.7056 10.3588 12.88 10.5701C13.0547 10.7752 13.1934 11.0085 13.29 11.2601C13.4 11.5201 13.5 11.7801 13.6 12.0501H13.91V9.7301H13.57C13.5466 9.79206 13.5128 9.84955 13.47 9.9001C13.47 9.9001 13.47 9.9001 13.29 9.9001C13.1944 9.91842 13.0966 9.92179 13 9.9101L12.59 9.7601L12 9.6101C11.7823 9.56875 11.5615 9.54533 11.34 9.5401V8.8501H11V9.5501C10.6229 9.57073 10.2515 9.65176 9.9 9.7901C9.56346 9.92256 9.25224 10.112 8.98 10.3501C8.73077 10.5643 8.52679 10.8261 8.38 11.1201C8.232 11.4343 8.15945 11.7788 8.16813 12.126C8.17681 12.4733 8.26648 12.8137 8.43 13.1201C8.59906 13.4054 8.82757 13.651 9.1 13.8401C9.38621 14.04 9.69933 14.1982 10.03 14.3101L11.03 14.6101V18.0001H10.73C10.5879 17.9861 10.4473 17.9594 10.31 17.9201C10.1471 17.8651 9.9897 17.7947 9.84 17.7101C9.65891 17.6075 9.49101 17.4833 9.34 17.3401C9.17808 17.1941 9.03377 17.0296 8.91 16.8501C8.79712 16.681 8.69685 16.5039 8.61 16.3201C8.5432 16.1639 8.48641 16.0035 8.44 15.8401C8.40284 15.722 8.37278 15.6018 8.35 15.4801V15.4201H8V18.1601H8.3V18.1101C8.33658 18.0661 8.38058 18.0289 8.43 18.0001C8.49875 17.9814 8.57125 17.9814 8.64 18.0001C8.75973 17.9886 8.88027 17.9886 9 18.0001L9.59 18.1501L10.31 18.3001C10.5378 18.34 10.7687 18.3601 11 18.3601V19.1801H11.37V18.3601C11.8112 18.3361 12.2462 18.2451 12.66 18.0901C13.0261 17.9329 13.3639 17.7167 13.66 17.4501C13.9441 17.1996 14.1782 16.8977 14.35 16.5601C14.5095 16.2189 14.5915 15.8467 14.59 15.4701C14.6079 15.0608 14.4997 14.6559 14.28 14.3101C14.0806 14.0053 13.8222 13.7435 13.52 13.5401ZM11.36 14.6901C11.61 14.7501 11.85 14.8301 12.08 14.9101C12.3104 14.9861 12.5292 15.0938 12.73 15.2301C12.9027 15.349 13.049 15.5022 13.16 15.6801C13.2733 15.8701 13.3289 16.089 13.32 16.3101C13.3134 16.4801 13.2831 16.6484 13.23 16.8101C13.1646 17.0175 13.0555 17.2085 12.91 17.3701C12.7378 17.5676 12.5267 17.7276 12.29 17.8401C11.9952 17.963 11.6794 18.0275 11.36 18.0301V14.6901ZM10.36 12.4501C10.1529 12.3722 9.955 12.2716 9.77 12.1501C9.61918 12.0451 9.49294 11.9086 9.4 11.7501C9.30841 11.5957 9.26005 11.4196 9.26 11.2401C9.26244 11.0793 9.3036 10.9216 9.38 10.7801C9.46344 10.6155 9.57905 10.4693 9.72 10.3501C9.89498 10.2106 10.0907 10.0992 10.3 10.0201C10.5243 9.93309 10.7601 9.87919 11 9.8601V12.6501C10.76 12.5901 10.54 12.5201 10.35 12.4501H10.36Z" fill="white"/>
<path d="M20.63 14.0001C20.3222 13.7989 19.9848 13.647 19.63 13.5501C19.3643 13.467 19.0938 13.4002 18.82 13.3501L19.57 13.1401C19.878 13.0459 20.1735 12.915 20.45 12.7501C20.6912 12.6051 20.899 12.4108 21.06 12.1801C21.2206 11.9375 21.301 11.6507 21.29 11.3601C21.2875 11.1748 21.2502 10.9916 21.18 10.8201C21.0918 10.5938 20.9513 10.3916 20.77 10.2301C20.5452 10.0189 20.2844 9.84953 20 9.73005C19.561 9.58879 19.1009 9.52451 18.64 9.54005C18.0044 9.51119 17.3726 9.65274 16.81 9.95005C16.5979 10.0629 16.4206 10.2315 16.2973 10.4377C16.1739 10.6439 16.1092 10.8798 16.11 11.1201C16.0996 11.2222 16.1197 11.3252 16.1678 11.4159C16.2158 11.5067 16.2897 11.5812 16.38 11.6301C16.5324 11.7164 16.7048 11.7613 16.88 11.7601H17.13C17.2301 11.7612 17.3291 11.7393 17.4193 11.6959C17.5095 11.6525 17.5884 11.5889 17.65 11.5101C17.7163 11.3985 17.7476 11.2696 17.74 11.1401C17.7433 11.0934 17.7433 11.0467 17.74 11.0001V10.7801C17.74 10.7001 17.74 10.6301 17.74 10.5601C17.7373 10.5168 17.7373 10.4733 17.74 10.4301C17.7337 10.3453 17.7521 10.2606 17.7929 10.186C17.8337 10.1115 17.8952 10.0504 17.97 10.0101C18.1417 9.90742 18.3403 9.85865 18.54 9.87005C18.7699 9.85511 18.9992 9.90722 19.2 10.0201C19.3406 10.1165 19.4542 10.2473 19.53 10.4001C19.5991 10.5443 19.6398 10.7005 19.65 10.8601C19.65 11.0201 19.65 11.1501 19.65 11.2601C19.6657 11.6008 19.6113 11.9412 19.49 12.2601C19.4074 12.4706 19.2813 12.6615 19.12 12.8201C18.9972 12.9346 18.8503 13.02 18.69 13.0701L18.31 13.1801C18.01 13.2334 17.73 13.2934 17.47 13.3601C17.183 13.4417 16.9075 13.5593 16.65 13.7101H16.58L16.77 14.0101H16.83C17.058 13.8755 17.2993 13.7649 17.55 13.6801C17.7894 13.5891 18.044 13.545 18.3 13.5501C18.6114 13.5344 18.9215 13.5998 19.2 13.7401C19.3949 13.8587 19.5539 14.0281 19.66 14.2301C19.7529 14.4356 19.8104 14.6553 19.83 14.8801C19.83 15.1301 19.83 15.3601 19.83 15.5701C19.8332 15.9044 19.8131 16.2385 19.77 16.5701C19.7353 16.8477 19.647 17.116 19.51 17.3601C19.3861 17.586 19.1982 17.7703 18.97 17.8901C18.6786 18.0349 18.3552 18.1037 18.03 18.0901C17.7041 18.099 17.3801 18.0376 17.08 17.9101C16.8422 17.8027 16.6254 17.6537 16.44 17.4701C16.278 17.3193 16.1457 17.1395 16.05 16.9401C15.9741 16.7806 15.917 16.6128 15.88 16.4401V16.3501L15.52 16.4601V16.5301C15.5942 16.8434 15.7228 17.1412 15.9 17.4101C16.0649 17.6402 16.2719 17.837 16.51 17.9901C16.7503 18.1375 17.0141 18.2424 17.29 18.3001C17.5862 18.3607 17.8877 18.3908 18.19 18.3901C18.721 18.404 19.25 18.3192 19.75 18.1401C20.1475 18.0022 20.5143 17.7882 20.83 17.5101C21.0999 17.2724 21.3148 16.979 21.46 16.6501C21.5926 16.3646 21.6641 16.0547 21.67 15.7401C21.6764 15.3892 21.5864 15.0434 21.41 14.7401C21.2121 14.4352 20.9448 14.1816 20.63 14.0001V14.0001Z" fill="white"/>
<path d="M28.7398 12.42C28.6779 12.0786 28.5841 11.7439 28.4598 11.42C28.339 11.0813 28.1596 10.7666 27.9298 10.49C27.6703 10.2013 27.3536 9.96974 26.9998 9.80998C26.5829 9.61957 26.128 9.52721 25.6698 9.53998C25.2528 9.53115 24.8392 9.61661 24.4598 9.78998C24.1342 9.94955 23.8422 10.1702 23.5998 10.44C23.3664 10.7045 23.1773 11.0051 23.0398 11.33C22.902 11.6525 22.7949 11.9873 22.7198 12.33C22.6543 12.6339 22.6042 12.941 22.5698 13.25C22.5698 13.53 22.5698 13.77 22.5698 13.96C22.5698 14.15 22.5698 14.32 22.5698 14.59C22.5804 14.8921 22.6139 15.1929 22.6698 15.49C22.7338 15.8298 22.8241 16.1641 22.9398 16.49C23.066 16.8252 23.2487 17.1364 23.4798 17.41C23.7245 17.7002 24.0278 17.9354 24.3698 18.1C24.7837 18.2879 25.2356 18.3769 25.6898 18.36C26.1092 18.3707 26.5258 18.2888 26.9098 18.12C27.2397 17.9673 27.533 17.7457 27.7698 17.47C27.999 17.2023 28.1877 16.9025 28.3298 16.58C28.4706 16.2585 28.5778 15.9234 28.6498 15.58C28.7179 15.2803 28.7647 14.9762 28.7898 14.67C28.8026 14.4302 28.8026 14.1898 28.7898 13.95C28.7898 13.8 28.7898 13.6 28.7898 13.33C28.7963 13.0258 28.7795 12.7216 28.7398 12.42V12.42ZM24.4598 15.83C24.4598 15.3 24.4598 14.66 24.4598 13.94C24.4598 13.22 24.4598 12.58 24.4598 12.05C24.4662 11.622 24.5199 11.1961 24.6198 10.78C24.6799 10.514 24.8153 10.271 25.0098 10.08C25.2069 9.9206 25.457 9.84197 25.7098 9.85998C25.9624 9.84377 26.2129 9.91433 26.4198 10.06C26.6167 10.2355 26.7502 10.471 26.7998 10.73C26.9146 11.1443 26.9817 11.5704 26.9998 12C26.9998 12.52 26.9998 13.18 26.9998 13.94C26.9998 14.7 26.9998 15.3 26.9998 15.83C26.9906 16.2616 26.9336 16.6909 26.8298 17.11C26.7747 17.3756 26.6425 17.6191 26.4498 17.81C26.2426 17.9532 25.9967 18.0299 25.7448 18.0299C25.4929 18.0299 25.247 17.9532 25.0398 17.81C24.8471 17.6176 24.712 17.3751 24.6498 17.11C24.5399 16.6915 24.4762 16.2623 24.4598 15.83V15.83Z" fill="white"/>
<path d="M34.0002 9.80989C33.5871 9.61858 33.1352 9.52613 32.6802 9.53989C32.2883 9.52536 31.8982 9.59863 31.5383 9.75435C31.1784 9.91007 30.8579 10.1443 30.6002 10.4399C30.3667 10.7044 30.1776 11.005 30.0402 11.3299C29.9024 11.6524 29.7953 11.9873 29.7202 12.3299C29.6528 12.6331 29.606 12.9404 29.5802 13.2499C29.5677 13.4864 29.5677 13.7234 29.5802 13.9599C29.5802 14.1099 29.5802 14.3199 29.5802 14.5899C29.5908 14.892 29.6242 15.1928 29.6802 15.4899C29.743 15.831 29.8367 16.1658 29.9602 16.4899C30.079 16.8265 30.2586 17.1383 30.4902 17.4099C30.7349 17.7001 31.0382 17.9353 31.3802 18.0999C31.7979 18.2869 32.2528 18.3758 32.7102 18.3599C33.1296 18.3707 33.5462 18.2887 33.9302 18.1199C34.2555 17.9645 34.545 17.7432 34.7802 17.4699C35.0094 17.2022 35.1981 16.9024 35.3402 16.5799C35.481 16.2585 35.5882 15.9233 35.6602 15.5799C35.7264 15.2795 35.7765 14.9757 35.8102 14.6699C35.8102 14.3899 35.8102 14.1499 35.8102 13.9499C35.8102 13.7999 35.8102 13.5999 35.8102 13.3299C35.7996 13.0278 35.7662 12.7269 35.7102 12.4299C35.6471 12.0899 35.5568 11.7555 35.4402 11.4299C35.3118 11.0927 35.1294 10.7786 34.9002 10.4999C34.6504 10.2109 34.3441 9.9761 34.0002 9.80989V9.80989ZM31.4202 15.8099C31.4202 15.2799 31.4202 14.6399 31.4202 13.9199C31.4202 13.1999 31.4202 12.5599 31.4202 12.0299C31.4316 11.6023 31.4852 11.1769 31.5802 10.7599C31.6403 10.494 31.7757 10.2509 31.9702 10.0599C32.1698 9.89806 32.4241 9.81928 32.6802 9.83989C32.9324 9.82679 33.1819 9.89708 33.3902 10.0399C33.5802 10.2209 33.7124 10.454 33.7702 10.7099C33.8757 11.132 33.9327 11.5648 33.9402 11.9999C33.9402 12.5199 33.9402 13.1799 33.9402 13.9399C33.9402 14.6999 33.9402 15.2999 33.9402 15.8299C33.9336 16.2611 33.88 16.6903 33.7802 17.1099C33.718 17.375 33.5829 17.6175 33.3902 17.8099C33.183 17.9531 32.9371 18.0298 32.6852 18.0298C32.4333 18.0298 32.1874 17.9531 31.9802 17.8099C31.7875 17.6175 31.6524 17.375 31.5902 17.1099C31.4953 16.6895 31.4417 16.2608 31.4302 15.8299L31.4202 15.8099Z" fill="white"/>
</svg>
