<svg width="47" height="41" viewBox="0 0 47 41" fill="none" xmlns="http://www.w3.org/2000/svg">
<path d="M42.8399 13.3396C43.7384 13.2911 44.5841 12.9 45.203 12.2468C45.8218 11.5937 46.1667 10.7281 46.1667 9.82835C46.1667 8.92857 45.8218 8.06302 45.203 7.40986C44.5841 6.7567 43.7384 6.36562 42.8399 6.31713V6.31713H42.6866C42.743 6.01703 42.7738 5.71269 42.7786 5.40738C42.7826 4.7013 42.6476 4.00133 42.3811 3.34745C42.1146 2.69357 41.7219 2.09859 41.2255 1.59646C40.7291 1.09434 40.1386 0.694912 39.4878 0.42099C38.837 0.147068 38.1386 0.00401561 37.4326 5.49538e-09V5.49538e-09C36.0154 -6.40231e-05 34.6555 0.559388 33.6486 1.55669C32.6417 2.55399 32.0693 3.90849 32.0558 5.3256C32.0525 5.66854 32.0834 6.01096 32.1478 6.34779H31.923C31.2236 6.33357 30.5358 6.52828 29.9477 6.90702C29.3595 7.28577 28.8977 7.83133 28.6213 8.47395L0 8.53528V10.8965H1.1653V11.745H0V14.0347H1.8195V13.4111H2.84169V14.0347H4.61007V11.7347H3.46522V10.8965L28.5191 10.8352C28.7289 11.5633 29.169 12.2038 29.7735 12.6608C30.3779 13.1178 31.1141 13.3667 31.8719 13.3702V13.3702C31.9774 13.3757 32.0832 13.3757 32.1887 13.3702C32.1323 13.6738 32.1015 13.9815 32.0967 14.2902C32.0858 15.7172 32.6416 17.0901 33.642 18.1078C34.6423 19.1254 36.0056 19.7045 37.4326 19.718V19.718C38.146 19.7248 38.8537 19.5898 39.5145 19.3208C40.1753 19.0519 40.7761 18.6543 41.2821 18.1512C41.788 17.6482 42.1889 17.0496 42.4616 16.3903C42.7343 15.731 42.8733 15.0241 42.8706 14.3106V14.3106C42.8675 13.9675 42.8332 13.6254 42.7684 13.2885H42.8399V13.3396ZM31.8719 11.4792C31.6483 11.497 31.4234 11.4683 31.2115 11.3949C30.9995 11.3215 30.805 11.2051 30.6403 11.0529C30.4755 10.9007 30.344 10.7161 30.2541 10.5106C30.1642 10.3052 30.1178 10.0833 30.1178 9.85901C30.1178 9.63473 30.1642 9.41286 30.2541 9.20739C30.344 9.00192 30.4755 8.81728 30.6403 8.6651C30.805 8.51292 30.9995 8.39648 31.2115 8.32312C31.4234 8.24977 31.6483 8.22107 31.8719 8.23884V8.23884C32.2793 8.27123 32.6596 8.45597 32.937 8.75624C33.2143 9.05651 33.3683 9.45026 33.3683 9.85901C33.3683 10.2678 33.2143 10.6615 32.937 10.9618C32.6596 11.2621 32.2793 11.4468 31.8719 11.4792V11.4792ZM34.9384 2.88257C35.2584 2.5599 35.6389 2.30352 36.0581 2.12811C36.4773 1.95271 36.927 1.86173 37.3814 1.86038V1.86038C37.8393 1.85903 38.2929 1.9487 38.7158 2.12418C39.1387 2.29966 39.5225 2.55746 39.8449 2.88257C40.1694 3.20754 40.4267 3.59327 40.6021 4.01772C40.7775 4.44217 40.8676 4.89701 40.8671 5.35627C40.8762 5.82103 40.7923 6.28293 40.6203 6.71477C40.4483 7.14662 40.1916 7.53969 39.8654 7.87086C39.5421 8.19767 39.1567 8.45647 38.7319 8.63203C38.307 8.80758 37.8513 8.89633 37.3917 8.89304C36.4653 8.88226 35.5809 8.5053 34.9317 7.84452C34.2824 7.18375 33.921 6.29286 33.9264 5.36649C33.9216 4.90599 34.0086 4.44914 34.1824 4.02265C34.3561 3.59616 34.6131 3.20858 34.9384 2.88257V2.88257ZM39.9369 16.7946C39.4263 17.2873 38.7771 17.6119 38.0765 17.7248L38.7614 17.2443C38.5515 16.9511 38.3117 16.6805 38.0459 16.4368L37.1566 17.459C37.2771 17.5776 37.3898 17.7039 37.4939 17.8372V17.8372C36.8558 17.8283 36.2324 17.6444 35.6917 17.3055C35.1509 16.9666 34.7136 16.4858 34.4273 15.9155C34.461 15.908 34.4959 15.908 34.5295 15.9155L34.9589 16.0995L35.5006 14.8933L35.0509 14.6991C34.8808 14.6305 34.7067 14.5724 34.5295 14.5253L34.3149 15.3328V15.5271V15.4453C34.1736 15.0697 34.1043 14.671 34.1104 14.2698C34.1185 13.3506 34.4893 12.4719 35.1421 11.8248C35.795 11.1778 36.6769 10.8147 37.5961 10.8148V10.8148C38.2849 10.8241 38.9556 11.0367 39.524 11.4259C40.0924 11.8151 40.5331 12.3636 40.7909 13.0024C41.0486 13.6413 41.1118 14.342 40.9726 15.0167C40.8334 15.6914 40.498 16.3099 40.0085 16.7946H39.9369ZM41.2147 9.83346C41.2106 9.61831 41.2493 9.40451 41.3285 9.20443C41.4077 9.00436 41.5259 8.82202 41.6761 8.66797C41.8264 8.51392 42.0057 8.39124 42.2037 8.30705C42.4018 8.22286 42.6145 8.17883 42.8297 8.17751C43.2372 8.2099 43.6175 8.39464 43.8948 8.69491C44.1722 8.99518 44.3262 9.38893 44.3262 9.79768C44.3262 10.2064 44.1722 10.6002 43.8948 10.9005C43.6175 11.2007 43.2372 11.3855 42.8297 11.4179C42.4066 11.4179 42.0004 11.252 41.6984 10.9557C41.3964 10.6594 41.2227 10.2565 41.2147 9.83346V9.83346Z" fill="white"/>
<path d="M29.9914 18.4709L21.1393 14.5457L0.756836 27.2515L9.333 40.9999L29.7154 28.2839L29.7768 26.2395L29.9097 26.2906L30.2674 25.0129C30.1133 24.9708 29.9628 24.9161 29.8177 24.8493L29.9914 18.4709ZM28.3355 23.9293L28.1413 23.7658L27.2315 24.7267C27.4781 24.9671 27.7448 25.186 28.0288 25.3809L28.3048 24.9822L28.2333 27.4355L9.81343 38.9249L2.83188 27.7319L21.2313 16.2425L28.3866 19.4317L28.3355 23.9293Z" fill="white"/>
<path d="M26.1984 22.2326C26.4147 22.1081 26.5887 21.9215 26.6978 21.6969C26.8069 21.4724 26.8461 21.2203 26.8104 20.9732C26.7746 20.7261 26.6655 20.4955 26.4972 20.3111C26.3289 20.1267 26.1091 19.9971 25.8664 19.939C25.6236 19.8809 25.3689 19.897 25.1354 19.9853C24.9019 20.0735 24.7002 20.2298 24.5565 20.4339C24.4128 20.6381 24.3336 20.8806 24.3293 21.1302C24.325 21.3798 24.3956 21.625 24.5322 21.834C24.7047 22.1027 24.9745 22.2942 25.2851 22.3685C25.5956 22.4428 25.9229 22.3941 26.1984 22.2326V22.2326Z" fill="white"/>
<path d="M19.3091 24.8392L13.1964 23.3979L11.9902 29.3982L14.2902 27.9671L16.8865 31.923L19.6158 30.2262L17.0092 26.2703L19.3091 24.8392Z" fill="white"/>
<path d="M29.5518 14.8423C29.2451 14.9547 28.9385 15.0774 28.6216 15.2205L29.1736 16.4165C29.4496 16.2938 29.7153 16.1814 29.9811 16.0894L29.5518 14.8423Z" fill="white"/>
<path d="M27.742 15.6704C27.466 15.834 27.19 16.018 26.9038 16.2122L27.6705 17.2855C27.9158 17.1117 28.1611 16.9584 28.4064 16.8153L27.742 15.6704Z" fill="white"/>
<path d="M31.4836 14.3823C31.1397 14.4242 30.7984 14.4856 30.4614 14.5663L30.7681 15.8441C31.0508 15.7749 31.3376 15.7237 31.6267 15.6907L31.4836 14.3823Z" fill="white"/>
<path d="M26.5767 23.9705L27.5989 23.1527C27.4172 22.9402 27.2466 22.7184 27.0878 22.4883L25.9634 23.1834C26.1536 23.4565 26.3584 23.7192 26.5767 23.9705V23.9705Z" fill="white"/>
<path d="M37.0137 22.2839L38.0359 23.1221C38.2554 22.854 38.4504 22.5666 38.6185 22.2635L37.4839 21.5786C37.3436 21.8243 37.1865 22.0599 37.0137 22.2839V22.2839Z" fill="white"/>
<path d="M37.9742 20.4437C37.9442 20.5664 37.9031 20.6861 37.8516 20.8015L39.0884 21.3023L39.2417 20.8423C39.3031 20.6481 39.344 20.4539 39.3848 20.2699L38.0867 20.0042C38.0637 20.154 38.026 20.3012 37.9742 20.4437V20.4437Z" fill="white"/>
<path d="M35.7764 16.4675C36.0329 16.6003 36.282 16.747 36.5226 16.9071L37.2483 15.8031C36.9723 15.6191 36.6861 15.4555 36.3897 15.292L35.7764 16.4675Z" fill="white"/>
<path d="M34.3252 24.4098L34.8976 25.6262C35.1941 25.4831 35.4905 25.3196 35.7767 25.1458L35.0816 23.9907C34.8374 24.1442 34.5848 24.2841 34.3252 24.4098Z" fill="white"/>
<path d="M32.71 24.9822L32.9962 26.3008C33.3246 26.2264 33.6488 26.1343 33.9673 26.0248L33.5277 24.7471C33.2613 24.8456 32.988 24.9242 32.71 24.9822V24.9822Z" fill="white"/>
<path d="M35.7764 23.51L36.5839 24.5322C36.8526 24.3267 37.1055 24.1011 37.3403 23.8576L36.4203 22.8967C36.2364 23.1216 36.0217 23.3158 35.7764 23.51Z" fill="white"/>
<path d="M31.5041 25.1255C31.3578 25.1358 31.2109 25.1358 31.0646 25.1255L30.9419 26.4645C31.1292 26.4747 31.3168 26.4747 31.5041 26.4645H31.9845L31.8823 25.1152L31.5041 25.1255Z" fill="white"/>
</svg>
